NotoSansManichaean-Regular.ufo
<glyph name="uni0640" format="2">
  <advance width="146"/>
  <unicode hex="0640"/>
  <outline>
    <contour>
      <point x="-39" y="0" type="line"/>
      <point x="185" y="0" type="line"/>
      <point x="185" y="81" type="line"/>
      <point x="-39" y="81" type="line"/>
    </contour>
  </outline>
</glyph>
<glyph name="uniFE00" format="2">
  <unicode hex="FE00"/>
  <outline>
    <contour>
      <point x="288" y="349" type="line"/>
      <point x="324" y="349" type="line"/>
      <point x="426" y="623" type="line"/>
      <point x="388" y="623" type="line"/>
      <point x="323" y="447" type="line" smooth="yes"/>
      <point x="315" y="424"/>
      <point x="309" y="405"/>
      <point x="306" y="388" type="curve"/>
      <point x="302" y="405"/>
      <point x="296" y="424"/>
      <point x="288" y="447" type="curve" smooth="yes"/>
      <point x="223" y="623" type="line"/>
      <point x="186" y="623" type="line"/>
    </contour>
    <contour>
      <point x="49" y="0" type="line"/>
      <point x="207" y="0" type="line"/>
      <point x="207" y="34" type="line"/>
      <point x="83" y="34" type="line"/>
      <point x="83" y="158" type="line"/>
      <point x="49" y="158" type="line"/>
    </contour>
    <contour>
      <point x="281" y="0" type="line"/>
      <point x="390" y="0" type="line"/>
      <point x="390" y="34" type="line"/>
      <point x="281" y="34" type="line"/>
    </contour>
    <contour>
      <point x="49" y="281" type="line"/>
      <point x="83" y="281" type="line"/>
      <point x="83" y="439" type="line"/>
      <point x="49" y="439" type="line"/>
    </contour>
    <contour>
      <point x="463" y="0" type="line"/>
      <point x="573" y="0" type="line"/>
      <point x="573" y="34" type="line"/>
      <point x="463" y="34" type="line"/>
    </contour>
    <contour>
      <point x="410" y="85" type="line"/>
      <point x="448" y="85" type="line"/>
      <point x="448" y="323" type="line"/>
      <point x="416" y="323" type="line"/>
      <point x="331" y="273" type="line"/>
      <point x="351" y="253" type="line"/>
      <point x="384" y="273" type="line" smooth="yes"/>
      <point x="396" y="280"/>
      <point x="400" y="283"/>
      <point x="412" y="292" type="curve"/>
      <point x="410" y="270"/>
      <point x="410" y="263"/>
      <point x="410" y="251" type="curve" smooth="yes"/>
    </contour>
    <contour>
      <point x="49" y="561" type="line"/>
      <point x="83" y="561" type="line"/>
      <point x="83" y="685" type="line"/>
      <point x="207" y="685" type="line"/>
      <point x="207" y="719" type="line"/>
      <point x="49" y="719" type="line"/>
    </contour>
    <contour>
      <point x="647" y="0" type="line"/>
      <point x="805" y="0" type="line"/>
      <point x="805" y="158" type="line"/>
      <point x="771" y="158" type="line"/>
      <point x="771" y="34" type="line"/>
      <point x="647" y="34" type="line"/>
    </contour>
    <contour>
      <point x="281" y="685" type="line"/>
      <point x="390" y="685" type="line"/>
      <point x="390" y="719" type="line"/>
      <point x="281" y="719" type="line"/>
    </contour>
    <contour>
      <point x="559" y="345" type="curve" smooth="yes"/>
      <point x="622" y="345"/>
      <point x="661" y="374"/>
      <point x="661" y="422" type="curve" smooth="yes"/>
      <point x="661" y="465"/>
      <point x="634" y="482"/>
      <point x="583" y="501" type="curve" smooth="yes"/>
      <point x="537" y="518"/>
      <point x="521" y="529"/>
      <point x="521" y="556" type="curve" smooth="yes"/>
      <point x="521" y="580"/>
      <point x="539" y="596"/>
      <point x="575" y="596" type="curve" smooth="yes"/>
      <point x="600" y="596"/>
      <point x="624" y="590"/>
      <point x="643" y="582" type="curve"/>
      <point x="654" y="611" type="line"/>
      <point x="633" y="620"/>
      <point x="607" y="626"/>
      <point x="576" y="626" type="curve" smooth="yes"/>
      <point x="521" y="626"/>
      <point x="484" y="600"/>
      <point x="484" y="557" type="curve" smooth="yes"/>
      <point x="484" y="514"/>
      <point x="509" y="493"/>
      <point x="558" y="476" type="curve" smooth="yes"/>
      <point x="610" y="458"/>
      <point x="625" y="446"/>
      <point x="625" y="419" type="curve" smooth="yes"/>
      <point x="625" y="392"/>
      <point x="603" y="375"/>
      <point x="561" y="375" type="curve" smooth="yes"/>
      <point x="530" y="375"/>
      <point x="500" y="383"/>
      <point x="481" y="391" type="curve"/>
      <point x="481" y="358" type="line"/>
      <point x="499" y="350"/>
      <point x="527" y="345"/>
    </contour>
    <contour>
      <point x="771" y="281" type="line"/>
      <point x="805" y="281" type="line"/>
      <point x="805" y="439" type="line"/>
      <point x="771" y="439" type="line"/>
    </contour>
    <contour>
      <point x="463" y="685" type="line"/>
      <point x="573" y="685" type="line"/>
      <point x="573" y="719" type="line"/>
      <point x="463" y="719" type="line"/>
    </contour>
    <contour>
      <point x="771" y="561" type="line"/>
      <point x="805" y="561" type="line"/>
      <point x="805" y="719" type="line"/>
      <point x="647" y="719" type="line"/>
      <point x="647" y="685" type="line"/>
      <point x="771" y="685" type="line"/>
    </contour>
  </outline>
</glyph>
<glyph name="u10AC3" format="2">
  <advance width="529"/>
  <unicode hex="10AC3"/>
  <outline>
    <contour>
      <point x="338" y="-303" type="curve" smooth="yes"/>
      <point x="378" y="-303"/>
      <point x="451" y="-251"/>
      <point x="451" y="-179" type="curve" smooth="yes"/>
      <point x="451" y="-135"/>
      <point x="423" y="-54"/>
      <point x="396" y="16" type="curve" smooth="yes"/>
      <point x="240" y="413" type="line" smooth="yes"/>
      <point x="222" y="460"/>
      <point x="210" y="499"/>
      <point x="210" y="513" type="curve" smooth="yes"/>
      <point x="210" y="523"/>
      <point x="217" y="535"/>
      <point x="224" y="545" type="curve" smooth="yes"/>
      <point x="231" y="556"/>
      <point x="237" y="566"/>
      <point x="237" y="576" type="curve" smooth="yes"/>
      <point x="237" y="597"/>
      <point x="219" y="625"/>
      <point x="130" y="625" type="curve" smooth="yes"/>
      <point x="95" y="625"/>
      <point x="84" y="609"/>
      <point x="84" y="587" type="curve" smooth="yes"/>
      <point x="84" y="553"/>
      <point x="118" y="468"/>
      <point x="158" y="368" type="curve" smooth="yes"/>
      <point x="296" y="26" type="line" smooth="yes"/>
      <point x="324" y="-44"/>
      <point x="362" y="-150"/>
      <point x="362" y="-189" type="curve" smooth="yes"/>
      <point x="362" y="-212"/>
      <point x="349" y="-232"/>
      <point x="335" y="-247" type="curve" smooth="yes"/>
      <point x="324" y="-259"/>
      <point x="315" y="-270"/>
      <point x="315" y="-282" type="curve" smooth="yes"/>
      <point x="315" y="-297"/>
      <point x="327" y="-303"/>
    </contour>
    <contour>
      <point x="162" y="0" type="curve" smooth="yes"/>
      <point x="360" y="0" type="line"/>
      <point x="334" y="81" type="line"/>
      <point x="201" y="81" type="line" smooth="yes"/>
      <point x="181" y="81"/>
      <point x="162" y="84"/>
      <point x="146" y="89" type="curve" smooth="yes"/>
      <point x="134" y="93"/>
      <point x="121" y="96"/>
      <point x="111" y="96" type="curve" smooth="yes"/>
      <point x="91" y="96"/>
      <point x="78" y="84"/>
      <point x="78" y="48" type="curve" smooth="yes"/>
      <point x="78" y="2"/>
      <point x="102" y="0"/>
    </contour>
  </outline>
</glyph>
<glyph name="u10AC5" format="2">
  <advance width="419"/>
  <unicode hex="10AC5"/>
  <outline>
    <contour>
      <point x="286" y="-89" type="curve" smooth="yes"/>
      <point x="306" y="-89"/>
      <point x="314" y="-78"/>
      <point x="314" y="-63" type="curve" smooth="yes"/>
      <point x="314" y="-42"/>
      <point x="300" y="-25"/>
      <point x="280" y="-3" type="curve" smooth="yes"/>
      <point x="258" y="22"/>
      <point x="241" y="48"/>
      <point x="241" y="70" type="curve" smooth="yes"/>
      <point x="241" y="89"/>
      <point x="253" y="100"/>
      <point x="268" y="109" type="curve" smooth="yes"/>
      <point x="279" y="115"/>
      <point x="301" y="130"/>
      <point x="301" y="156" type="curve" smooth="yes"/>
      <point x="301" y="211"/>
      <point x="198" y="236"/>
      <point x="134" y="236" type="curve" smooth="yes"/>
      <point x="67" y="236"/>
      <point x="44" y="208"/>
      <point x="44" y="171" type="curve" smooth="yes"/>
      <point x="44" y="74"/>
      <point x="208" y="-89"/>
    </contour>
  </outline>
</glyph>
<glyph name="u10AC6" format="2">
  <advance width="950"/>
  <unicode hex="10AC6"/>
  <outline>
    <contour>
      <point x="163" y="-10" type="curve" smooth="yes"/>
      <point x="369" y="-10"/>
      <point x="538" y="159"/>
      <point x="634" y="263" type="curve" smooth="yes"/>
      <point x="674" y="306"/>
      <point x="704" y="338"/>
      <point x="724" y="343" type="curve"/>
      <point x="730" y="312"/>
      <point x="740" y="281"/>
      <point x="750" y="252" type="curve" smooth="yes"/>
      <point x="763" y="215"/>
      <point x="773" y="175"/>
      <point x="773" y="151" type="curve" smooth="yes"/>
      <point x="773" y="134"/>
      <point x="772" y="110"/>
      <point x="768" y="87" type="curve" smooth="yes"/>
      <point x="765" y="68"/>
      <point x="764" y="56"/>
      <point x="764" y="41" type="curve" smooth="yes"/>
      <point x="764" y="6"/>
      <point x="790" y="-10"/>
      <point x="825" y="-10" type="curve" smooth="yes"/>
      <point x="867" y="-10"/>
      <point x="885" y="13"/>
      <point x="885" y="69" type="curve" smooth="yes"/>
      <point x="885" y="107"/>
      <point x="872" y="147"/>
      <point x="857" y="186" type="curve" smooth="yes"/>
      <point x="843" y="222"/>
      <point x="832" y="259"/>
      <point x="832" y="292" type="curve" smooth="yes"/>
      <point x="832" y="313"/>
      <point x="834" y="335"/>
      <point x="838" y="354" type="curve" smooth="yes"/>
      <point x="841" y="369"/>
      <point x="842" y="381"/>
      <point x="842" y="388" type="curve" smooth="yes"/>
      <point x="842" y="432"/>
      <point x="818" y="444"/>
      <point x="781" y="444" type="curve" smooth="yes"/>
      <point x="760" y="444"/>
      <point x="740" y="437"/>
      <point x="729" y="424" type="curve"/>
      <point x="267" y="424" type="line" smooth="yes"/>
      <point x="209" y="424"/>
      <point x="177" y="440"/>
      <point x="155" y="453" type="curve" smooth="yes"/>
      <point x="142" y="461"/>
      <point x="129" y="468"/>
      <point x="107" y="468" type="curve" smooth="yes"/>
      <point x="74" y="468"/>
      <point x="55" y="449"/>
      <point x="55" y="413" type="curve" smooth="yes"/>
      <point x="55" y="372"/>
      <point x="90" y="344"/>
      <point x="157" y="344" type="curve" smooth="yes"/>
      <point x="589" y="344" type="line"/>
      <point x="510" y="247"/>
      <point x="326" y="80"/>
      <point x="199" y="80" type="curve" smooth="yes"/>
      <point x="171" y="80"/>
      <point x="156" y="89"/>
      <point x="143" y="98" type="curve" smooth="yes"/>
      <point x="129" y="107"/>
      <point x="112" y="114"/>
      <point x="95" y="114" type="curve" smooth="yes"/>
      <point x="66" y="114"/>
      <point x="44" y="97"/>
      <point x="44" y="62" type="curve" smooth="yes"/>
      <point x="44" y="21"/>
      <point x="82" y="-10"/>
    </contour>
  </outline>
</glyph>
<glyph name="u10AC7" format="2">
  <advance width="451"/>
  <unicode hex="10AC7"/>
  <outline>
    <contour>
      <point x="377" y="-45" type="curve" smooth="yes"/>
      <point x="389" y="-45"/>
      <point x="392" y="-35"/>
      <point x="392" y="-20" type="curve" smooth="yes"/>
      <point x="392" y="0"/>
      <point x="384" y="27"/>
      <point x="377" y="48" type="curve" smooth="yes"/>
      <point x="362" y="96"/>
      <point x="288" y="284"/>
      <point x="176" y="284" type="curve" smooth="yes"/>
      <point x="117" y="284"/>
      <point x="59" y="208"/>
      <point x="59" y="138" type="curve" smooth="yes"/>
      <point x="59" y="92"/>
      <point x="115" y="3"/>
      <point x="163" y="3" type="curve" smooth="yes"/>
      <point x="181" y="3"/>
      <point x="184" y="15"/>
      <point x="192" y="46" type="curve" smooth="yes"/>
      <point x="199" y="74"/>
      <point x="208" y="105"/>
      <point x="238" y="105" type="curve" smooth="yes"/>
      <point x="275" y="105"/>
      <point x="308" y="53"/>
      <point x="329" y="15" type="curve" smooth="yes"/>
      <point x="350" y="-24"/>
      <point x="362" y="-45"/>
    </contour>
  </outline>
</glyph>
<glyph name="u10AC8" format="2">
  <advance width="451"/>
  <unicode hex="10AC8"/>
  <outline>
    <contour>
      <point x="185" y="367" type="curve" smooth="yes"/>
      <point x="229" y="367"/>
      <point x="254" y="403"/>
      <point x="254" y="447" type="curve" smooth="yes"/>
      <point x="254" y="491"/>
      <point x="208" y="527"/>
      <point x="164" y="527" type="curve" smooth="yes"/>
      <point x="120" y="527"/>
      <point x="94" y="491"/>
      <point x="94" y="447" type="curve" smooth="yes"/>
      <point x="94" y="403"/>
      <point x="141" y="367"/>
    </contour>
    <contour>
      <point x="253" y="-233" type="curve" smooth="yes"/>
      <point x="297" y="-233"/>
      <point x="323" y="-197"/>
      <point x="323" y="-154" type="curve" smooth="yes"/>
      <point x="323" y="-109"/>
      <point x="276" y="-73"/>
      <point x="232" y="-73" type="curve" smooth="yes"/>
      <point x="188" y="-73"/>
      <point x="163" y="-109"/>
      <point x="163" y="-154" type="curve" smooth="yes"/>
      <point x="163" y="-197"/>
      <point x="209" y="-233"/>
    </contour>
    <component base="u10AC7"/>
  </outline>
</glyph>
<glyph name="u10ACB" format="2">
  <advance width="538"/>
  <unicode hex="10ACB"/>
  <outline>
    <contour>
      <point x="266" y="-10" type="curve" smooth="yes"/>
      <point x="457" y="-10"/>
      <point x="479" y="89"/>
      <point x="479" y="138" type="curve" smooth="yes"/>
      <point x="479" y="183"/>
      <point x="437" y="281"/>
      <point x="417" y="325" type="curve" smooth="yes"/>
      <point x="377" y="413"/>
      <point x="347" y="494"/>
      <point x="347" y="515" type="curve" smooth="yes"/>
      <point x="347" y="528"/>
      <point x="354" y="539"/>
      <point x="361" y="548" type="curve" smooth="yes"/>
      <point x="368" y="556"/>
      <point x="374" y="563"/>
      <point x="374" y="573" type="curve" smooth="yes"/>
      <point x="374" y="588"/>
      <point x="357" y="625"/>
      <point x="256" y="625" type="curve" smooth="yes"/>
      <point x="227" y="625"/>
      <point x="217" y="615"/>
      <point x="217" y="597" type="curve" smooth="yes"/>
      <point x="217" y="549"/>
      <point x="284" y="399"/>
      <point x="330" y="300" type="curve" smooth="yes"/>
      <point x="351" y="255"/>
      <point x="386" y="171"/>
      <point x="386" y="143" type="curve" smooth="yes"/>
      <point x="386" y="100"/>
      <point x="370" y="76"/>
      <point x="270" y="76" type="curve" smooth="yes"/>
      <point x="182" y="76"/>
      <point x="149" y="113"/>
      <point x="149" y="164" type="curve" smooth="yes"/>
      <point x="149" y="201"/>
      <point x="171" y="229"/>
      <point x="194" y="253" type="curve" smooth="yes"/>
      <point x="209" y="269"/>
      <point x="221" y="282"/>
      <point x="221" y="298" type="curve" smooth="yes"/>
      <point x="221" y="325"/>
      <point x="179" y="342"/>
      <point x="153" y="342" type="curve" smooth="yes"/>
      <point x="115" y="342"/>
      <point x="59" y="245"/>
      <point x="59" y="153" type="curve" smooth="yes"/>
      <point x="59" y="83"/>
      <point x="98" y="-10"/>
    </contour>
  </outline>
</glyph>
<glyph name="u10ACD" format="2">
  <advance width="686"/>
  <unicode hex="10ACD"/>
  <outline>
    <contour>
      <point x="148" y="-10" type="curve" smooth="yes"/>
      <point x="266" y="-10"/>
      <point x="300" y="99"/>
      <point x="309" y="199" type="curve"/>
      <point x="364" y="158"/>
      <point x="416" y="109"/>
      <point x="454" y="70" type="curve" smooth="yes"/>
      <point x="496" y="26"/>
      <point x="532" y="-10"/>
      <point x="576" y="-10" type="curve" smooth="yes"/>
      <point x="617" y="-10"/>
      <point x="632" y="12"/>
      <point x="632" y="68" type="curve" smooth="yes"/>
      <point x="632" y="106"/>
      <point x="624" y="145"/>
      <point x="610" y="184" type="curve" smooth="yes"/>
      <point x="596" y="223"/>
      <point x="583" y="261"/>
      <point x="583" y="292" type="curve" smooth="yes"/>
      <point x="583" y="314"/>
      <point x="584" y="337"/>
      <point x="589" y="359" type="curve" smooth="yes"/>
      <point x="591" y="368"/>
      <point x="592" y="386"/>
      <point x="592" y="393" type="curve" smooth="yes"/>
      <point x="592" y="437"/>
      <point x="567" y="449"/>
      <point x="529" y="449" type="curve" smooth="yes"/>
      <point x="495" y="449"/>
      <point x="474" y="436"/>
      <point x="474" y="394" type="curve" smooth="yes"/>
      <point x="474" y="358"/>
      <point x="490" y="298"/>
      <point x="505" y="253" type="curve" smooth="yes"/>
      <point x="515" y="224"/>
      <point x="535" y="153"/>
      <point x="535" y="115" type="curve"/>
      <point x="496" y="136"/>
      <point x="446" y="176"/>
      <point x="404" y="217" type="curve" smooth="yes"/>
      <point x="363" y="257"/>
      <point x="322" y="302"/>
      <point x="291" y="337" type="curve" smooth="yes"/>
      <point x="232" y="404"/>
      <point x="192" y="449"/>
      <point x="143" y="449" type="curve" smooth="yes"/>
      <point x="118" y="449"/>
      <point x="95" y="440"/>
      <point x="95" y="403" type="curve" smooth="yes"/>
      <point x="95" y="357"/>
      <point x="143" y="321"/>
      <point x="227" y="261" type="curve"/>
      <point x="226" y="184"/>
      <point x="210" y="76"/>
      <point x="151" y="76" type="curve" smooth="yes"/>
      <point x="132" y="76"/>
      <point x="116" y="84"/>
      <point x="105" y="92" type="curve" smooth="yes"/>
      <point x="96" y="99"/>
      <point x="87" y="105"/>
      <point x="76" y="105" type="curve" smooth="yes"/>
      <point x="52" y="105"/>
      <point x="44" y="84"/>
      <point x="44" y="60" type="curve" smooth="yes"/>
      <point x="44" y="5"/>
      <point x="100" y="-10"/>
    </contour>
  </outline>
</glyph>
<glyph name="u10ACE" format="2">
  <advance width="520"/>
  <unicode hex="10ACE"/>
  <outline>
    <contour>
      <point x="332" y="-135" type="curve" smooth="yes"/>
      <point x="414" y="-135"/>
      <point x="461" y="-78"/>
      <point x="461" y="2" type="curve" smooth="yes"/>
      <point x="461" y="75"/>
      <point x="422" y="135"/>
      <point x="337" y="135" type="curve" smooth="yes"/>
      <point x="280" y="135"/>
      <point x="219" y="108"/>
      <point x="166" y="64" type="curve"/>
      <point x="197" y="1" type="line"/>
      <point x="248" y="42"/>
      <point x="291" y="57"/>
      <point x="318" y="57" type="curve" smooth="yes"/>
      <point x="357" y="57"/>
      <point x="372" y="27"/>
      <point x="372" y="-2" type="curve" smooth="yes"/>
      <point x="372" y="-34"/>
      <point x="354" y="-54"/>
      <point x="323" y="-54" type="curve" smooth="yes"/>
      <point x="217" y="-54"/>
      <point x="140" y="159"/>
      <point x="140" y="315" type="curve" smooth="yes"/>
      <point x="140" y="386"/>
      <point x="156" y="450"/>
      <point x="215" y="450" type="curve" smooth="yes"/>
      <point x="246" y="450"/>
      <point x="270" y="433"/>
      <point x="270" y="395" type="curve" smooth="yes"/>
      <point x="270" y="357"/>
      <point x="241" y="321"/>
      <point x="92" y="321" type="curve"/>
      <point x="105" y="252" type="line"/>
      <point x="283" y="252"/>
      <point x="351" y="302"/>
      <point x="351" y="396" type="curve" smooth="yes"/>
      <point x="351" y="475"/>
      <point x="302" y="530"/>
      <point x="222" y="530" type="curve" smooth="yes"/>
      <point x="127" y="530"/>
      <point x="59" y="454"/>
      <point x="59" y="311" type="curve" smooth="yes"/>
      <point x="59" y="124"/>
      <point x="150" y="-135"/>
    </contour>
  </outline>
</glyph>
<glyph name="u10AD0" format="2">
  <advance width="1047"/>
  <unicode hex="10AD0"/>
  <outline>
    <contour>
      <point x="146" y="-171" type="curve" smooth="yes"/>
      <point x="931" y="-171" type="line" smooth="yes"/>
      <point x="974" y="-171"/>
      <point x="1003" y="-160"/>
      <point x="1003" y="-126" type="curve" smooth="yes"/>
      <point x="1003" y="-80"/>
      <point x="923" y="110"/>
      <point x="884" y="163" type="curve" smooth="yes"/>
      <point x="832" y="234"/>
      <point x="796" y="254"/>
      <point x="744" y="254" type="curve" smooth="yes"/>
      <point x="692" y="254"/>
      <point x="646" y="227"/>
      <point x="646" y="154" type="curve" smooth="yes"/>
      <point x="646" y="85"/>
      <point x="696" y="55"/>
      <point x="753" y="55" type="curve" smooth="yes"/>
      <point x="775" y="55"/>
      <point x="802" y="59"/>
      <point x="828" y="68" type="curve"/>
      <point x="851" y="45"/>
      <point x="893" y="-48"/>
      <point x="893" y="-71" type="curve" smooth="yes"/>
      <point x="893" y="-84"/>
      <point x="883" y="-90"/>
      <point x="847" y="-90" type="curve" smooth="yes"/>
      <point x="224" y="-90" type="line" smooth="yes"/>
      <point x="194" y="-90"/>
      <point x="172" y="-78"/>
      <point x="154" y="-65" type="curve" smooth="yes"/>
      <point x="137" y="-53"/>
      <point x="119" y="-42"/>
      <point x="99" y="-42" type="curve" smooth="yes"/>
      <point x="57" y="-42"/>
      <point x="44" y="-70"/>
      <point x="44" y="-99" type="curve" smooth="yes"/>
      <point x="44" y="-143"/>
      <point x="80" y="-171"/>
    </contour>
  </outline>
</glyph>
<glyph name="u10AD4" format="2">
  <advance width="828"/>
  <unicode hex="10AD4"/>
  <outline>
    <contour>
      <point x="139" y="0" type="curve" smooth="yes"/>
      <point x="659" y="0" type="line" smooth="yes"/>
      <point x="733" y="0"/>
      <point x="779" y="2"/>
      <point x="779" y="53" type="curve" smooth="yes"/>
      <point x="779" y="90"/>
      <point x="740" y="185"/>
      <point x="718" y="234" type="curve" smooth="yes"/>
      <point x="690" y="296"/>
      <point x="649" y="392"/>
      <point x="649" y="412" type="curve" smooth="yes"/>
      <point x="649" y="425"/>
      <point x="654" y="436"/>
      <point x="660" y="445" type="curve" smooth="yes"/>
      <point x="666" y="453"/>
      <point x="668" y="463"/>
      <point x="668" y="473" type="curve" smooth="yes"/>
      <point x="668" y="507"/>
      <point x="606" y="522"/>
      <point x="569" y="522" type="curve" smooth="yes"/>
      <point x="540" y="522"/>
      <point x="524" y="514"/>
      <point x="524" y="495" type="curve" smooth="yes"/>
      <point x="524" y="471"/>
      <point x="578" y="349"/>
      <point x="613" y="271" type="curve" smooth="yes"/>
      <point x="651" y="185"/>
      <point x="676" y="125"/>
      <point x="676" y="104" type="curve" smooth="yes"/>
      <point x="676" y="83"/>
      <point x="653" y="81"/>
      <point x="618" y="81" type="curve" smooth="yes"/>
      <point x="212" y="81" type="line" smooth="yes"/>
      <point x="163" y="81"/>
      <point x="130" y="97"/>
      <point x="107" y="109" type="curve" smooth="yes"/>
      <point x="94" y="116"/>
      <point x="83" y="121"/>
      <point x="74" y="121" type="curve" smooth="yes"/>
      <point x="54" y="121"/>
      <point x="44" y="103"/>
      <point x="44" y="79" type="curve" smooth="yes"/>
      <point x="44" y="38"/>
      <point x="72" y="0"/>
    </contour>
  </outline>
</glyph>
<glyph name="u10AD5" format="2">
  <advance width="828"/>
  <unicode hex="10AD5"/>
  <outline>
    <contour>
      <point x="139" y="0" type="curve" smooth="yes"/>
      <point x="659" y="0" type="line" smooth="yes"/>
      <point x="733" y="0"/>
      <point x="779" y="0"/>
      <point x="779" y="48" type="curve" smooth="yes"/>
      <point x="779" y="85"/>
      <point x="740" y="185"/>
      <point x="718" y="234" type="curve" smooth="yes"/>
      <point x="690" y="296"/>
      <point x="649" y="392"/>
      <point x="649" y="412" type="curve" smooth="yes"/>
      <point x="649" y="425"/>
      <point x="654" y="436"/>
      <point x="660" y="445" type="curve" smooth="yes"/>
      <point x="666" y="454"/>
      <point x="668" y="463"/>
      <point x="668" y="473" type="curve" smooth="yes"/>
      <point x="668" y="507"/>
      <point x="606" y="522"/>
      <point x="569" y="522" type="curve" smooth="yes"/>
      <point x="540" y="522"/>
      <point x="524" y="514"/>
      <point x="524" y="495" type="curve" smooth="yes"/>
      <point x="524" y="471"/>
      <point x="578" y="348"/>
      <point x="613" y="271" type="curve" smooth="yes"/>
      <point x="650" y="189"/>
      <point x="676" y="125"/>
      <point x="676" y="104" type="curve" smooth="yes"/>
      <point x="676" y="83"/>
      <point x="653" y="81"/>
      <point x="618" y="81" type="curve" smooth="yes"/>
      <point x="212" y="81" type="line" smooth="yes"/>
      <point x="163" y="81"/>
      <point x="130" y="97"/>
      <point x="107" y="109" type="curve" smooth="yes"/>
      <point x="94" y="116"/>
      <point x="83" y="121"/>
      <point x="74" y="121" type="curve" smooth="yes"/>
      <point x="54" y="121"/>
      <point x="44" y="103"/>
      <point x="44" y="79" type="curve" smooth="yes"/>
      <point x="44" y="38"/>
      <point x="72" y="0"/>
    </contour>
    <contour>
      <point x="487" y="68" type="line"/>
      <point x="582" y="68" type="line"/>
      <point x="513" y="224" type="line" smooth="yes"/>
      <point x="486" y="285"/>
      <point x="444" y="382"/>
      <point x="444" y="402" type="curve" smooth="yes"/>
      <point x="444" y="415"/>
      <point x="449" y="426"/>
      <point x="455" y="436" type="curve" smooth="yes"/>
      <point x="460" y="444"/>
      <point x="463" y="453"/>
      <point x="463" y="463" type="curve" smooth="yes"/>
      <point x="463" y="497"/>
      <point x="401" y="513"/>
      <point x="364" y="513" type="curve" smooth="yes"/>
      <point x="335" y="513"/>
      <point x="319" y="504"/>
      <point x="319" y="485" type="curve" smooth="yes"/>
      <point x="319" y="461"/>
      <point x="372" y="336"/>
      <point x="406" y="257" type="curve" smooth="yes"/>
    </contour>
  </outline>
</glyph>
<glyph name="u10AD6" format="2">
  <advance width="994"/>
  <unicode hex="10AD6"/>
  <outline>
    <contour>
      <point x="275" y="-10" type="curve" smooth="yes"/>
      <point x="402" y="-10"/>
      <point x="468" y="47"/>
      <point x="497" y="102" type="curve"/>
      <point x="548" y="32"/>
      <point x="621" y="-10"/>
      <point x="736" y="-10" type="curve" smooth="yes"/>
      <point x="927" y="-10"/>
      <point x="950" y="85"/>
      <point x="950" y="148" type="curve" smooth="yes"/>
      <point x="950" y="188"/>
      <point x="934" y="247"/>
      <point x="900" y="291" type="curve"/>
      <point x="906" y="296" type="line" smooth="yes"/>
      <point x="915" y="304"/>
      <point x="934" y="322"/>
      <point x="934" y="348" type="curve" smooth="yes"/>
      <point x="934" y="369"/>
      <point x="920" y="391"/>
      <point x="887" y="391" type="curve" smooth="yes"/>
      <point x="861" y="391"/>
      <point x="843" y="376"/>
      <point x="821" y="359" type="curve" smooth="yes"/>
      <point x="786" y="332"/>
      <point x="740" y="298"/>
      <point x="646" y="298" type="curve" smooth="yes"/>
      <point x="556" y="298"/>
      <point x="510" y="335"/>
      <point x="478" y="365" type="curve" smooth="yes"/>
      <point x="457" y="384"/>
      <point x="439" y="400"/>
      <point x="413" y="400" type="curve" smooth="yes"/>
      <point x="379" y="400"/>
      <point x="366" y="378"/>
      <point x="366" y="358" type="curve" smooth="yes"/>
      <point x="366" y="336"/>
      <point x="379" y="315"/>
      <point x="406" y="287" type="curve"/>
      <point x="419" y="265"/>
      <point x="428" y="229"/>
      <point x="428" y="199" type="curve" smooth="yes"/>
      <point x="428" y="127"/>
      <point x="376" y="78"/>
      <point x="276" y="78" type="curve" smooth="yes"/>
      <point x="187" y="78"/>
      <point x="134" y="117"/>
      <point x="134" y="199" type="curve" smooth="yes"/>
      <point x="134" y="255"/>
      <point x="161" y="294"/>
      <point x="174" y="312" type="curve" smooth="yes"/>
      <point x="184" y="326"/>
      <point x="192" y="338"/>
      <point x="192" y="350" type="curve" smooth="yes"/>
      <point x="192" y="380"/>
      <point x="147" y="396"/>
      <point x="125" y="396" type="curve" smooth="yes"/>
      <point x="86" y="396"/>
      <point x="44" y="302"/>
      <point x="44" y="208" type="curve" smooth="yes"/>
      <point x="44" y="98"/>
      <point x="103" y="-10"/>
    </contour>
    <contour>
      <point x="740" y="78" type="curve" smooth="yes"/>
      <point x="648" y="78"/>
      <point x="563" y="114"/>
      <point x="502" y="264" type="curve"/>
      <point x="497" y="240" type="line"/>
      <point x="535" y="227"/>
      <point x="590" y="215"/>
      <point x="659" y="215" type="curve" smooth="yes"/>
      <point x="729" y="215"/>
      <point x="788" y="229"/>
      <point x="846" y="256" type="curve"/>
      <point x="810" y="265" type="line"/>
      <point x="839" y="239"/>
      <point x="860" y="187"/>
      <point x="860" y="157" type="curve" smooth="yes"/>
      <point x="860" y="118"/>
      <point x="850" y="78"/>
    </contour>
  </outline>
</glyph>
<glyph name="u10AD7" format="2">
  <advance width="380"/>
  <unicode hex="10AD7"/>
  <outline>
    <contour>
      <point x="232" y="-166" type="curve" smooth="yes"/>
      <point x="281" y="-166"/>
      <point x="312" y="-129"/>
      <point x="312" y="-71" type="curve" smooth="yes"/>
      <point x="312" y="-12"/>
      <point x="281" y="22"/>
      <point x="244" y="61" type="curve" smooth="yes"/>
      <point x="214" y="92"/>
      <point x="201" y="110"/>
      <point x="201" y="136" type="curve" smooth="yes"/>
      <point x="201" y="176"/>
      <point x="227" y="194"/>
      <point x="253" y="211" type="curve" smooth="yes"/>
      <point x="270" y="222"/>
      <point x="284" y="231"/>
      <point x="284" y="247" type="curve" smooth="yes"/>
      <point x="284" y="274"/>
      <point x="235" y="318"/>
      <point x="169" y="318" type="curve" smooth="yes"/>
      <point x="104" y="318"/>
      <point x="68" y="275"/>
      <point x="68" y="203" type="curve" smooth="yes"/>
      <point x="68" y="135"/>
      <point x="96" y="103"/>
      <point x="140" y="65" type="curve" smooth="yes"/>
      <point x="172" y="37"/>
      <point x="196" y="16"/>
      <point x="196" y="-19" type="curve" smooth="yes"/>
      <point x="196" y="-46"/>
      <point x="180" y="-62"/>
      <point x="168" y="-72" type="curve" smooth="yes"/>
      <point x="153" y="-85"/>
      <point x="148" y="-92"/>
      <point x="148" y="-106" type="curve" smooth="yes"/>
      <point x="148" y="-147"/>
      <point x="198" y="-166"/>
    </contour>
  </outline>
</glyph>
<glyph name="u10AD9" format="2">
  <advance width="964"/>
  <unicode hex="10AD9"/>
  <outline>
    <contour>
      <point x="882" y="-24" type="curve" smooth="yes"/>
      <point x="907" y="-24"/>
      <point x="920" y="-10"/>
      <point x="920" y="16" type="curve" smooth="yes"/>
      <point x="920" y="56"/>
      <point x="868" y="87"/>
      <point x="791" y="126" type="curve" smooth="yes"/>
      <point x="649" y="199" type="line" smooth="yes"/>
      <point x="583" y="233"/>
      <point x="542" y="256"/>
      <point x="542" y="280" type="curve" smooth="yes"/>
      <point x="542" y="290"/>
      <point x="549" y="296"/>
      <point x="557" y="302" type="curve" smooth="yes"/>
      <point x="568" y="310"/>
      <point x="573" y="315"/>
      <point x="573" y="327" type="curve" smooth="yes"/>
      <point x="573" y="356"/>
      <point x="501" y="396"/>
      <point x="457" y="396" type="curve" smooth="yes"/>
      <point x="392" y="396"/>
      <point x="387" y="347"/>
      <point x="387" y="331" type="curve" smooth="yes"/>
      <point x="387" y="256"/>
      <point x="489" y="177"/>
      <point x="713" y="81" type="curve"/>
      <point x="219" y="81" type="line" smooth="yes"/>
      <point x="191" y="81"/>
      <point x="173" y="93"/>
      <point x="156" y="106" type="curve" smooth="yes"/>
      <point x="140" y="119"/>
      <point x="124" y="129"/>
      <point x="98" y="129" type="curve" smooth="yes"/>
      <point x="64" y="129"/>
      <point x="44" y="107"/>
      <point x="44" y="72" type="curve" smooth="yes"/>
      <point x="44" y="29"/>
      <point x="80" y="0"/>
      <point x="146" y="0" type="curve" smooth="yes"/>
      <point x="828" y="0" type="line"/>
      <point x="845" y="-15"/>
      <point x="858" y="-24"/>
    </contour>
  </outline>
</glyph>
<glyph name="u10ADD" format="2">
  <advance width="901"/>
  <unicode hex="10ADD"/>
  <outline>
    <contour>
      <point x="271" y="-225" type="curve" smooth="yes"/>
      <point x="455" y="-225"/>
      <point x="514" y="-95"/>
      <point x="514" y="10" type="curve" smooth="yes"/>
      <point x="514" y="72"/>
      <point x="495" y="159"/>
      <point x="446" y="224" type="curve"/>
      <point x="436" y="210" type="line"/>
      <point x="507" y="194"/>
      <point x="571" y="191"/>
      <point x="645" y="189" type="curve"/>
      <point x="681" y="67"/>
      <point x="737" y="-10"/>
      <point x="798" y="-10" type="curve" smooth="yes"/>
      <point x="817" y="-10"/>
      <point x="857" y="-2"/>
      <point x="857" y="42" type="curve" smooth="yes"/>
      <point x="857" y="78"/>
      <point x="831" y="99"/>
      <point x="801" y="121" type="curve" smooth="yes"/>
      <point x="764" y="149"/>
      <point x="718" y="185"/>
      <point x="718" y="264" type="curve" smooth="yes"/>
      <point x="718" y="298"/>
      <point x="727" y="322"/>
      <point x="735" y="342" type="curve" smooth="yes"/>
      <point x="741" y="357"/>
      <point x="745" y="372"/>
      <point x="745" y="386" type="curve" smooth="yes"/>
      <point x="745" y="423"/>
      <point x="715" y="439"/>
      <point x="686" y="439" type="curve" smooth="yes"/>
      <point x="642" y="439"/>
      <point x="621" y="402"/>
      <point x="621" y="343" type="curve" smooth="yes"/>
      <point x="621" y="325"/>
      <point x="623" y="295"/>
      <point x="626" y="276" type="curve"/>
      <point x="398" y="286"/>
      <point x="337" y="350"/>
      <point x="295" y="395" type="curve" smooth="yes"/>
      <point x="272" y="420"/>
      <point x="253" y="438"/>
      <point x="218" y="438" type="curve" smooth="yes"/>
      <point x="184" y="438"/>
      <point x="155" y="420"/>
      <point x="155" y="380" type="curve" smooth="yes"/>
      <point x="155" y="325"/>
      <point x="212" y="285"/>
      <point x="296" y="252" type="curve"/>
      <point x="371" y="210"/>
      <point x="423" y="85"/>
      <point x="423" y="4" type="curve" smooth="yes"/>
      <point x="423" y="-66"/>
      <point x="386" y="-140"/>
      <point x="275" y="-140" type="curve" smooth="yes"/>
      <point x="185" y="-140"/>
      <point x="134" y="-90"/>
      <point x="134" y="-34" type="curve" smooth="yes"/>
      <point x="134" y="-9"/>
      <point x="145" y="1"/>
      <point x="152" y="7" type="curve" smooth="yes"/>
      <point x="160" y="13"/>
      <point x="166" y="20"/>
      <point x="166" y="33" type="curve" smooth="yes"/>
      <point x="166" y="56"/>
      <point x="145" y="96"/>
      <point x="104" y="96" type="curve" smooth="yes"/>
      <point x="64" y="96"/>
      <point x="44" y="59"/>
      <point x="44" y="-4" type="curve" smooth="yes"/>
      <point x="44" y="-106"/>
      <point x="98" y="-225"/>
    </contour>
  </outline>
</glyph>
<glyph name="u10ADE" format="2">
  <advance width="1169"/>
  <unicode hex="10ADE"/>
  <outline>
    <contour>
      <point x="278" y="-10" type="curve" smooth="yes"/>
      <point x="460" y="-10"/>
      <point x="521" y="108"/>
      <point x="521" y="193" type="curve" smooth="yes"/>
      <point x="521" y="218"/>
      <point x="515" y="256"/>
      <point x="497" y="288" type="curve"/>
      <point x="485" y="273" type="line"/>
      <point x="551" y="244"/>
      <point x="632" y="235"/>
      <point x="701" y="235" type="curve" smooth="yes"/>
      <point x="768" y="235"/>
      <point x="880" y="244"/>
      <point x="961" y="271" type="curve"/>
      <point x="988" y="219"/>
      <point x="1023" y="130"/>
      <point x="1023" y="108" type="curve" smooth="yes"/>
      <point x="1023" y="86"/>
      <point x="1000" y="81"/>
      <point x="965" y="81" type="curve" smooth="yes"/>
      <point x="751" y="81" type="line" smooth="yes"/>
      <point x="722" y="81"/>
      <point x="691" y="86"/>
      <point x="659" y="104" type="curve" smooth="yes"/>
      <point x="638" y="116"/>
      <point x="626" y="121"/>
      <point x="615" y="121" type="curve" smooth="yes"/>
      <point x="593" y="121"/>
      <point x="583" y="103"/>
      <point x="583" y="79" type="curve" smooth="yes"/>
      <point x="583" y="38"/>
      <point x="611" y="0"/>
      <point x="678" y="0" type="curve" smooth="yes"/>
      <point x="987" y="0" type="line" smooth="yes"/>
      <point x="1073" y="0"/>
      <point x="1125" y="7"/>
      <point x="1125" y="61" type="curve" smooth="yes"/>
      <point x="1125" y="94"/>
      <point x="1101" y="156"/>
      <point x="1077" y="210" type="curve" smooth="yes"/>
      <point x="1063" y="242"/>
      <point x="1048" y="278"/>
      <point x="1040" y="308" type="curve"/>
      <point x="1051" y="320"/>
      <point x="1058" y="333"/>
      <point x="1058" y="348" type="curve" smooth="yes"/>
      <point x="1058" y="370"/>
      <point x="1044" y="391"/>
      <point x="1010" y="391" type="curve" smooth="yes"/>
      <point x="991" y="391"/>
      <point x="974" y="381"/>
      <point x="956" y="370" type="curve" smooth="yes"/>
      <point x="925" y="351"/>
      <point x="860" y="316"/>
      <point x="711" y="316" type="curve" smooth="yes"/>
      <point x="585" y="316"/>
      <point x="539" y="338"/>
      <point x="485" y="375" type="curve" smooth="yes"/>
      <point x="460" y="392"/>
      <point x="437" y="405"/>
      <point x="411" y="405" type="curve" smooth="yes"/>
      <point x="384" y="405"/>
      <point x="368" y="389"/>
      <point x="368" y="366" type="curve" smooth="yes"/>
      <point x="368" y="344"/>
      <point x="382" y="323"/>
      <point x="401" y="301" type="curve"/>
      <point x="420" y="263"/>
      <point x="430" y="224"/>
      <point x="430" y="193" type="curve" smooth="yes"/>
      <point x="430" y="126"/>
      <point x="384" y="78"/>
      <point x="281" y="78" type="curve" smooth="yes"/>
      <point x="186" y="78"/>
      <point x="136" y="119"/>
      <point x="136" y="197" type="curve" smooth="yes"/>
      <point x="136" y="251"/>
      <point x="158" y="288"/>
      <point x="176" y="311" type="curve" smooth="yes"/>
      <point x="184" y="321"/>
      <point x="194" y="336"/>
      <point x="194" y="350" type="curve" smooth="yes"/>
      <point x="194" y="380"/>
      <point x="144" y="396"/>
      <point x="127" y="396" type="curve" smooth="yes"/>
      <point x="88" y="396"/>
      <point x="44" y="303"/>
      <point x="44" y="207" type="curve" smooth="yes"/>
      <point x="44" y="92"/>
      <point x="107" y="-10"/>
    </contour>
  </outline>
</glyph>
<glyph name="u10AE2" format="2">
  <advance width="973"/>
  <unicode hex="10AE2"/>
  <outline>
    <contour>
      <point x="276" y="-10" type="curve" smooth="yes"/>
      <point x="395" y="-10"/>
      <point x="461" y="43"/>
      <point x="489" y="88" type="curve"/>
      <point x="521" y="39"/>
      <point x="586" y="-10"/>
      <point x="700" y="-10" type="curve" smooth="yes"/>
      <point x="871" y="-10"/>
      <point x="929" y="103"/>
      <point x="929" y="202" type="curve" smooth="yes"/>
      <point x="929" y="303"/>
      <point x="869" y="439"/>
      <point x="760" y="439" type="curve" smooth="yes"/>
      <point x="716" y="439"/>
      <point x="695" y="412"/>
      <point x="695" y="376" type="curve" smooth="yes"/>
      <point x="695" y="334"/>
      <point x="724" y="324"/>
      <point x="757" y="313" type="curve" smooth="yes"/>
      <point x="793" y="301"/>
      <point x="838" y="279"/>
      <point x="838" y="198" type="curve" smooth="yes"/>
      <point x="838" y="117"/>
      <point x="786" y="78"/>
      <point x="703" y="78" type="curve" smooth="yes"/>
      <point x="577" y="78"/>
      <point x="552" y="169"/>
      <point x="511" y="313" type="curve" smooth="yes"/>
      <point x="504" y="336"/>
      <point x="494" y="365"/>
      <point x="463" y="365" type="curve" smooth="yes"/>
      <point x="432" y="365"/>
      <point x="402" y="334"/>
      <point x="402" y="302" type="curve" smooth="yes"/>
      <point x="402" y="291"/>
      <point x="406" y="280"/>
      <point x="411" y="268" type="curve" smooth="yes"/>
      <point x="417" y="254"/>
      <point x="428" y="227"/>
      <point x="428" y="196" type="curve" smooth="yes"/>
      <point x="428" y="126"/>
      <point x="372" y="78"/>
      <point x="279" y="78" type="curve" smooth="yes"/>
      <point x="184" y="78"/>
      <point x="134" y="130"/>
      <point x="134" y="218" type="curve" smooth="yes"/>
      <point x="134" y="297"/>
      <point x="165" y="326"/>
      <point x="192" y="342" type="curve" smooth="yes"/>
      <point x="211" y="353"/>
      <point x="225" y="362"/>
      <point x="225" y="379" type="curve" smooth="yes"/>
      <point x="225" y="403"/>
      <point x="195" y="439"/>
      <point x="167" y="439" type="curve" smooth="yes"/>
      <point x="114" y="439"/>
      <point x="44" y="332"/>
      <point x="44" y="213" type="curve" smooth="yes"/>
      <point x="44" y="105"/>
      <point x="102" y="-10"/>
    </contour>
  </outline>
</glyph>
<glyph name="u10AE4" format="2">
  <advance width="677"/>
  <unicode hex="10AE4"/>
  <outline>
    <contour>
      <point x="283" y="-10" type="curve" smooth="yes"/>
      <point x="328" y="-10"/>
      <point x="329" y="23"/>
      <point x="329" y="35" type="curve" smooth="yes"/>
      <point x="329" y="67"/>
      <point x="325" y="83"/>
      <point x="312" y="119" type="curve"/>
      <point x="340" y="149"/>
      <point x="366" y="174"/>
      <point x="391" y="174" type="curve" smooth="yes"/>
      <point x="416" y="174"/>
      <point x="427" y="152"/>
      <point x="458" y="87" type="curve" smooth="yes"/>
      <point x="488" y="23"/>
      <point x="517" y="-10"/>
      <point x="577" y="-10" type="curve" smooth="yes"/>
      <point x="611" y="-10"/>
      <point x="633" y="1"/>
      <point x="633" y="23" type="curve" smooth="yes"/>
      <point x="633" y="37"/>
      <point x="625" y="40"/>
      <point x="614" y="45" type="curve" smooth="yes"/>
      <point x="575" y="63"/>
      <point x="551" y="80"/>
      <point x="510" y="173" type="curve" smooth="yes"/>
      <point x="487" y="225"/>
      <point x="460" y="285"/>
      <point x="410" y="285" type="curve" smooth="yes"/>
      <point x="370" y="285"/>
      <point x="336" y="251"/>
      <point x="278" y="189" type="curve"/>
      <point x="259" y="234" type="line" smooth="yes"/>
      <point x="234" y="292"/>
      <point x="188" y="399"/>
      <point x="188" y="418" type="curve" smooth="yes"/>
      <point x="188" y="425"/>
      <point x="195" y="438"/>
      <point x="198" y="442" type="curve" smooth="yes"/>
      <point x="203" y="452"/>
      <point x="208" y="463"/>
      <point x="208" y="473" type="curve" smooth="yes"/>
      <point x="208" y="507"/>
      <point x="146" y="522"/>
      <point x="107" y="522" type="curve" smooth="yes"/>
      <point x="79" y="522"/>
      <point x="63" y="514"/>
      <point x="63" y="500" type="curve" smooth="yes"/>
      <point x="63" y="488"/>
      <point x="72" y="467"/>
      <point x="93" y="418" type="curve" smooth="yes"/>
      <point x="185" y="206" type="line" smooth="yes"/>
      <point x="198" y="176"/>
      <point x="214" y="139"/>
      <point x="214" y="119" type="curve" smooth="yes"/>
      <point x="214" y="101"/>
      <point x="202" y="85"/>
      <point x="194" y="77" type="curve" smooth="yes"/>
      <point x="182" y="64"/>
      <point x="175" y="53"/>
      <point x="175" y="42" type="curve" smooth="yes"/>
      <point x="175" y="4"/>
      <point x="255" y="-10"/>
    </contour>
  </outline>
</glyph>
<glyph name="u10AE5" format="2">
  <unicode hex="10AE5"/>
  <outline>
    <contour>
      <point x="-69" y="625" type="curve" smooth="yes"/>
      <point x="-25" y="625"/>
      <point x="0" y="661"/>
      <point x="0" y="705" type="curve" smooth="yes"/>
      <point x="0" y="749"/>
      <point x="-47" y="785"/>
      <point x="-91" y="785" type="curve" smooth="yes"/>
      <point x="-135" y="785"/>
      <point x="-160" y="749"/>
      <point x="-160" y="705" type="curve" smooth="yes"/>
      <point x="-160" y="661"/>
      <point x="-113" y="625"/>
    </contour>
    <contour>
      <point x="-313" y="625" type="curve" smooth="yes"/>
      <point x="-270" y="625"/>
      <point x="-244" y="661"/>
      <point x="-244" y="705" type="curve" smooth="yes"/>
      <point x="-244" y="749"/>
      <point x="-291" y="785"/>
      <point x="-335" y="785" type="curve" smooth="yes"/>
      <point x="-379" y="785"/>
      <point x="-404" y="749"/>
      <point x="-404" y="705" type="curve" smooth="yes"/>
      <point x="-404" y="661"/>
      <point x="-357" y="625"/>
    </contour>
  </outline>
</glyph>
<glyph name="u10AE6" format="2">
  <unicode hex="10AE6"/>
  <outline>
    <contour>
      <point x="-69" y="-219" type="curve" smooth="yes"/>
      <point x="-25" y="-219"/>
      <point x="0" y="-183"/>
      <point x="0" y="-139" type="curve" smooth="yes"/>
      <point x="0" y="-95"/>
      <point x="-47" y="-59"/>
      <point x="-91" y="-59" type="curve" smooth="yes"/>
      <point x="-135" y="-59"/>
      <point x="-160" y="-95"/>
      <point x="-160" y="-139" type="curve" smooth="yes"/>
      <point x="-160" y="-183"/>
      <point x="-113" y="-219"/>
    </contour>
    <contour>
      <point x="-313" y="-219" type="curve" smooth="yes"/>
      <point x="-270" y="-219"/>
      <point x="-244" y="-183"/>
      <point x="-244" y="-139" type="curve" smooth="yes"/>
      <point x="-244" y="-95"/>
      <point x="-291" y="-59"/>
      <point x="-335" y="-59" type="curve" smooth="yes"/>
      <point x="-379" y="-59"/>
      <point x="-404" y="-95"/>
      <point x="-404" y="-139" type="curve" smooth="yes"/>
      <point x="-404" y="-183"/>
      <point x="-357" y="-219"/>
    </contour>
  </outline>
</glyph>
<glyph name="u10AEB" format="2">
  <advance width="323"/>
  <unicode hex="10AEB"/>
  <outline>
    <contour>
      <point x="155" y="-273" type="curve" smooth="yes"/>
      <point x="201" y="-273"/>
      <point x="225" y="-239"/>
      <point x="225" y="-177" type="curve" smooth="yes"/>
      <point x="225" y="-122"/>
      <point x="212" y="301"/>
      <point x="206" y="346" type="curve" smooth="yes"/>
      <point x="201" y="380"/>
      <point x="186" y="391"/>
      <point x="159" y="391" type="curve" smooth="yes"/>
      <point x="123" y="391"/>
      <point x="108" y="372"/>
      <point x="108" y="343" type="curve" smooth="yes"/>
      <point x="108" y="329"/>
      <point x="112" y="303"/>
      <point x="117" y="271" type="curve" smooth="yes"/>
      <point x="127" y="205"/>
      <point x="138" y="118"/>
      <point x="138" y="25" type="curve" smooth="yes"/>
      <point x="138" y="-26"/>
      <point x="138" y="-70"/>
      <point x="133" y="-106" type="curve"/>
      <point x="109" y="-153"/>
      <point x="100" y="-179"/>
      <point x="100" y="-213" type="curve" smooth="yes"/>
      <point x="100" y="-254"/>
      <point x="124" y="-273"/>
    </contour>
  </outline>
</glyph>
<glyph name="u10AEC" format="2">
  <advance width="842"/>
  <unicode hex="10AEC"/>
  <outline>
    <contour>
      <point x="762" y="-24" type="curve" smooth="yes"/>
      <point x="785" y="-24"/>
      <point x="798" y="-10"/>
      <point x="798" y="16" type="curve" smooth="yes"/>
      <point x="798" y="47"/>
      <point x="771" y="71"/>
      <point x="725" y="95" type="curve" smooth="yes"/>
      <point x="488" y="221" type="line" smooth="yes"/>
      <point x="445" y="244"/>
      <point x="420" y="263"/>
      <point x="420" y="284" type="curve" smooth="yes"/>
      <point x="420" y="293"/>
      <point x="426" y="298"/>
      <point x="434" y="302" type="curve" smooth="yes"/>
      <point x="442" y="306"/>
      <point x="451" y="311"/>
      <point x="451" y="323" type="curve" smooth="yes"/>
      <point x="451" y="347"/>
      <point x="387" y="396"/>
      <point x="330" y="396" type="curve" smooth="yes"/>
      <point x="292" y="396"/>
      <point x="275" y="369"/>
      <point x="275" y="331" type="curve" smooth="yes"/>
      <point x="275" y="256"/>
      <point x="369" y="177"/>
      <point x="576" y="81" type="curve"/>
      <point x="249" y="81" type="line" smooth="yes"/>
      <point x="208" y="81"/>
      <point x="187" y="85"/>
      <point x="157" y="106" type="curve" smooth="yes"/>
      <point x="140" y="118"/>
      <point x="123" y="129"/>
      <point x="98" y="129" type="curve" smooth="yes"/>
      <point x="64" y="129"/>
      <point x="44" y="107"/>
      <point x="44" y="72" type="curve" smooth="yes"/>
      <point x="44" y="29"/>
      <point x="80" y="0"/>
      <point x="146" y="0" type="curve" smooth="yes"/>
      <point x="706" y="0" type="line"/>
      <point x="723" y="-15"/>
      <point x="737" y="-24"/>
    </contour>
  </outline>
</glyph>
<glyph name="u10AED" format="2">
  <advance width="677"/>
  <unicode hex="10AED"/>
  <outline>
    <contour>
      <point x="267" y="-273" type="curve" smooth="yes"/>
      <point x="294" y="-273"/>
      <point x="320" y="-264"/>
      <point x="320" y="-217" type="curve" smooth="yes"/>
      <point x="320" y="-163"/>
      <point x="311" y="-117"/>
      <point x="301" y="-66" type="curve" smooth="yes"/>
      <point x="288" y="-1"/>
      <point x="274" y="72"/>
      <point x="274" y="160" type="curve" smooth="yes"/>
      <point x="274" y="181"/>
      <point x="274" y="201"/>
      <point x="275" y="217" type="curve"/>
      <point x="466" y="217" type="line"/>
      <point x="489" y="174"/>
      <point x="509" y="124"/>
      <point x="509" y="85" type="curve" smooth="yes"/>
      <point x="509" y="74"/>
      <point x="508" y="63"/>
      <point x="505" y="52" type="curve" smooth="yes"/>
      <point x="501" y="39"/>
      <point x="500" y="31"/>
      <point x="500" y="15" type="curve" smooth="yes"/>
      <point x="500" y="-16"/>
      <point x="524" y="-32"/>
      <point x="561" y="-32" type="curve" smooth="yes"/>
      <point x="592" y="-32"/>
      <point x="618" y="-18"/>
      <point x="618" y="18" type="curve" smooth="yes"/>
      <point x="618" y="43"/>
      <point x="605" y="77"/>
      <point x="592" y="105" type="curve" smooth="yes"/>
      <point x="579" y="133"/>
      <point x="568" y="162"/>
      <point x="568" y="186" type="curve" smooth="yes"/>
      <point x="568" y="202"/>
      <point x="571" y="221"/>
      <point x="575" y="237" type="curve" smooth="yes"/>
      <point x="577" y="247"/>
      <point x="578" y="257"/>
      <point x="578" y="263" type="curve" smooth="yes"/>
      <point x="578" y="302"/>
      <point x="545" y="314"/>
      <point x="521" y="314" type="curve" smooth="yes"/>
      <point x="499" y="314"/>
      <point x="482" y="308"/>
      <point x="472" y="298" type="curve"/>
      <point x="249" y="298" type="line" smooth="yes"/>
      <point x="189" y="298"/>
      <point x="163" y="314"/>
      <point x="142" y="327" type="curve" smooth="yes"/>
      <point x="127" y="336"/>
      <point x="118" y="341"/>
      <point x="95" y="341" type="curve" smooth="yes"/>
      <point x="63" y="341"/>
      <point x="44" y="322"/>
      <point x="44" y="286" type="curve" smooth="yes"/>
      <point x="44" y="248"/>
      <point x="82" y="217"/>
      <point x="148" y="217" type="curve" smooth="yes"/>
      <point x="173" y="217" type="line"/>
      <point x="174" y="152"/>
      <point x="181" y="96"/>
      <point x="190" y="36" type="curve" smooth="yes"/>
      <point x="201" y="-34"/>
      <point x="212" y="-106"/>
      <point x="212" y="-200" type="curve" smooth="yes"/>
      <point x="212" y="-253"/>
      <point x="229" y="-273"/>
    </contour>
  </outline>
</glyph>
<glyph name="u10AF0" format="2">
  <advance width="888"/>
  <unicode hex="10AF0"/>
  <outline>
    <contour>
      <point x="375" y="384" type="curve" smooth="yes"/>
      <point x="386" y="384"/>
      <point x="394" y="390"/>
      <point x="403" y="397" type="curve" smooth="yes"/>
      <point x="414" y="406"/>
      <point x="426" y="414"/>
      <point x="443" y="414" type="curve" smooth="yes"/>
      <point x="460" y="414"/>
      <point x="473" y="406"/>
      <point x="484" y="397" type="curve" smooth="yes"/>
      <point x="493" y="390"/>
      <point x="502" y="384"/>
      <point x="512" y="384" type="curve" smooth="yes"/>
      <point x="536" y="384"/>
      <point x="551" y="404"/>
      <point x="551" y="419" type="curve" smooth="yes"/>
      <point x="551" y="446"/>
      <point x="515" y="471"/>
      <point x="473" y="479" type="curve"/>
      <point x="473" y="665" type="line" smooth="yes"/>
      <point x="473" y="681"/>
      <point x="457" y="690"/>
      <point x="442" y="690" type="curve" smooth="yes"/>
      <point x="427" y="690"/>
      <point x="414" y="682"/>
      <point x="414" y="665" type="curve" smooth="yes"/>
      <point x="414" y="479" type="line"/>
      <point x="374" y="473"/>
      <point x="337" y="449"/>
      <point x="337" y="419" type="curve" smooth="yes"/>
      <point x="337" y="407"/>
      <point x="348" y="384"/>
    </contour>
    <contour>
      <point x="295" y="167" type="curve" smooth="yes"/>
      <point x="308" y="167"/>
      <point x="330" y="178"/>
      <point x="330" y="206" type="curve" smooth="yes"/>
      <point x="330" y="219"/>
      <point x="323" y="224"/>
      <point x="317" y="232" type="curve" smooth="yes"/>
      <point x="306" y="247"/>
      <point x="300" y="262"/>
      <point x="300" y="274" type="curve" smooth="yes"/>
      <point x="300" y="292"/>
      <point x="308" y="304"/>
      <point x="317" y="315" type="curve" smooth="yes"/>
      <point x="324" y="324"/>
      <point x="330" y="333"/>
      <point x="330" y="343" type="curve" smooth="yes"/>
      <point x="330" y="366"/>
      <point x="310" y="381"/>
      <point x="295" y="381" type="curve" smooth="yes"/>
      <point x="268" y="381"/>
      <point x="244" y="345"/>
      <point x="235" y="303" type="curve"/>
      <point x="49" y="303" type="line" smooth="yes"/>
      <point x="34" y="303"/>
      <point x="24" y="288"/>
      <point x="24" y="272" type="curve" smooth="yes"/>
      <point x="24" y="258"/>
      <point x="33" y="245"/>
      <point x="49" y="245" type="curve" smooth="yes"/>
      <point x="235" y="245" type="line"/>
      <point x="242" y="204"/>
      <point x="265" y="167"/>
    </contour>
    <contour>
      <point x="442" y="-138" type="curve" smooth="yes"/>
      <point x="457" y="-138"/>
      <point x="473" y="-128"/>
      <point x="473" y="-113" type="curve" smooth="yes"/>
      <point x="473" y="73" type="line"/>
      <point x="515" y="82"/>
      <point x="551" y="106"/>
      <point x="551" y="133" type="curve" smooth="yes"/>
      <point x="551" y="148"/>
      <point x="536" y="168"/>
      <point x="512" y="168" type="curve" smooth="yes"/>
      <point x="502" y="168"/>
      <point x="493" y="162"/>
      <point x="483" y="155" type="curve" smooth="yes"/>
      <point x="473" y="146"/>
      <point x="460" y="138"/>
      <point x="443" y="138" type="curve" smooth="yes"/>
      <point x="426" y="138"/>
      <point x="414" y="147"/>
      <point x="403" y="155" type="curve" smooth="yes"/>
      <point x="394" y="162"/>
      <point x="385" y="168"/>
      <point x="375" y="168" type="curve" smooth="yes"/>
      <point x="348" y="168"/>
      <point x="337" y="146"/>
      <point x="337" y="133" type="curve" smooth="yes"/>
      <point x="337" y="103"/>
      <point x="374" y="80"/>
      <point x="414" y="73" type="curve"/>
      <point x="414" y="-113" type="line" smooth="yes"/>
      <point x="414" y="-129"/>
      <point x="427" y="-138"/>
    </contour>
    <contour>
      <point x="454" y="198" type="curve" smooth="yes"/>
      <point x="497" y="198"/>
      <point x="521" y="232"/>
      <point x="521" y="274" type="curve" smooth="yes"/>
      <point x="521" y="316"/>
      <point x="476" y="352"/>
      <point x="434" y="352" type="curve" smooth="yes"/>
      <point x="392" y="352"/>
      <point x="368" y="316"/>
      <point x="368" y="274" type="curve" smooth="yes"/>
      <point x="368" y="232"/>
      <point x="412" y="198"/>
    </contour>
    <contour>
      <point x="592" y="167" type="curve" smooth="yes"/>
      <point x="623" y="167"/>
      <point x="646" y="204"/>
      <point x="653" y="245" type="curve"/>
      <point x="838" y="245" type="line" smooth="yes"/>
      <point x="855" y="245"/>
      <point x="863" y="258"/>
      <point x="863" y="272" type="curve" smooth="yes"/>
      <point x="863" y="288"/>
      <point x="854" y="303"/>
      <point x="838" y="303" type="curve" smooth="yes"/>
      <point x="652" y="303" type="line"/>
      <point x="644" y="345"/>
      <point x="620" y="381"/>
      <point x="592" y="381" type="curve" smooth="yes"/>
      <point x="578" y="381"/>
      <point x="558" y="366"/>
      <point x="558" y="343" type="curve" smooth="yes"/>
      <point x="558" y="332"/>
      <point x="564" y="323"/>
      <point x="571" y="313" type="curve" smooth="yes"/>
      <point x="579" y="303"/>
      <point x="587" y="291"/>
      <point x="587" y="274" type="curve" smooth="yes"/>
      <point x="587" y="256"/>
      <point x="579" y="244"/>
      <point x="571" y="233" type="curve" smooth="yes"/>
      <point x="564" y="225"/>
      <point x="558" y="216"/>
      <point x="558" y="206" type="curve" smooth="yes"/>
      <point x="558" y="178"/>
      <point x="580" y="167"/>
    </contour>
  </outline>
</glyph>
<glyph name="u10AF1" format="2">
  <advance width="733"/>
  <unicode hex="10AF1"/>
  <outline>
    <contour>
      <point x="298" y="361" type="curve" smooth="yes"/>
      <point x="322" y="361"/>
      <point x="339" y="377"/>
      <point x="339" y="400" type="curve" smooth="yes"/>
      <point x="339" y="408"/>
      <point x="335" y="415"/>
      <point x="330" y="423" type="curve" smooth="yes"/>
      <point x="325" y="431"/>
      <point x="319" y="442"/>
      <point x="319" y="461" type="curve" smooth="yes"/>
      <point x="319" y="484"/>
      <point x="333" y="505"/>
      <point x="364" y="505" type="curve" smooth="yes"/>
      <point x="403" y="505"/>
      <point x="420" y="479"/>
      <point x="420" y="442" type="curve" smooth="yes"/>
      <point x="420" y="424"/>
      <point x="414" y="404"/>
      <point x="399" y="388" type="curve"/>
      <point x="408" y="375"/>
      <point x="422" y="363"/>
      <point x="442" y="363" type="curve" smooth="yes"/>
      <point x="473" y="363"/>
      <point x="489" y="401"/>
      <point x="489" y="444" type="curve" smooth="yes"/>
      <point x="489" y="542"/>
      <point x="428" y="577"/>
      <point x="367" y="577" type="curve" smooth="yes"/>
      <point x="292" y="577"/>
      <point x="241" y="519"/>
      <point x="241" y="447" type="curve" smooth="yes"/>
      <point x="241" y="377"/>
      <point x="272" y="361"/>
    </contour>
    <contour>
      <point x="154" y="113" type="curve" smooth="yes"/>
      <point x="224" y="113"/>
      <point x="240" y="144"/>
      <point x="240" y="170" type="curve" smooth="yes"/>
      <point x="240" y="194"/>
      <point x="224" y="211"/>
      <point x="201" y="211" type="curve" smooth="yes"/>
      <point x="193" y="211"/>
      <point x="186" y="207"/>
      <point x="178" y="202" type="curve" smooth="yes"/>
      <point x="169" y="196"/>
      <point x="159" y="190"/>
      <point x="140" y="190" type="curve" smooth="yes"/>
      <point x="117" y="190"/>
      <point x="96" y="205"/>
      <point x="96" y="236" type="curve" smooth="yes"/>
      <point x="96" y="274"/>
      <point x="122" y="292"/>
      <point x="159" y="292" type="curve" smooth="yes"/>
      <point x="177" y="292"/>
      <point x="197" y="285"/>
      <point x="213" y="271" type="curve"/>
      <point x="226" y="279"/>
      <point x="238" y="293"/>
      <point x="238" y="313" type="curve" smooth="yes"/>
      <point x="238" y="345"/>
      <point x="200" y="361"/>
      <point x="157" y="361" type="curve" smooth="yes"/>
      <point x="59" y="361"/>
      <point x="24" y="300"/>
      <point x="24" y="239" type="curve" smooth="yes"/>
      <point x="24" y="164"/>
      <point x="83" y="113"/>
    </contour>
    <contour>
      <point x="364" y="-93" type="curve" smooth="yes"/>
      <point x="439" y="-93"/>
      <point x="490" y="-35"/>
      <point x="490" y="37" type="curve" smooth="yes"/>
      <point x="490" y="106"/>
      <point x="459" y="123"/>
      <point x="433" y="123" type="curve" smooth="yes"/>
      <point x="409" y="123"/>
      <point x="392" y="107"/>
      <point x="392" y="84" type="curve" smooth="yes"/>
      <point x="392" y="76"/>
      <point x="396" y="69"/>
      <point x="401" y="61" type="curve" smooth="yes"/>
      <point x="407" y="52"/>
      <point x="412" y="39"/>
      <point x="412" y="22" type="curve" smooth="yes"/>
      <point x="412" y="0"/>
      <point x="397" y="-21"/>
      <point x="367" y="-21" type="curve" smooth="yes"/>
      <point x="328" y="-21"/>
      <point x="311" y="4"/>
      <point x="311" y="42" type="curve" smooth="yes"/>
      <point x="311" y="60"/>
      <point x="317" y="80"/>
      <point x="332" y="96" type="curve"/>
      <point x="323" y="109"/>
      <point x="309" y="121"/>
      <point x="289" y="121" type="curve" smooth="yes"/>
      <point x="258" y="121"/>
      <point x="242" y="83"/>
      <point x="242" y="40" type="curve" smooth="yes"/>
      <point x="242" y="-59"/>
      <point x="303" y="-93"/>
    </contour>
    <contour>
      <point x="374" y="159" type="curve" smooth="yes"/>
      <point x="418" y="159"/>
      <point x="443" y="195"/>
      <point x="443" y="239" type="curve" smooth="yes"/>
      <point x="443" y="283"/>
      <point x="396" y="319"/>
      <point x="353" y="319" type="curve" smooth="yes"/>
      <point x="309" y="319"/>
      <point x="283" y="283"/>
      <point x="283" y="239" type="curve" smooth="yes"/>
      <point x="283" y="195"/>
      <point x="330" y="159"/>
    </contour>
    <contour>
      <point x="576" y="114" type="curve" smooth="yes"/>
      <point x="674" y="114"/>
      <point x="708" y="175"/>
      <point x="708" y="236" type="curve" smooth="yes"/>
      <point x="708" y="311"/>
      <point x="650" y="362"/>
      <point x="579" y="362" type="curve" smooth="yes"/>
      <point x="509" y="362"/>
      <point x="493" y="331"/>
      <point x="493" y="305" type="curve" smooth="yes"/>
      <point x="493" y="281"/>
      <point x="509" y="264"/>
      <point x="532" y="264" type="curve" smooth="yes"/>
      <point x="540" y="264"/>
      <point x="547" y="268"/>
      <point x="555" y="273" type="curve" smooth="yes"/>
      <point x="563" y="278"/>
      <point x="574" y="284"/>
      <point x="593" y="284" type="curve" smooth="yes"/>
      <point x="616" y="284"/>
      <point x="637" y="270"/>
      <point x="637" y="239" type="curve" smooth="yes"/>
      <point x="637" y="200"/>
      <point x="611" y="183"/>
      <point x="574" y="183" type="curve" smooth="yes"/>
      <point x="556" y="183"/>
      <point x="536" y="189"/>
      <point x="520" y="204" type="curve"/>
      <point x="507" y="195"/>
      <point x="495" y="181"/>
      <point x="495" y="161" type="curve" smooth="yes"/>
      <point x="495" y="130"/>
      <point x="533" y="114"/>
    </contour>
  </outline>
</glyph>
<glyph name="u10AF2" format="2">
  <advance width="970"/>
  <unicode hex="10AF2"/>
  <outline>
    <contour>
      <point x="322" y="-24" type="curve" smooth="yes"/>
      <point x="406" y="-24"/>
      <point x="460" y="13"/>
      <point x="492" y="65" type="curve"/>
      <point x="536" y="8"/>
      <point x="605" y="-24"/>
      <point x="688" y="-24" type="curve" smooth="yes"/>
      <point x="846" y="-24"/>
      <point x="897" y="108"/>
      <point x="897" y="190" type="curve" smooth="yes"/>
      <point x="897" y="333"/>
      <point x="816" y="458"/>
      <point x="648" y="458" type="curve" smooth="yes"/>
      <point x="567" y="458"/>
      <point x="512" y="421"/>
      <point x="479" y="370" type="curve"/>
      <point x="438" y="422"/>
      <point x="373" y="458"/>
      <point x="282" y="458" type="curve" smooth="yes"/>
      <point x="136" y="458"/>
      <point x="73" y="339"/>
      <point x="73" y="250" type="curve" smooth="yes"/>
      <point x="73" y="75"/>
      <point x="177" y="-24"/>
    </contour>
    <contour>
      <point x="321" y="63" type="curve" smooth="yes"/>
      <point x="226" y="63"/>
      <point x="165" y="137"/>
      <point x="165" y="233" type="curve" smooth="yes"/>
      <point x="165" y="306"/>
      <point x="198" y="370"/>
      <point x="291" y="370" type="curve" smooth="yes"/>
      <point x="373" y="370"/>
      <point x="440" y="299"/>
      <point x="440" y="192" type="curve" smooth="yes"/>
      <point x="440" y="132"/>
      <point x="417" y="63"/>
    </contour>
    <contour>
      <point x="303" y="130" type="curve"/>
      <point x="328" y="165"/>
      <point x="359" y="197"/>
      <point x="394" y="222" type="curve"/>
      <point x="370" y="258"/>
      <point x="339" y="293"/>
      <point x="297" y="315" type="curve"/>
      <point x="265" y="292"/>
      <point x="232" y="260"/>
      <point x="207" y="221" type="curve"/>
      <point x="249" y="193"/>
      <point x="279" y="161"/>
    </contour>
    <contour>
      <point x="687" y="63" type="curve" smooth="yes"/>
      <point x="592" y="63"/>
      <point x="531" y="137"/>
      <point x="531" y="221" type="curve" smooth="yes"/>
      <point x="531" y="306"/>
      <point x="564" y="370"/>
      <point x="657" y="370" type="curve" smooth="yes"/>
      <point x="738" y="370"/>
      <point x="806" y="304"/>
      <point x="806" y="197" type="curve" smooth="yes"/>
      <point x="806" y="135"/>
      <point x="785" y="63"/>
    </contour>
    <contour>
      <point x="669" y="130" type="curve"/>
      <point x="694" y="165"/>
      <point x="725" y="197"/>
      <point x="760" y="222" type="curve"/>
      <point x="736" y="258"/>
      <point x="706" y="293"/>
      <point x="663" y="315" type="curve"/>
      <point x="631" y="292"/>
      <point x="599" y="260"/>
      <point x="573" y="221" type="curve"/>
      <point x="615" y="193"/>
      <point x="646" y="161"/>
    </contour>
  </outline>
</glyph>
<glyph name="u10AF3" format="2">
  <advance width="604"/>
  <unicode hex="10AF3"/>
  <outline>
    <contour>
      <point x="322" y="-24" type="curve" smooth="yes"/>
      <point x="480" y="-24"/>
      <point x="531" y="99"/>
      <point x="531" y="193" type="curve" smooth="yes"/>
      <point x="531" y="333"/>
      <point x="450" y="458"/>
      <point x="282" y="458" type="curve" smooth="yes"/>
      <point x="136" y="458"/>
      <point x="73" y="339"/>
      <point x="73" y="241" type="curve" smooth="yes"/>
      <point x="73" y="75"/>
      <point x="177" y="-24"/>
    </contour>
    <contour>
      <point x="321" y="63" type="curve" smooth="yes"/>
      <point x="226" y="63"/>
      <point x="165" y="137"/>
      <point x="165" y="231" type="curve" smooth="yes"/>
      <point x="165" y="306"/>
      <point x="198" y="370"/>
      <point x="291" y="370" type="curve" smooth="yes"/>
      <point x="372" y="370"/>
      <point x="440" y="304"/>
      <point x="440" y="197" type="curve" smooth="yes"/>
      <point x="440" y="135"/>
      <point x="418" y="63"/>
    </contour>
    <contour>
      <point x="303" y="130" type="curve"/>
      <point x="328" y="165"/>
      <point x="359" y="197"/>
      <point x="394" y="222" type="curve"/>
      <point x="370" y="258"/>
      <point x="339" y="293"/>
      <point x="297" y="315" type="curve"/>
      <point x="265" y="292"/>
      <point x="232" y="260"/>
      <point x="207" y="221" type="curve"/>
      <point x="249" y="193"/>
      <point x="279" y="161"/>
    </contour>
  </outline>
</glyph>
<glyph name="u10AF4" format="2">
  <advance width="336"/>
  <unicode hex="10AF4"/>
  <outline>
    <contour>
      <point x="179" y="157" type="curve" smooth="yes"/>
      <point x="223" y="157"/>
      <point x="248" y="193"/>
      <point x="248" y="236" type="curve" smooth="yes"/>
      <point x="248" y="281"/>
      <point x="201" y="317"/>
      <point x="157" y="317" type="curve" smooth="yes"/>
      <point x="113" y="317"/>
      <point x="88" y="281"/>
      <point x="88" y="236" type="curve" smooth="yes"/>
      <point x="88" y="193"/>
      <point x="135" y="157"/>
    </contour>
  </outline>
</glyph>
<glyph name="u10AF5" format="2">
  <advance width="336"/>
  <unicode hex="10AF5"/>
  <outline>
    <contour>
      <point x="179" y="254" type="curve" smooth="yes"/>
      <point x="223" y="254"/>
      <point x="248" y="291"/>
      <point x="248" y="334" type="curve" smooth="yes"/>
      <point x="248" y="378"/>
      <point x="201" y="415"/>
      <point x="157" y="415" type="curve" smooth="yes"/>
      <point x="113" y="415"/>
      <point x="88" y="378"/>
      <point x="88" y="334" type="curve" smooth="yes"/>
      <point x="88" y="291"/>
      <point x="135" y="254"/>
    </contour>
    <contour>
      <point x="179" y="-14" type="curve" smooth="yes"/>
      <point x="223" y="-14"/>
      <point x="248" y="22"/>
      <point x="248" y="65" type="curve" smooth="yes"/>
      <point x="248" y="110"/>
      <point x="201" y="146"/>
      <point x="157" y="146" type="curve" smooth="yes"/>
      <point x="113" y="146"/>
      <point x="88" y="110"/>
      <point x="88" y="65" type="curve" smooth="yes"/>
      <point x="88" y="22"/>
      <point x="135" y="-14"/>
    </contour>
  </outline>
</glyph>
<glyph name="u10AF6" format="2">
  <advance width="429"/>
  <unicode hex="10AF6"/>
  <outline>
    <contour>
      <point x="257" y="-10" type="curve" smooth="yes"/>
      <point x="332" y="-10"/>
      <point x="385" y="15"/>
      <point x="385" y="60" type="curve" smooth="yes"/>
      <point x="385" y="83"/>
      <point x="370" y="98"/>
      <point x="351" y="110" type="curve"/>
      <point x="329" y="87"/>
      <point x="304" y="78"/>
      <point x="266" y="78" type="curve" smooth="yes"/>
      <point x="187" y="78"/>
      <point x="134" y="119"/>
      <point x="134" y="202" type="curve" smooth="yes"/>
      <point x="134" y="277"/>
      <point x="182" y="317"/>
      <point x="245" y="317" type="curve" smooth="yes"/>
      <point x="270" y="317"/>
      <point x="286" y="311"/>
      <point x="301" y="303" type="curve" smooth="yes"/>
      <point x="311" y="298"/>
      <point x="324" y="292"/>
      <point x="341" y="292" type="curve" smooth="yes"/>
      <point x="364" y="292"/>
      <point x="383" y="310"/>
      <point x="383" y="338" type="curve" smooth="yes"/>
      <point x="383" y="368"/>
      <point x="364" y="413"/>
      <point x="267" y="413" type="curve" smooth="yes"/>
      <point x="129" y="413"/>
      <point x="44" y="328"/>
      <point x="44" y="200" type="curve" smooth="yes"/>
      <point x="44" y="96"/>
      <point x="103" y="-10"/>
    </contour>
  </outline>
</glyph>
<glyph name="bar.left" format="2">
  <advance width="71"/>
  <outline>
    <contour>
      <point x="-39" y="0" type="line"/>
      <point x="71" y="0" type="line"/>
      <point x="71" y="81" type="line"/>
      <point x="-39" y="81" type="line"/>
    </contour>
  </outline>
</glyph>
<glyph name="bar.right" format="2">
  <advance width="159"/>
  <outline>
    <contour>
      <point x="0" y="0" type="line"/>
      <point x="198" y="0" type="line"/>
      <point x="198" y="81" type="line"/>
      <point x="0" y="81" type="line"/>
    </contour>
  </outline>
</glyph>
<glyph name="barlong.right" format="2">
  <advance width="232"/>
  <outline>
    <contour>
      <point x="0" y="0" type="line"/>
      <point x="271" y="0" type="line"/>
      <point x="271" y="81" type="line"/>
      <point x="0" y="81" type="line"/>
    </contour>
  </outline>
</glyph>
<glyph name="dot1" format="2">
  <outline>
    <contour>
      <point x="-47" y="313" type="curve" smooth="yes"/>
      <point x="-17" y="313"/>
      <point x="0" y="337"/>
      <point x="0" y="367" type="curve" smooth="yes"/>
      <point x="0" y="396"/>
      <point x="-32" y="421"/>
      <point x="-62" y="421" type="curve" smooth="yes"/>
      <point x="-91" y="421"/>
      <point x="-108" y="396"/>
      <point x="-108" y="367" type="curve" smooth="yes"/>
      <point x="-108" y="337"/>
      <point x="-77" y="313"/>
    </contour>
  </outline>
</glyph>
<glyph name="dots" format="2">
  <outline>
    <contour>
      <point x="-208" y="313" type="curve" smooth="yes"/>
      <point x="-178" y="313"/>
      <point x="-161" y="337"/>
      <point x="-161" y="367" type="curve" smooth="yes"/>
      <point x="-161" y="396"/>
      <point x="-193" y="421"/>
      <point x="-223" y="421" type="curve" smooth="yes"/>
      <point x="-252" y="421"/>
      <point x="-270" y="396"/>
      <point x="-270" y="367" type="curve" smooth="yes"/>
      <point x="-270" y="337"/>
      <point x="-238" y="313"/>
    </contour>
    <contour>
      <point x="-47" y="313" type="curve" smooth="yes"/>
      <point x="-17" y="313"/>
      <point x="0" y="337"/>
      <point x="0" y="367" type="curve" smooth="yes"/>
      <point x="0" y="396"/>
      <point x="-32" y="421"/>
      <point x="-62" y="421" type="curve" smooth="yes"/>
      <point x="-91" y="421"/>
      <point x="-108" y="396"/>
      <point x="-108" y="367" type="curve" smooth="yes"/>
      <point x="-108" y="337"/>
      <point x="-77" y="313"/>
    </contour>
  </outline>
</glyph>
<glyph name="u10AC0.fina" format="2">
  <advance width="633"/>
  <outline>
    <contour>
      <point x="91" y="-10" type="curve" smooth="yes"/>
      <point x="129" y="-10"/>
      <point x="138" y="10"/>
      <point x="138" y="48" type="curve" smooth="yes"/>
      <point x="138" y="62"/>
      <point x="137" y="83"/>
      <point x="136" y="96" type="curve" smooth="yes"/>
      <point x="135" y="108"/>
      <point x="134" y="125"/>
      <point x="134" y="133" type="curve" smooth="yes"/>
      <point x="134" y="201"/>
      <point x="139" y="247"/>
      <point x="207" y="247" type="curve" smooth="yes"/>
      <point x="275" y="247"/>
      <point x="398" y="198"/>
      <point x="457" y="144" type="curve"/>
      <point x="457" y="128"/>
      <point x="455" y="108"/>
      <point x="452" y="88" type="curve" smooth="yes"/>
      <point x="449" y="67"/>
      <point x="447" y="53"/>
      <point x="447" y="40" type="curve" smooth="yes"/>
      <point x="447" y="4"/>
      <point x="473" y="-10"/>
      <point x="513" y="-10" type="curve" smooth="yes"/>
      <point x="559" y="-10"/>
      <point x="575" y="12"/>
      <point x="575" y="49" type="curve" smooth="yes"/>
      <point x="575" y="104"/>
      <point x="562" y="146"/>
      <point x="547" y="185" type="curve" smooth="yes"/>
      <point x="533" y="222"/>
      <point x="521" y="261"/>
      <point x="521" y="292" type="curve" smooth="yes"/>
      <point x="521" y="314"/>
      <point x="524" y="339"/>
      <point x="528" y="359" type="curve" smooth="yes"/>
      <point x="530" y="371"/>
      <point x="531" y="386"/>
      <point x="531" y="393" type="curve" smooth="yes"/>
      <point x="531" y="437"/>
      <point x="504" y="449"/>
      <point x="467" y="449" type="curve" smooth="yes"/>
      <point x="428" y="449"/>
      <point x="402" y="436"/>
      <point x="402" y="394" type="curve" smooth="yes"/>
      <point x="402" y="347"/>
      <point x="417" y="301"/>
      <point x="431" y="258" type="curve"/>
      <point x="365" y="296"/>
      <point x="269" y="331"/>
      <point x="205" y="331" type="curve" smooth="yes"/>
      <point x="70" y="331"/>
      <point x="47" y="242"/>
      <point x="47" y="133" type="curve" smooth="yes"/>
      <point x="47" y="114"/>
      <point x="47" y="96"/>
      <point x="45" y="80" type="curve" smooth="yes"/>
      <point x="44" y="68"/>
      <point x="44" y="56"/>
      <point x="44" y="45" type="curve" smooth="yes"/>
      <point x="44" y="10"/>
      <point x="51" y="-10"/>
    </contour>
    <contour>
      <point x="475" y="0" type="line"/>
      <point x="673" y="0" type="line"/>
      <point x="673" y="81" type="line"/>
      <point x="475" y="81" type="line"/>
    </contour>
  </outline>
</glyph>
<glyph name="u10AC1.fina" format="2">
  <advance width="999"/>
  <outline>
    <contour>
      <point x="146" y="0" type="curve" smooth="yes"/>
      <point x="895" y="0" type="line" smooth="yes"/>
      <point x="937" y="0"/>
      <point x="955" y="26"/>
      <point x="955" y="59" type="curve" smooth="yes"/>
      <point x="955" y="112"/>
      <point x="891" y="322"/>
      <point x="871" y="385" type="curve" smooth="yes"/>
      <point x="860" y="421"/>
      <point x="851" y="439"/>
      <point x="821" y="439" type="curve" smooth="yes"/>
      <point x="796" y="439"/>
      <point x="786" y="422"/>
      <point x="774" y="399" type="curve" smooth="yes"/>
      <point x="752" y="358"/>
      <point x="719" y="300"/>
      <point x="594" y="300" type="curve" smooth="yes"/>
      <point x="489" y="300"/>
      <point x="461" y="341"/>
      <point x="438" y="376" type="curve" smooth="yes"/>
      <point x="421" y="402"/>
      <point x="401" y="425"/>
      <point x="364" y="425" type="curve" smooth="yes"/>
      <point x="327" y="425"/>
      <point x="312" y="402"/>
      <point x="312" y="377" type="curve" smooth="yes"/>
      <point x="312" y="356"/>
      <point x="319" y="341"/>
      <point x="331" y="325" type="curve" smooth="yes"/>
      <point x="376" y="263"/>
      <point x="464" y="218"/>
      <point x="587" y="218" type="curve" smooth="yes"/>
      <point x="704" y="218"/>
      <point x="761" y="247"/>
      <point x="804" y="290" type="curve"/>
      <point x="823" y="238"/>
      <point x="850" y="144"/>
      <point x="850" y="116" type="curve" smooth="yes"/>
      <point x="850" y="96"/>
      <point x="841" y="81"/>
      <point x="811" y="81" type="curve" smooth="yes"/>
      <point x="244" y="81" type="line" smooth="yes"/>
      <point x="196" y="81"/>
      <point x="174" y="92"/>
      <point x="157" y="105" type="curve" smooth="yes"/>
      <point x="140" y="118"/>
      <point x="124" y="129"/>
      <point x="98" y="129" type="curve" smooth="yes"/>
      <point x="64" y="129"/>
      <point x="44" y="107"/>
      <point x="44" y="72" type="curve" smooth="yes"/>
      <point x="44" y="26"/>
      <point x="80" y="0"/>
    </contour>
    <contour>
      <point x="840" y="0" type="line"/>
      <point x="1038" y="0" type="line"/>
      <point x="1038" y="81" type="line"/>
      <point x="840" y="81" type="line"/>
    </contour>
  </outline>
</glyph>
<glyph name="u10AC1.init" format="2">
  <advance width="706"/>
  <outline>
    <contour>
      <point x="-39" y="0" type="line"/>
      <point x="602" y="0" type="line" smooth="yes"/>
      <point x="644" y="0"/>
      <point x="662" y="26"/>
      <point x="662" y="59" type="curve" smooth="yes"/>
      <point x="662" y="112"/>
      <point x="599" y="322"/>
      <point x="578" y="385" type="curve" smooth="yes"/>
      <point x="566" y="421"/>
      <point x="558" y="439"/>
      <point x="528" y="439" type="curve" smooth="yes"/>
      <point x="503" y="439"/>
      <point x="493" y="422"/>
      <point x="481" y="399" type="curve" smooth="yes"/>
      <point x="459" y="358"/>
      <point x="426" y="300"/>
      <point x="301" y="300" type="curve" smooth="yes"/>
      <point x="197" y="300"/>
      <point x="169" y="341"/>
      <point x="145" y="376" type="curve" smooth="yes"/>
      <point x="127" y="402"/>
      <point x="108" y="425"/>
      <point x="71" y="425" type="curve" smooth="yes"/>
      <point x="34" y="425"/>
      <point x="19" y="402"/>
      <point x="19" y="377" type="curve" smooth="yes"/>
      <point x="19" y="356"/>
      <point x="26" y="341"/>
      <point x="38" y="325" type="curve" smooth="yes"/>
      <point x="83" y="263"/>
      <point x="171" y="218"/>
      <point x="294" y="218" type="curve" smooth="yes"/>
      <point x="411" y="218"/>
      <point x="468" y="247"/>
      <point x="511" y="290" type="curve"/>
      <point x="530" y="236"/>
      <point x="557" y="145"/>
      <point x="557" y="116" type="curve" smooth="yes"/>
      <point x="557" y="96"/>
      <point x="548" y="81"/>
      <point x="518" y="81" type="curve" smooth="yes"/>
      <point x="-39" y="81" type="line"/>
    </contour>
  </outline>
</glyph>
<glyph name="u10AC2.fina" format="2">
  <advance width="999"/>
  <outline>
    <contour>
      <point x="146" y="0" type="curve" smooth="yes"/>
      <point x="895" y="0" type="line" smooth="yes"/>
      <point x="937" y="0"/>
      <point x="955" y="26"/>
      <point x="955" y="59" type="curve" smooth="yes"/>
      <point x="955" y="112"/>
      <point x="891" y="322"/>
      <point x="871" y="385" type="curve" smooth="yes"/>
      <point x="860" y="421"/>
      <point x="851" y="439"/>
      <point x="821" y="439" type="curve" smooth="yes"/>
      <point x="796" y="439"/>
      <point x="786" y="422"/>
      <point x="774" y="399" type="curve" smooth="yes"/>
      <point x="752" y="358"/>
      <point x="719" y="300"/>
      <point x="594" y="300" type="curve" smooth="yes"/>
      <point x="489" y="300"/>
      <point x="461" y="341"/>
      <point x="438" y="376" type="curve" smooth="yes"/>
      <point x="421" y="402"/>
      <point x="401" y="425"/>
      <point x="364" y="425" type="curve" smooth="yes"/>
      <point x="327" y="425"/>
      <point x="312" y="402"/>
      <point x="312" y="377" type="curve" smooth="yes"/>
      <point x="312" y="356"/>
      <point x="319" y="341"/>
      <point x="331" y="325" type="curve" smooth="yes"/>
      <point x="376" y="263"/>
      <point x="464" y="218"/>
      <point x="587" y="218" type="curve" smooth="yes"/>
      <point x="704" y="218"/>
      <point x="761" y="247"/>
      <point x="804" y="290" type="curve"/>
      <point x="823" y="238"/>
      <point x="850" y="144"/>
      <point x="850" y="116" type="curve" smooth="yes"/>
      <point x="850" y="96"/>
      <point x="841" y="81"/>
      <point x="811" y="81" type="curve" smooth="yes"/>
      <point x="244" y="81" type="line" smooth="yes"/>
      <point x="196" y="81"/>
      <point x="174" y="92"/>
      <point x="157" y="105" type="curve" smooth="yes"/>
      <point x="140" y="118"/>
      <point x="124" y="129"/>
      <point x="98" y="129" type="curve" smooth="yes"/>
      <point x="64" y="129"/>
      <point x="44" y="107"/>
      <point x="44" y="72" type="curve" smooth="yes"/>
      <point x="44" y="26"/>
      <point x="80" y="0"/>
    </contour>
    <contour>
      <point x="840" y="0" type="line"/>
      <point x="1038" y="0" type="line"/>
      <point x="1038" y="81" type="line"/>
      <point x="840" y="81" type="line"/>
    </contour>
    <contour>
      <point x="500" y="440" type="curve" smooth="yes"/>
      <point x="530" y="440"/>
      <point x="547" y="464"/>
      <point x="547" y="494" type="curve" smooth="yes"/>
      <point x="547" y="523"/>
      <point x="515" y="548"/>
      <point x="485" y="548" type="curve" smooth="yes"/>
      <point x="456" y="548"/>
      <point x="438" y="523"/>
      <point x="438" y="494" type="curve" smooth="yes"/>
      <point x="438" y="464"/>
      <point x="470" y="440"/>
    </contour>
    <contour>
      <point x="661" y="440" type="curve" smooth="yes"/>
      <point x="691" y="440"/>
      <point x="708" y="464"/>
      <point x="708" y="494" type="curve" smooth="yes"/>
      <point x="708" y="523"/>
      <point x="676" y="548"/>
      <point x="646" y="548" type="curve" smooth="yes"/>
      <point x="617" y="548"/>
      <point x="600" y="523"/>
      <point x="600" y="494" type="curve" smooth="yes"/>
      <point x="600" y="464"/>
      <point x="631" y="440"/>
    </contour>
  </outline>
</glyph>
<glyph name="u10AC3.medi" format="2">
  <advance width="407"/>
  <outline>
    <contour>
      <point x="238" y="-303" type="curve" smooth="yes"/>
      <point x="278" y="-303"/>
      <point x="351" y="-251"/>
      <point x="351" y="-179" type="curve" smooth="yes"/>
      <point x="351" y="-135"/>
      <point x="323" y="-55"/>
      <point x="295" y="16" type="curve" smooth="yes"/>
      <point x="140" y="413" type="line" smooth="yes"/>
      <point x="122" y="460"/>
      <point x="110" y="499"/>
      <point x="110" y="513" type="curve" smooth="yes"/>
      <point x="110" y="523"/>
      <point x="117" y="535"/>
      <point x="124" y="545" type="curve" smooth="yes"/>
      <point x="131" y="556"/>
      <point x="137" y="566"/>
      <point x="137" y="576" type="curve" smooth="yes"/>
      <point x="137" y="597"/>
      <point x="119" y="625"/>
      <point x="30" y="625" type="curve" smooth="yes"/>
      <point x="-5" y="625"/>
      <point x="-16" y="609"/>
      <point x="-16" y="587" type="curve" smooth="yes"/>
      <point x="-16" y="553"/>
      <point x="17" y="469"/>
      <point x="58" y="368" type="curve" smooth="yes"/>
      <point x="196" y="26" type="line" smooth="yes"/>
      <point x="224" y="-44"/>
      <point x="262" y="-150"/>
      <point x="262" y="-189" type="curve" smooth="yes"/>
      <point x="262" y="-212"/>
      <point x="249" y="-232"/>
      <point x="235" y="-247" type="curve" smooth="yes"/>
      <point x="224" y="-259"/>
      <point x="215" y="-270"/>
      <point x="215" y="-282" type="curve" smooth="yes"/>
      <point x="215" y="-297"/>
      <point x="227" y="-303"/>
    </contour>
    <contour>
      <point x="-39" y="0" type="line"/>
      <point x="233" y="0" type="line"/>
      <point x="219" y="81" type="line"/>
      <point x="-39" y="81" type="line"/>
    </contour>
    <contour>
      <point x="249" y="0" type="line"/>
      <point x="447" y="0" type="line"/>
      <point x="447" y="81" type="line"/>
      <point x="249" y="81" type="line"/>
    </contour>
  </outline>
</glyph>
<glyph name="u10AC4.fina" format="2">
  <advance width="492"/>
  <outline>
    <contour>
      <point x="253" y="-337" type="curve" smooth="yes"/>
      <point x="361" y="-337"/>
      <point x="433" y="-268"/>
      <point x="433" y="-173" type="curve" smooth="yes"/>
      <point x="433" y="-128"/>
      <point x="397" y="-37"/>
      <point x="364" y="46" type="curve" smooth="yes"/>
      <point x="217" y="413" type="line" smooth="yes"/>
      <point x="198" y="460"/>
      <point x="188" y="499"/>
      <point x="188" y="513" type="curve" smooth="yes"/>
      <point x="188" y="523"/>
      <point x="194" y="535"/>
      <point x="201" y="545" type="curve" smooth="yes"/>
      <point x="208" y="556"/>
      <point x="214" y="566"/>
      <point x="214" y="576" type="curve" smooth="yes"/>
      <point x="214" y="597"/>
      <point x="196" y="625"/>
      <point x="107" y="625" type="curve" smooth="yes"/>
      <point x="72" y="625"/>
      <point x="62" y="609"/>
      <point x="62" y="587" type="curve" smooth="yes"/>
      <point x="62" y="553"/>
      <point x="94" y="469"/>
      <point x="135" y="368" type="curve" smooth="yes"/>
      <point x="308" y="-63" type="line" smooth="yes"/>
      <point x="332" y="-122"/>
      <point x="343" y="-162"/>
      <point x="343" y="-185" type="curve" smooth="yes"/>
      <point x="343" y="-225"/>
      <point x="314" y="-255"/>
      <point x="262" y="-255" type="curve" smooth="yes"/>
      <point x="229" y="-255"/>
      <point x="206" y="-241"/>
      <point x="206" y="-211" type="curve" smooth="yes"/>
      <point x="206" y="-169"/>
      <point x="252" y="-134"/>
      <point x="373" y="-134" type="curve"/>
      <point x="349" y="-67" type="line"/>
      <point x="191" y="-67"/>
      <point x="115" y="-128"/>
      <point x="115" y="-218" type="curve" smooth="yes"/>
      <point x="115" y="-282"/>
      <point x="161" y="-337"/>
    </contour>
    <contour>
      <point x="142" y="0" type="curve" smooth="yes"/>
      <point x="340" y="0" type="line"/>
      <point x="314" y="81" type="line"/>
      <point x="181" y="81" type="line" smooth="yes"/>
      <point x="161" y="81"/>
      <point x="142" y="84"/>
      <point x="126" y="89" type="curve" smooth="yes"/>
      <point x="114" y="93"/>
      <point x="100" y="96"/>
      <point x="91" y="96" type="curve" smooth="yes"/>
      <point x="71" y="96"/>
      <point x="58" y="84"/>
      <point x="58" y="48" type="curve" smooth="yes"/>
      <point x="58" y="2"/>
      <point x="82" y="0"/>
    </contour>
    <contour>
      <point x="333" y="0" type="line"/>
      <point x="531" y="0" type="line"/>
      <point x="531" y="81" type="line"/>
      <point x="333" y="81" type="line"/>
    </contour>
  </outline>
</glyph>
<glyph name="u10AC4.init" format="2">
  <advance width="407"/>
  <outline>
    <contour>
      <point x="171" y="-337" type="curve" smooth="yes"/>
      <point x="279" y="-337"/>
      <point x="351" y="-268"/>
      <point x="351" y="-173" type="curve" smooth="yes"/>
      <point x="351" y="-128"/>
      <point x="315" y="-37"/>
      <point x="282" y="46" type="curve" smooth="yes"/>
      <point x="135" y="413" type="line" smooth="yes"/>
      <point x="116" y="460"/>
      <point x="105" y="499"/>
      <point x="105" y="513" type="curve" smooth="yes"/>
      <point x="105" y="523"/>
      <point x="112" y="535"/>
      <point x="119" y="545" type="curve" smooth="yes"/>
      <point x="126" y="556"/>
      <point x="132" y="566"/>
      <point x="132" y="576" type="curve" smooth="yes"/>
      <point x="132" y="597"/>
      <point x="114" y="625"/>
      <point x="25" y="625" type="curve" smooth="yes"/>
      <point x="-10" y="625"/>
      <point x="-21" y="609"/>
      <point x="-21" y="587" type="curve" smooth="yes"/>
      <point x="-21" y="553"/>
      <point x="12" y="469"/>
      <point x="53" y="368" type="curve" smooth="yes"/>
      <point x="226" y="-63" type="line" smooth="yes"/>
      <point x="250" y="-122"/>
      <point x="261" y="-162"/>
      <point x="261" y="-185" type="curve" smooth="yes"/>
      <point x="261" y="-225"/>
      <point x="232" y="-255"/>
      <point x="180" y="-255" type="curve" smooth="yes"/>
      <point x="147" y="-255"/>
      <point x="124" y="-241"/>
      <point x="124" y="-211" type="curve" smooth="yes"/>
      <point x="124" y="-169"/>
      <point x="170" y="-134"/>
      <point x="291" y="-134" type="curve"/>
      <point x="267" y="-67" type="line"/>
      <point x="109" y="-67"/>
      <point x="33" y="-128"/>
      <point x="33" y="-218" type="curve" smooth="yes"/>
      <point x="33" y="-282"/>
      <point x="79" y="-337"/>
    </contour>
    <contour>
      <point x="-39" y="0" type="line"/>
      <point x="224" y="0" type="line"/>
      <point x="190" y="81" type="line"/>
      <point x="-39" y="81" type="line"/>
    </contour>
  </outline>
</glyph>
<glyph name="u10AC5.alt" format="2">
  <advance width="722"/>
  <outline>
    <contour>
      <point x="579" y="-260" type="curve" smooth="yes"/>
      <point x="619" y="-260"/>
      <point x="647" y="-238"/>
      <point x="647" y="-188" type="curve" smooth="yes"/>
      <point x="647" y="-151"/>
      <point x="619" y="-94"/>
      <point x="551" y="-43" type="curve" smooth="yes"/>
      <point x="476" y="14"/>
      <point x="471" y="46"/>
      <point x="471" y="76" type="curve" smooth="yes"/>
      <point x="471" y="103"/>
      <point x="497" y="126"/>
      <point x="522" y="142" type="curve" smooth="yes"/>
      <point x="538" y="152"/>
      <point x="553" y="162"/>
      <point x="553" y="178" type="curve" smooth="yes"/>
      <point x="553" y="201"/>
      <point x="512" y="249"/>
      <point x="428" y="249" type="curve" smooth="yes"/>
      <point x="382" y="249"/>
      <point x="328" y="229"/>
      <point x="328" y="157" type="curve" smooth="yes"/>
      <point x="328" y="68"/>
      <point x="389" y="5"/>
      <point x="470" y="-73" type="curve" smooth="yes"/>
      <point x="518" y="-120"/>
      <point x="520" y="-162"/>
      <point x="520" y="-204" type="curve" smooth="yes"/>
      <point x="520" y="-238"/>
      <point x="538" y="-260"/>
    </contour>
    <contour>
      <point x="185" y="30" type="curve" smooth="yes"/>
      <point x="250" y="30"/>
      <point x="274" y="76"/>
      <point x="274" y="132" type="curve" smooth="yes"/>
      <point x="274" y="189"/>
      <point x="213" y="236"/>
      <point x="157" y="236" type="curve" smooth="yes"/>
      <point x="94" y="236"/>
      <point x="67" y="189"/>
      <point x="67" y="132" type="curve" smooth="yes"/>
      <point x="67" y="76"/>
      <point x="128" y="30"/>
    </contour>
  </outline>
</glyph>
<glyph name="u10AC6.alt" format="2">
  <advance width="808"/>
  <outline>
    <contour>
      <point x="333" y="-142" type="curve" smooth="yes"/>
      <point x="364" y="-142"/>
      <point x="384" y="-132"/>
      <point x="384" y="-75" type="curve" smooth="yes"/>
      <point x="384" y="-33"/>
      <point x="374" y="21"/>
      <point x="365" y="65" type="curve" smooth="yes"/>
      <point x="352" y="128"/>
      <point x="338" y="209"/>
      <point x="338" y="293" type="curve" smooth="yes"/>
      <point x="338" y="310"/>
      <point x="339" y="329"/>
      <point x="340" y="344" type="curve"/>
      <point x="582" y="344" type="line"/>
      <point x="589" y="313"/>
      <point x="597" y="281"/>
      <point x="607" y="253" type="curve" smooth="yes"/>
      <point x="621" y="215"/>
      <point x="632" y="182"/>
      <point x="632" y="148" type="curve" smooth="yes"/>
      <point x="632" y="135"/>
      <point x="629" y="109"/>
      <point x="626" y="87" type="curve" smooth="yes"/>
      <point x="623" y="68"/>
      <point x="622" y="48"/>
      <point x="622" y="42" type="curve" smooth="yes"/>
      <point x="622" y="6"/>
      <point x="648" y="-9"/>
      <point x="684" y="-9" type="curve" smooth="yes"/>
      <point x="729" y="-9"/>
      <point x="750" y="14"/>
      <point x="750" y="66" type="curve" smooth="yes"/>
      <point x="750" y="105"/>
      <point x="737" y="146"/>
      <point x="722" y="185" type="curve" smooth="yes"/>
      <point x="700" y="243"/>
      <point x="696" y="280"/>
      <point x="696" y="313" type="curve" smooth="yes"/>
      <point x="696" y="324"/>
      <point x="698" y="337"/>
      <point x="703" y="359" type="curve" smooth="yes"/>
      <point x="705" y="368"/>
      <point x="706" y="378"/>
      <point x="706" y="386" type="curve" smooth="yes"/>
      <point x="706" y="440"/>
      <point x="671" y="449"/>
      <point x="640" y="449" type="curve" smooth="yes"/>
      <point x="613" y="449"/>
      <point x="598" y="443"/>
      <point x="587" y="429" type="curve"/>
      <point x="313" y="429" type="line" smooth="yes"/>
      <point x="255" y="429"/>
      <point x="209" y="429"/>
      <point x="152" y="458" type="curve" smooth="yes"/>
      <point x="139" y="465"/>
      <point x="124" y="473"/>
      <point x="105" y="473" type="curve" smooth="yes"/>
      <point x="74" y="473"/>
      <point x="55" y="453"/>
      <point x="55" y="420" type="curve" smooth="yes"/>
      <point x="55" y="375"/>
      <point x="90" y="344"/>
      <point x="156" y="344" type="curve" smooth="yes"/>
      <point x="235" y="344" type="line"/>
      <point x="238" y="270"/>
      <point x="243" y="223"/>
      <point x="252" y="167" type="curve" smooth="yes"/>
      <point x="271" y="52"/>
      <point x="272" y="20"/>
      <point x="274" y="-68" type="curve" smooth="yes"/>
      <point x="275" y="-122"/>
      <point x="289" y="-142"/>
    </contour>
  </outline>
</glyph>
<glyph name="u10AC9.fina" format="2">
  <advance width="424"/>
  <outline>
    <contour>
      <point x="344" y="-171" type="curve" smooth="yes"/>
      <point x="383" y="-171"/>
      <point x="412" y="-149"/>
      <point x="412" y="-99" type="curve" smooth="yes"/>
      <point x="412" y="-61"/>
      <point x="385" y="-2"/>
      <point x="316" y="48" type="curve" smooth="yes"/>
      <point x="234" y="108"/>
      <point x="201" y="170"/>
      <point x="201" y="212" type="curve" smooth="yes"/>
      <point x="201" y="239"/>
      <point x="229" y="262"/>
      <point x="253" y="277" type="curve" smooth="yes"/>
      <point x="270" y="288"/>
      <point x="284" y="298"/>
      <point x="284" y="313" type="curve" smooth="yes"/>
      <point x="284" y="337"/>
      <point x="243" y="384"/>
      <point x="158" y="384" type="curve" smooth="yes"/>
      <point x="112" y="384"/>
      <point x="59" y="365"/>
      <point x="59" y="293" type="curve" smooth="yes"/>
      <point x="59" y="191"/>
      <point x="171" y="80"/>
      <point x="234" y="19" type="curve" smooth="yes"/>
      <point x="283" y="-29"/>
      <point x="284" y="-72"/>
      <point x="284" y="-115" type="curve" smooth="yes"/>
      <point x="284" y="-149"/>
      <point x="303" y="-171"/>
    </contour>
    <contour>
      <point x="266" y="0" type="line"/>
      <point x="464" y="0" type="line"/>
      <point x="464" y="81" type="line"/>
      <point x="266" y="81" type="line"/>
    </contour>
  </outline>
</glyph>
<glyph name="u10ACA.fina" format="2">
  <advance width="424"/>
  <outline>
    <contour>
      <point x="344" y="-171" type="curve" smooth="yes"/>
      <point x="383" y="-171"/>
      <point x="412" y="-149"/>
      <point x="412" y="-99" type="curve" smooth="yes"/>
      <point x="412" y="-61"/>
      <point x="385" y="-2"/>
      <point x="316" y="48" type="curve" smooth="yes"/>
      <point x="234" y="108"/>
      <point x="201" y="170"/>
      <point x="201" y="212" type="curve" smooth="yes"/>
      <point x="201" y="239"/>
      <point x="229" y="262"/>
      <point x="253" y="277" type="curve" smooth="yes"/>
      <point x="270" y="288"/>
      <point x="284" y="298"/>
      <point x="284" y="313" type="curve" smooth="yes"/>
      <point x="284" y="337"/>
      <point x="243" y="384"/>
      <point x="158" y="384" type="curve" smooth="yes"/>
      <point x="112" y="384"/>
      <point x="59" y="365"/>
      <point x="59" y="293" type="curve" smooth="yes"/>
      <point x="59" y="191"/>
      <point x="171" y="80"/>
      <point x="234" y="19" type="curve" smooth="yes"/>
      <point x="283" y="-29"/>
      <point x="284" y="-72"/>
      <point x="284" y="-115" type="curve" smooth="yes"/>
      <point x="284" y="-149"/>
      <point x="303" y="-171"/>
    </contour>
    <contour>
      <point x="75" y="440" type="curve" smooth="yes"/>
      <point x="105" y="440"/>
      <point x="122" y="464"/>
      <point x="122" y="494" type="curve" smooth="yes"/>
      <point x="122" y="523"/>
      <point x="90" y="548"/>
      <point x="60" y="548" type="curve" smooth="yes"/>
      <point x="31" y="548"/>
      <point x="13" y="523"/>
      <point x="13" y="494" type="curve" smooth="yes"/>
      <point x="13" y="464"/>
      <point x="45" y="440"/>
    </contour>
    <contour>
      <point x="236" y="440" type="curve" smooth="yes"/>
      <point x="266" y="440"/>
      <point x="283" y="464"/>
      <point x="283" y="494" type="curve" smooth="yes"/>
      <point x="283" y="523"/>
      <point x="251" y="548"/>
      <point x="221" y="548" type="curve" smooth="yes"/>
      <point x="192" y="548"/>
      <point x="175" y="523"/>
      <point x="175" y="494" type="curve" smooth="yes"/>
      <point x="175" y="464"/>
      <point x="206" y="440"/>
    </contour>
    <contour>
      <point x="266" y="0" type="line"/>
      <point x="464" y="0" type="line"/>
      <point x="464" y="81" type="line"/>
      <point x="266" y="81" type="line"/>
    </contour>
  </outline>
</glyph>
<glyph name="u10ACD.init" format="2">
  <advance width="624"/>
  <outline>
    <contour>
      <point x="514" y="-10" type="curve" smooth="yes"/>
      <point x="555" y="-10"/>
      <point x="570" y="12"/>
      <point x="570" y="68" type="curve" smooth="yes"/>
      <point x="570" y="106"/>
      <point x="562" y="145"/>
      <point x="548" y="184" type="curve" smooth="yes"/>
      <point x="534" y="223"/>
      <point x="521" y="261"/>
      <point x="521" y="292" type="curve" smooth="yes"/>
      <point x="521" y="314"/>
      <point x="522" y="337"/>
      <point x="527" y="359" type="curve" smooth="yes"/>
      <point x="529" y="368"/>
      <point x="530" y="386"/>
      <point x="530" y="393" type="curve" smooth="yes"/>
      <point x="530" y="437"/>
      <point x="505" y="449"/>
      <point x="467" y="449" type="curve" smooth="yes"/>
      <point x="433" y="449"/>
      <point x="412" y="436"/>
      <point x="412" y="394" type="curve" smooth="yes"/>
      <point x="412" y="358"/>
      <point x="429" y="298"/>
      <point x="443" y="253" type="curve" smooth="yes"/>
      <point x="452" y="224"/>
      <point x="473" y="153"/>
      <point x="473" y="115" type="curve"/>
      <point x="434" y="136"/>
      <point x="384" y="176"/>
      <point x="342" y="217" type="curve" smooth="yes"/>
      <point x="301" y="257"/>
      <point x="260" y="302"/>
      <point x="229" y="337" type="curve" smooth="yes"/>
      <point x="170" y="404"/>
      <point x="130" y="449"/>
      <point x="81" y="449" type="curve" smooth="yes"/>
      <point x="56" y="449"/>
      <point x="33" y="440"/>
      <point x="33" y="403" type="curve" smooth="yes"/>
      <point x="33" y="357"/>
      <point x="81" y="321"/>
      <point x="165" y="261" type="curve"/>
      <point x="163" y="153"/>
      <point x="148" y="81"/>
      <point x="64" y="81" type="curve" smooth="yes"/>
      <point x="-39" y="81" type="line"/>
      <point x="-39" y="0" type="line"/>
      <point x="70" y="0" type="line" smooth="yes"/>
      <point x="204" y="0"/>
      <point x="238" y="99"/>
      <point x="247" y="199" type="curve"/>
      <point x="302" y="158"/>
      <point x="354" y="109"/>
      <point x="392" y="70" type="curve" smooth="yes"/>
      <point x="434" y="26"/>
      <point x="470" y="-10"/>
    </contour>
  </outline>
</glyph>
<glyph name="u10ACF.fina" format="2">
  <advance width="507"/>
  <outline>
    <contour>
      <point x="247" y="-10" type="curve" smooth="yes"/>
      <point x="374" y="-10"/>
      <point x="448" y="29"/>
      <point x="448" y="118" type="curve" smooth="yes"/>
      <point x="448" y="231"/>
      <point x="342" y="351"/>
      <point x="239" y="351" type="curve" smooth="yes"/>
      <point x="176" y="351"/>
      <point x="142" y="322"/>
      <point x="114" y="280" type="curve" smooth="yes"/>
      <point x="93" y="248"/>
      <point x="71" y="201"/>
      <point x="71" y="160" type="curve" smooth="yes"/>
      <point x="71" y="137"/>
      <point x="80" y="117"/>
      <point x="109" y="117" type="curve" smooth="yes"/>
      <point x="138" y="117"/>
      <point x="147" y="139"/>
      <point x="157" y="169" type="curve" smooth="yes"/>
      <point x="176" y="229"/>
      <point x="188" y="265"/>
      <point x="235" y="265" type="curve" smooth="yes"/>
      <point x="294" y="265"/>
      <point x="357" y="192"/>
      <point x="357" y="132" type="curve" smooth="yes"/>
      <point x="357" y="93"/>
      <point x="314" y="71"/>
      <point x="262" y="71" type="curve" smooth="yes"/>
      <point x="228" y="71"/>
      <point x="201" y="72"/>
      <point x="176" y="75" type="curve" smooth="yes"/>
      <point x="149" y="78"/>
      <point x="134" y="79"/>
      <point x="113" y="79" type="curve" smooth="yes"/>
      <point x="77" y="79"/>
      <point x="59" y="66"/>
      <point x="59" y="42" type="curve" smooth="yes"/>
      <point x="59" y="-5"/>
      <point x="126" y="-10"/>
    </contour>
    <contour>
      <point x="344" y="0" type="line"/>
      <point x="542" y="0" type="line"/>
      <point x="542" y="81" type="line"/>
      <point x="344" y="81" type="line"/>
    </contour>
  </outline>
</glyph>
<glyph name="u10AD2.fina" format="2">
  <advance width="1047"/>
  <outline>
    <contour>
      <point x="146" y="-171" type="curve" smooth="yes"/>
      <point x="931" y="-171" type="line" smooth="yes"/>
      <point x="974" y="-171"/>
      <point x="1003" y="-160"/>
      <point x="1003" y="-126" type="curve" smooth="yes"/>
      <point x="1003" y="-80"/>
      <point x="923" y="110"/>
      <point x="884" y="163" type="curve" smooth="yes"/>
      <point x="832" y="234"/>
      <point x="796" y="254"/>
      <point x="744" y="254" type="curve" smooth="yes"/>
      <point x="692" y="254"/>
      <point x="646" y="227"/>
      <point x="646" y="154" type="curve" smooth="yes"/>
      <point x="646" y="85"/>
      <point x="696" y="55"/>
      <point x="753" y="55" type="curve" smooth="yes"/>
      <point x="775" y="55"/>
      <point x="802" y="59"/>
      <point x="828" y="68" type="curve"/>
      <point x="851" y="45"/>
      <point x="893" y="-48"/>
      <point x="893" y="-71" type="curve" smooth="yes"/>
      <point x="893" y="-84"/>
      <point x="883" y="-90"/>
      <point x="847" y="-90" type="curve" smooth="yes"/>
      <point x="224" y="-90" type="line" smooth="yes"/>
      <point x="194" y="-90"/>
      <point x="172" y="-78"/>
      <point x="154" y="-65" type="curve" smooth="yes"/>
      <point x="137" y="-53"/>
      <point x="119" y="-42"/>
      <point x="99" y="-42" type="curve" smooth="yes"/>
      <point x="57" y="-42"/>
      <point x="44" y="-70"/>
      <point x="44" y="-99" type="curve" smooth="yes"/>
      <point x="44" y="-143"/>
      <point x="80" y="-171"/>
    </contour>
    <contour>
      <point x="889" y="0" type="line"/>
      <point x="1087" y="0" type="line"/>
      <point x="1087" y="81" type="line"/>
      <point x="889" y="81" type="line"/>
    </contour>
    <contour>
      <point x="588" y="313" type="curve" smooth="yes"/>
      <point x="618" y="313"/>
      <point x="635" y="337"/>
      <point x="635" y="367" type="curve" smooth="yes"/>
      <point x="635" y="396"/>
      <point x="603" y="421"/>
      <point x="573" y="421" type="curve" smooth="yes"/>
      <point x="544" y="421"/>
      <point x="526" y="396"/>
      <point x="526" y="367" type="curve" smooth="yes"/>
      <point x="526" y="337"/>
      <point x="558" y="313"/>
    </contour>
    <contour>
      <point x="749" y="313" type="curve" smooth="yes"/>
      <point x="779" y="313"/>
      <point x="796" y="337"/>
      <point x="796" y="367" type="curve" smooth="yes"/>
      <point x="796" y="396"/>
      <point x="764" y="421"/>
      <point x="734" y="421" type="curve" smooth="yes"/>
      <point x="705" y="421"/>
      <point x="688" y="396"/>
      <point x="688" y="367" type="curve" smooth="yes"/>
      <point x="688" y="337"/>
      <point x="719" y="313"/>
    </contour>
  </outline>
</glyph>
<glyph name="u10AD3.fina" format="2">
  <advance width="792"/>
  <outline>
    <contour>
      <point x="146" y="0" type="curve" smooth="yes"/>
      <point x="710" y="0" type="line" smooth="yes"/>
      <point x="732" y="0"/>
      <point x="748" y="5"/>
      <point x="748" y="24" type="curve" smooth="yes"/>
      <point x="748" y="34"/>
      <point x="728" y="58"/>
      <point x="709" y="81" type="curve" smooth="yes"/>
      <point x="681" y="115"/>
      <point x="654" y="170"/>
      <point x="627" y="243" type="curve" smooth="yes"/>
      <point x="578" y="377"/>
      <point x="509" y="535"/>
      <point x="360" y="535" type="curve" smooth="yes"/>
      <point x="223" y="535"/>
      <point x="184" y="443"/>
      <point x="184" y="356" type="curve" smooth="yes"/>
      <point x="184" y="235"/>
      <point x="267" y="139"/>
      <point x="387" y="81" type="curve"/>
      <point x="229" y="81" type="line" smooth="yes"/>
      <point x="193" y="81"/>
      <point x="172" y="94"/>
      <point x="153" y="107" type="curve" smooth="yes"/>
      <point x="136" y="119"/>
      <point x="119" y="129"/>
      <point x="96" y="129" type="curve" smooth="yes"/>
      <point x="57" y="129"/>
      <point x="44" y="102"/>
      <point x="44" y="72" type="curve" smooth="yes"/>
      <point x="44" y="28"/>
      <point x="80" y="0"/>
    </contour>
    <contour>
      <point x="593" y="81" type="curve"/>
      <point x="436" y="105"/>
      <point x="274" y="244"/>
      <point x="274" y="361" type="curve" smooth="yes"/>
      <point x="274" y="413"/>
      <point x="302" y="442"/>
      <point x="356" y="442" type="curve" smooth="yes"/>
      <point x="449" y="442"/>
      <point x="495" y="333"/>
      <point x="537" y="216" type="curve" smooth="yes"/>
      <point x="555" y="166"/>
      <point x="573" y="120"/>
    </contour>
    <contour>
      <point x="633" y="0" type="line"/>
      <point x="831" y="0" type="line"/>
      <point x="831" y="81" type="line"/>
      <point x="633" y="81" type="line"/>
    </contour>
  </outline>
</glyph>
<glyph name="u10AD3.init" format="2">
  <advance width="660"/>
  <outline>
    <contour>
      <point x="-39" y="0" type="line"/>
      <point x="581" y="0" type="line" smooth="yes"/>
      <point x="604" y="0"/>
      <point x="619" y="5"/>
      <point x="619" y="24" type="curve" smooth="yes"/>
      <point x="619" y="40"/>
      <point x="606" y="56"/>
      <point x="581" y="85" type="curve" smooth="yes"/>
      <point x="549" y="122"/>
      <point x="526" y="175"/>
      <point x="499" y="243" type="curve" smooth="yes"/>
      <point x="446" y="375"/>
      <point x="380" y="535"/>
      <point x="231" y="535" type="curve" smooth="yes"/>
      <point x="94" y="535"/>
      <point x="55" y="443"/>
      <point x="55" y="356" type="curve" smooth="yes"/>
      <point x="55" y="233"/>
      <point x="138" y="140"/>
      <point x="258" y="81" type="curve"/>
      <point x="-39" y="81" type="line"/>
    </contour>
    <contour>
      <point x="464" y="85" type="curve"/>
      <point x="307" y="110"/>
      <point x="146" y="244"/>
      <point x="146" y="361" type="curve" smooth="yes"/>
      <point x="146" y="413"/>
      <point x="173" y="442"/>
      <point x="227" y="442" type="curve" smooth="yes"/>
      <point x="320" y="442"/>
      <point x="364" y="331"/>
      <point x="408" y="216" type="curve" smooth="yes"/>
      <point x="426" y="170"/>
      <point x="444" y="125"/>
    </contour>
  </outline>
</glyph>
<glyph name="u10AD4.init" format="2">
  <advance width="311"/>
  <outline>
    <contour>
      <point x="-39" y="0" type="line"/>
      <point x="143" y="0" type="line" smooth="yes"/>
      <point x="217" y="0"/>
      <point x="268" y="2"/>
      <point x="268" y="53" type="curve" smooth="yes"/>
      <point x="268" y="90"/>
      <point x="229" y="185"/>
      <point x="207" y="234" type="curve" smooth="yes"/>
      <point x="179" y="297"/>
      <point x="138" y="392"/>
      <point x="138" y="412" type="curve" smooth="yes"/>
      <point x="138" y="425"/>
      <point x="143" y="436"/>
      <point x="148" y="445" type="curve" smooth="yes"/>
      <point x="153" y="454"/>
      <point x="157" y="463"/>
      <point x="157" y="473" type="curve" smooth="yes"/>
      <point x="157" y="507"/>
      <point x="90" y="522"/>
      <point x="53" y="522" type="curve" smooth="yes"/>
      <point x="24" y="522"/>
      <point x="8" y="514"/>
      <point x="8" y="495" type="curve" smooth="yes"/>
      <point x="8" y="471"/>
      <point x="62" y="348"/>
      <point x="97" y="271" type="curve" smooth="yes"/>
      <point x="134" y="189"/>
      <point x="160" y="130"/>
      <point x="160" y="109" type="curve" smooth="yes"/>
      <point x="160" y="83"/>
      <point x="137" y="81"/>
      <point x="102" y="81" type="curve" smooth="yes"/>
      <point x="-39" y="81" type="line"/>
    </contour>
  </outline>
</glyph>
<glyph name="u10AD5.init" format="2">
  <advance width="535"/>
  <outline>
    <contour>
      <point x="-39" y="0" type="line"/>
      <point x="368" y="0" type="line" smooth="yes"/>
      <point x="441" y="0"/>
      <point x="493" y="2"/>
      <point x="493" y="53" type="curve" smooth="yes"/>
      <point x="493" y="90"/>
      <point x="454" y="185"/>
      <point x="432" y="234" type="curve" smooth="yes"/>
      <point x="404" y="296"/>
      <point x="363" y="392"/>
      <point x="363" y="412" type="curve" smooth="yes"/>
      <point x="363" y="425"/>
      <point x="368" y="436"/>
      <point x="373" y="445" type="curve" smooth="yes"/>
      <point x="378" y="454"/>
      <point x="382" y="463"/>
      <point x="382" y="473" type="curve" smooth="yes"/>
      <point x="382" y="507"/>
      <point x="315" y="522"/>
      <point x="277" y="522" type="curve" smooth="yes"/>
      <point x="249" y="522"/>
      <point x="233" y="514"/>
      <point x="233" y="495" type="curve" smooth="yes"/>
      <point x="233" y="471"/>
      <point x="285" y="348"/>
      <point x="321" y="271" type="curve" smooth="yes"/>
      <point x="359" y="189"/>
      <point x="385" y="130"/>
      <point x="385" y="109" type="curve" smooth="yes"/>
      <point x="385" y="83"/>
      <point x="361" y="81"/>
      <point x="327" y="81" type="curve" smooth="yes"/>
      <point x="-39" y="81" type="line"/>
    </contour>
    <contour>
      <point x="191" y="68" type="line"/>
      <point x="290" y="68" type="line"/>
      <point x="221" y="224" type="line" smooth="yes"/>
      <point x="193" y="287"/>
      <point x="153" y="382"/>
      <point x="153" y="402" type="curve" smooth="yes"/>
      <point x="153" y="412"/>
      <point x="157" y="426"/>
      <point x="163" y="436" type="curve" smooth="yes"/>
      <point x="168" y="444"/>
      <point x="172" y="453"/>
      <point x="172" y="463" type="curve" smooth="yes"/>
      <point x="172" y="497"/>
      <point x="105" y="513"/>
      <point x="67" y="513" type="curve" smooth="yes"/>
      <point x="39" y="513"/>
      <point x="23" y="504"/>
      <point x="23" y="485" type="curve" smooth="yes"/>
      <point x="23" y="461"/>
      <point x="76" y="335"/>
      <point x="110" y="256" type="curve" smooth="yes"/>
    </contour>
  </outline>
</glyph>
<glyph name="u10AD6.alt.fina" format="2">
  <advance width="682"/>
  <outline>
    <contour>
      <point x="188" y="-273" type="curve" smooth="yes"/>
      <point x="210" y="-273"/>
      <point x="241" y="-259"/>
      <point x="241" y="-202" type="curve" smooth="yes"/>
      <point x="241" y="-149"/>
      <point x="227" y="-4"/>
      <point x="213" y="106" type="curve"/>
      <point x="193" y="113" type="line"/>
      <point x="245" y="43"/>
      <point x="313" y="-10"/>
      <point x="429" y="-10" type="curve" smooth="yes"/>
      <point x="620" y="-10"/>
      <point x="643" y="85"/>
      <point x="643" y="148" type="curve" smooth="yes"/>
      <point x="643" y="188"/>
      <point x="626" y="247"/>
      <point x="592" y="291" type="curve"/>
      <point x="598" y="296" type="line" smooth="yes"/>
      <point x="608" y="305"/>
      <point x="626" y="323"/>
      <point x="626" y="348" type="curve" smooth="yes"/>
      <point x="626" y="369"/>
      <point x="612" y="391"/>
      <point x="580" y="391" type="curve" smooth="yes"/>
      <point x="555" y="391"/>
      <point x="535" y="377"/>
      <point x="513" y="359" type="curve" smooth="yes"/>
      <point x="482" y="334"/>
      <point x="432" y="298"/>
      <point x="338" y="298" type="curve" smooth="yes"/>
      <point x="249" y="298"/>
      <point x="203" y="334"/>
      <point x="170" y="365" type="curve" smooth="yes"/>
      <point x="150" y="384"/>
      <point x="132" y="400"/>
      <point x="105" y="400" type="curve" smooth="yes"/>
      <point x="71" y="400"/>
      <point x="58" y="378"/>
      <point x="58" y="358" type="curve" smooth="yes"/>
      <point x="58" y="336"/>
      <point x="71" y="315"/>
      <point x="98" y="287" type="curve"/>
      <point x="111" y="265"/>
      <point x="134" y="140"/>
      <point x="134" y="34" type="curve" smooth="yes"/>
      <point x="134" y="15"/>
      <point x="133" y="-23"/>
      <point x="130" y="-63" type="curve" smooth="yes"/>
      <point x="127" y="-108"/>
      <point x="125" y="-157"/>
      <point x="125" y="-184" type="curve" smooth="yes"/>
      <point x="125" y="-250"/>
      <point x="141" y="-273"/>
    </contour>
    <contour>
      <point x="432" y="78" type="curve" smooth="yes"/>
      <point x="341" y="78"/>
      <point x="246" y="114"/>
      <point x="185" y="264" type="curve"/>
      <point x="189" y="240" type="line"/>
      <point x="227" y="227"/>
      <point x="283" y="215"/>
      <point x="351" y="215" type="curve" smooth="yes"/>
      <point x="421" y="215"/>
      <point x="480" y="229"/>
      <point x="538" y="256" type="curve"/>
      <point x="502" y="265" type="line"/>
      <point x="531" y="239"/>
      <point x="552" y="187"/>
      <point x="552" y="157" type="curve" smooth="yes"/>
      <point x="552" y="118"/>
      <point x="542" y="78"/>
    </contour>
    <contour>
      <point x="523" y="0" type="line"/>
      <point x="721" y="0" type="line"/>
      <point x="721" y="81" type="line"/>
      <point x="523" y="81" type="line"/>
    </contour>
  </outline>
</glyph>
<glyph name="u10AD6.init" format="2">
  <advance width="665"/>
  <outline>
    <contour>
      <point x="420" y="-10" type="curve" smooth="yes"/>
      <point x="598" y="-10"/>
      <point x="621" y="85"/>
      <point x="621" y="148" type="curve" smooth="yes"/>
      <point x="621" y="188"/>
      <point x="605" y="247"/>
      <point x="571" y="291" type="curve"/>
      <point x="577" y="296" type="line" smooth="yes"/>
      <point x="587" y="304"/>
      <point x="605" y="322"/>
      <point x="605" y="348" type="curve" smooth="yes"/>
      <point x="605" y="369"/>
      <point x="591" y="391"/>
      <point x="558" y="391" type="curve" smooth="yes"/>
      <point x="532" y="391"/>
      <point x="514" y="377"/>
      <point x="492" y="359" type="curve" smooth="yes"/>
      <point x="459" y="333"/>
      <point x="411" y="298"/>
      <point x="317" y="298" type="curve" smooth="yes"/>
      <point x="227" y="298"/>
      <point x="182" y="336"/>
      <point x="149" y="365" type="curve" smooth="yes"/>
      <point x="128" y="384"/>
      <point x="110" y="400"/>
      <point x="84" y="400" type="curve" smooth="yes"/>
      <point x="50" y="400"/>
      <point x="37" y="378"/>
      <point x="37" y="358" type="curve" smooth="yes"/>
      <point x="37" y="336"/>
      <point x="50" y="315"/>
      <point x="77" y="287" type="curve"/>
      <point x="90" y="265"/>
      <point x="120" y="209"/>
      <point x="120" y="160" type="curve" smooth="yes"/>
      <point x="120" y="84"/>
      <point x="68" y="81"/>
      <point x="6" y="81" type="curve"/>
      <point x="-39" y="81" type="line"/>
      <point x="-39" y="0" type="line"/>
      <point x="6" y="0" type="line"/>
      <point x="117" y="0"/>
      <point x="163" y="19"/>
      <point x="192" y="73" type="curve"/>
      <point x="243" y="15"/>
      <point x="319" y="-10"/>
    </contour>
    <contour>
      <point x="419" y="78" type="curve" smooth="yes"/>
      <point x="319" y="78"/>
      <point x="234" y="114"/>
      <point x="173" y="264" type="curve"/>
      <point x="168" y="240" type="line"/>
      <point x="206" y="227"/>
      <point x="261" y="215"/>
      <point x="330" y="215" type="curve" smooth="yes"/>
      <point x="399" y="215"/>
      <point x="459" y="229"/>
      <point x="517" y="256" type="curve"/>
      <point x="481" y="265" type="line"/>
      <point x="510" y="239"/>
      <point x="531" y="187"/>
      <point x="531" y="157" type="curve" smooth="yes"/>
      <point x="531" y="118"/>
      <point x="513" y="78"/>
    </contour>
  </outline>
</glyph>
<glyph name="u10AD7.alt" format="2">
  <advance width="552"/>
  <outline>
    <contour>
      <point x="438" y="-171" type="curve" smooth="yes"/>
      <point x="466" y="-171"/>
      <point x="493" y="-161"/>
      <point x="493" y="-149" type="curve" smooth="yes"/>
      <point x="493" y="-83"/>
      <point x="460" y="-39"/>
      <point x="418" y="-6" type="curve"/>
      <point x="469" y="41"/>
      <point x="489" y="98"/>
      <point x="489" y="161" type="curve" smooth="yes"/>
      <point x="489" y="254"/>
      <point x="417" y="339"/>
      <point x="297" y="339" type="curve" smooth="yes"/>
      <point x="196" y="339"/>
      <point x="129" y="285"/>
      <point x="129" y="219" type="curve" smooth="yes"/>
      <point x="129" y="171"/>
      <point x="150" y="158"/>
      <point x="171" y="158" type="curve" smooth="yes"/>
      <point x="198" y="158"/>
      <point x="206" y="175"/>
      <point x="216" y="197" type="curve" smooth="yes"/>
      <point x="227" y="221"/>
      <point x="248" y="246"/>
      <point x="295" y="246" type="curve" smooth="yes"/>
      <point x="356" y="246"/>
      <point x="398" y="210"/>
      <point x="398" y="149" type="curve" smooth="yes"/>
      <point x="398" y="107"/>
      <point x="385" y="65"/>
      <point x="336" y="38" type="curve"/>
      <point x="251" y="69"/>
      <point x="152" y="74"/>
      <point x="105" y="74" type="curve" smooth="yes"/>
      <point x="62" y="74"/>
      <point x="44" y="55"/>
      <point x="44" y="31" type="curve" smooth="yes"/>
      <point x="44" y="-10"/>
      <point x="79" y="-18"/>
      <point x="119" y="-18" type="curve" smooth="yes"/>
      <point x="249" y="-18"/>
      <point x="375" y="-45"/>
      <point x="397" y="-152" type="curve" smooth="yes"/>
      <point x="400" y="-168"/>
      <point x="421" y="-171"/>
    </contour>
  </outline>
</glyph>
<glyph name="u10AD7.init" format="2">
  <advance width="380"/>
  <outline>
    <contour>
      <point x="277" y="-114" type="curve" smooth="yes"/>
      <point x="303" y="-114"/>
      <point x="328" y="-105"/>
      <point x="328" y="-92" type="curve" smooth="yes"/>
      <point x="328" y="-24"/>
      <point x="291" y="43"/>
      <point x="209" y="72" type="curve"/>
      <point x="180" y="94"/>
      <point x="167" y="117"/>
      <point x="167" y="146" type="curve" smooth="yes"/>
      <point x="167" y="175"/>
      <point x="193" y="195"/>
      <point x="218" y="210" type="curve" smooth="yes"/>
      <point x="235" y="220"/>
      <point x="250" y="231"/>
      <point x="250" y="243" type="curve" smooth="yes"/>
      <point x="250" y="263"/>
      <point x="208" y="318"/>
      <point x="109" y="318" type="curve" smooth="yes"/>
      <point x="66" y="318"/>
      <point x="24" y="275"/>
      <point x="24" y="203" type="curve" smooth="yes"/>
      <point x="24" y="144"/>
      <point x="49" y="112"/>
      <point x="83" y="81" type="curve"/>
      <point x="-39" y="81" type="line"/>
      <point x="-39" y="0" type="line"/>
      <point x="81" y="0" type="line" smooth="yes"/>
      <point x="180" y="0"/>
      <point x="200" y="-33"/>
      <point x="225" y="-88" type="curve" smooth="yes"/>
      <point x="235" y="-110"/>
      <point x="254" y="-114"/>
    </contour>
  </outline>
</glyph>
<glyph name="u10AD8.fina" format="2">
  <advance width="1201"/>
  <outline>
    <contour>
      <point x="146" y="0" type="curve" smooth="yes"/>
      <point x="1118" y="0" type="line" smooth="yes"/>
      <point x="1144" y="0"/>
      <point x="1157" y="9"/>
      <point x="1157" y="29" type="curve" smooth="yes"/>
      <point x="1157" y="39"/>
      <point x="1153" y="52"/>
      <point x="1146" y="69" type="curve" smooth="yes"/>
      <point x="1098" y="189"/>
      <point x="1040" y="283"/>
      <point x="922" y="283" type="curve" smooth="yes"/>
      <point x="866" y="283"/>
      <point x="818" y="262"/>
      <point x="792" y="232" type="curve"/>
      <point x="749" y="295"/>
      <point x="691" y="340"/>
      <point x="615" y="340" type="curve" smooth="yes"/>
      <point x="527" y="340"/>
      <point x="482" y="279"/>
      <point x="482" y="216" type="curve" smooth="yes"/>
      <point x="482" y="164"/>
      <point x="508" y="114"/>
      <point x="553" y="81" type="curve"/>
      <point x="219" y="81" type="line" smooth="yes"/>
      <point x="191" y="81"/>
      <point x="174" y="93"/>
      <point x="158" y="105" type="curve" smooth="yes"/>
      <point x="141" y="118"/>
      <point x="124" y="129"/>
      <point x="98" y="129" type="curve" smooth="yes"/>
      <point x="64" y="129"/>
      <point x="44" y="107"/>
      <point x="44" y="72" type="curve" smooth="yes"/>
      <point x="44" y="29"/>
      <point x="80" y="0"/>
    </contour>
    <contour>
      <point x="763" y="81" type="curve"/>
      <point x="670" y="81"/>
      <point x="573" y="143"/>
      <point x="573" y="210" type="curve" smooth="yes"/>
      <point x="573" y="238"/>
      <point x="588" y="253"/>
      <point x="616" y="253" type="curve" smooth="yes"/>
      <point x="678" y="253"/>
      <point x="758" y="144"/>
    </contour>
    <contour>
      <point x="1035" y="82" type="curve"/>
      <point x="933" y="82"/>
      <point x="849" y="93"/>
      <point x="849" y="146" type="curve" smooth="yes"/>
      <point x="849" y="176"/>
      <point x="875" y="196"/>
      <point x="918" y="196" type="curve" smooth="yes"/>
      <point x="990" y="196"/>
      <point x="1027" y="121"/>
    </contour>
    <contour>
      <point x="1042" y="0" type="line"/>
      <point x="1240" y="0" type="line"/>
      <point x="1240" y="81" type="line"/>
      <point x="1042" y="81" type="line"/>
    </contour>
  </outline>
</glyph>
<glyph name="u10AD8.init" format="2">
  <advance width="766"/>
  <outline>
    <contour>
      <point x="-39" y="0" type="line"/>
      <point x="686" y="0" type="line" smooth="yes"/>
      <point x="711" y="0"/>
      <point x="725" y="9"/>
      <point x="725" y="29" type="curve" smooth="yes"/>
      <point x="725" y="40"/>
      <point x="720" y="55"/>
      <point x="713" y="74" type="curve" smooth="yes"/>
      <point x="671" y="193"/>
      <point x="607" y="283"/>
      <point x="489" y="283" type="curve" smooth="yes"/>
      <point x="434" y="283"/>
      <point x="385" y="262"/>
      <point x="359" y="232" type="curve"/>
      <point x="316" y="295"/>
      <point x="258" y="340"/>
      <point x="183" y="340" type="curve" smooth="yes"/>
      <point x="94" y="340"/>
      <point x="50" y="279"/>
      <point x="50" y="216" type="curve" smooth="yes"/>
      <point x="50" y="164"/>
      <point x="75" y="115"/>
      <point x="121" y="81" type="curve"/>
      <point x="-39" y="81" type="line"/>
    </contour>
    <contour>
      <point x="331" y="81" type="curve"/>
      <point x="237" y="81"/>
      <point x="141" y="143"/>
      <point x="141" y="210" type="curve" smooth="yes"/>
      <point x="141" y="238"/>
      <point x="155" y="253"/>
      <point x="183" y="253" type="curve" smooth="yes"/>
      <point x="245" y="253"/>
      <point x="326" y="146"/>
    </contour>
    <contour>
      <point x="602" y="82" type="curve"/>
      <point x="500" y="82"/>
      <point x="416" y="92"/>
      <point x="416" y="146" type="curve" smooth="yes"/>
      <point x="416" y="176"/>
      <point x="442" y="196"/>
      <point x="485" y="196" type="curve" smooth="yes"/>
      <point x="557" y="196"/>
      <point x="595" y="123"/>
    </contour>
  </outline>
</glyph>
<glyph name="u10AD9.fina" format="2">
  <advance width="955"/>
  <outline>
    <contour>
      <point x="146" y="0" type="curve"/>
      <point x="994" y="0" type="line"/>
      <point x="994" y="81" type="line"/>
      <point x="863" y="81" type="line"/>
      <point x="650" y="197" type="line" smooth="yes"/>
      <point x="584" y="233"/>
      <point x="542" y="256"/>
      <point x="542" y="280" type="curve" smooth="yes"/>
      <point x="542" y="290"/>
      <point x="549" y="296"/>
      <point x="557" y="302" type="curve" smooth="yes"/>
      <point x="568" y="310"/>
      <point x="573" y="315"/>
      <point x="573" y="327" type="curve" smooth="yes"/>
      <point x="573" y="356"/>
      <point x="501" y="396"/>
      <point x="457" y="396" type="curve" smooth="yes"/>
      <point x="392" y="396"/>
      <point x="387" y="347"/>
      <point x="387" y="331" type="curve" smooth="yes"/>
      <point x="387" y="256"/>
      <point x="481" y="177"/>
      <point x="688" y="81" type="curve"/>
      <point x="219" y="81" type="line" smooth="yes"/>
      <point x="191" y="81"/>
      <point x="173" y="93"/>
      <point x="156" y="106" type="curve" smooth="yes"/>
      <point x="140" y="119"/>
      <point x="124" y="129"/>
      <point x="98" y="129" type="curve" smooth="yes"/>
      <point x="64" y="129"/>
      <point x="44" y="107"/>
      <point x="44" y="72" type="curve" smooth="yes"/>
      <point x="44" y="29"/>
      <point x="80" y="0"/>
    </contour>
  </outline>
</glyph>
<glyph name="u10AD9.init" format="2">
  <advance width="607"/>
  <outline>
    <contour>
      <point x="526" y="-24" type="curve" smooth="yes"/>
      <point x="551" y="-24"/>
      <point x="564" y="-10"/>
      <point x="564" y="16" type="curve" smooth="yes"/>
      <point x="564" y="56"/>
      <point x="512" y="87"/>
      <point x="436" y="126" type="curve" smooth="yes"/>
      <point x="293" y="199" type="line" smooth="yes"/>
      <point x="227" y="233"/>
      <point x="186" y="256"/>
      <point x="186" y="280" type="curve" smooth="yes"/>
      <point x="186" y="290"/>
      <point x="193" y="297"/>
      <point x="201" y="302" type="curve" smooth="yes"/>
      <point x="212" y="309"/>
      <point x="217" y="316"/>
      <point x="217" y="327" type="curve" smooth="yes"/>
      <point x="217" y="356"/>
      <point x="145" y="396"/>
      <point x="101" y="396" type="curve" smooth="yes"/>
      <point x="36" y="396"/>
      <point x="31" y="347"/>
      <point x="31" y="331" type="curve" smooth="yes"/>
      <point x="31" y="256"/>
      <point x="125" y="177"/>
      <point x="333" y="81" type="curve"/>
      <point x="-39" y="81" type="line"/>
      <point x="-39" y="0" type="line"/>
      <point x="472" y="0" type="line"/>
      <point x="489" y="-15"/>
      <point x="502" y="-24"/>
    </contour>
  </outline>
</glyph>
<glyph name="u10AD9.medi" format="2">
  <advance width="576"/>
  <outline>
    <contour>
      <point x="-39" y="0" type="line"/>
      <point x="613" y="0" type="line"/>
      <point x="613" y="81" type="line"/>
      <point x="482" y="81" type="line"/>
      <point x="269" y="197" type="line" smooth="yes"/>
      <point x="203" y="233"/>
      <point x="161" y="256"/>
      <point x="161" y="280" type="curve" smooth="yes"/>
      <point x="161" y="290"/>
      <point x="168" y="296"/>
      <point x="176" y="302" type="curve" smooth="yes"/>
      <point x="187" y="310"/>
      <point x="191" y="315"/>
      <point x="191" y="327" type="curve" smooth="yes"/>
      <point x="191" y="356"/>
      <point x="120" y="396"/>
      <point x="76" y="396" type="curve" smooth="yes"/>
      <point x="11" y="396"/>
      <point x="6" y="347"/>
      <point x="6" y="331" type="curve" smooth="yes"/>
      <point x="6" y="256"/>
      <point x="100" y="177"/>
      <point x="307" y="81" type="curve"/>
      <point x="-39" y="81" type="line"/>
    </contour>
  </outline>
</glyph>
<glyph name="u10ADC.fina" format="2">
  <advance width="922"/>
  <outline>
    <contour>
      <point x="146" y="0" type="curve" smooth="yes"/>
      <point x="839" y="0" type="line" smooth="yes"/>
      <point x="864" y="0"/>
      <point x="878" y="9"/>
      <point x="878" y="29" type="curve" smooth="yes"/>
      <point x="878" y="41"/>
      <point x="873" y="54"/>
      <point x="864" y="76" type="curve" smooth="yes"/>
      <point x="812" y="205"/>
      <point x="745" y="340"/>
      <point x="615" y="340" type="curve" smooth="yes"/>
      <point x="527" y="340"/>
      <point x="482" y="279"/>
      <point x="482" y="216" type="curve" smooth="yes"/>
      <point x="482" y="161"/>
      <point x="508" y="114"/>
      <point x="553" y="81" type="curve"/>
      <point x="219" y="81" type="line" smooth="yes"/>
      <point x="191" y="81"/>
      <point x="174" y="93"/>
      <point x="158" y="105" type="curve" smooth="yes"/>
      <point x="141" y="118"/>
      <point x="124" y="129"/>
      <point x="98" y="129" type="curve" smooth="yes"/>
      <point x="64" y="129"/>
      <point x="44" y="107"/>
      <point x="44" y="72" type="curve" smooth="yes"/>
      <point x="44" y="29"/>
      <point x="80" y="0"/>
    </contour>
    <contour>
      <point x="763" y="81" type="curve"/>
      <point x="670" y="81"/>
      <point x="573" y="141"/>
      <point x="573" y="206" type="curve" smooth="yes"/>
      <point x="573" y="238"/>
      <point x="589" y="253"/>
      <point x="619" y="253" type="curve" smooth="yes"/>
      <point x="683" y="253"/>
      <point x="763" y="141"/>
    </contour>
    <contour>
      <point x="763" y="0" type="line"/>
      <point x="961" y="0" type="line"/>
      <point x="961" y="81" type="line"/>
      <point x="763" y="81" type="line"/>
    </contour>
    <contour>
      <point x="574" y="386" type="curve" smooth="yes"/>
      <point x="604" y="386"/>
      <point x="621" y="410"/>
      <point x="621" y="440" type="curve" smooth="yes"/>
      <point x="621" y="469"/>
      <point x="589" y="494"/>
      <point x="559" y="494" type="curve" smooth="yes"/>
      <point x="530" y="494"/>
      <point x="513" y="469"/>
      <point x="513" y="440" type="curve" smooth="yes"/>
      <point x="513" y="410"/>
      <point x="544" y="386"/>
    </contour>
  </outline>
</glyph>
<glyph name="u10ADC.medi" format="2">
  <advance width="487"/>
  <outline>
    <contour>
      <point x="-39" y="0" type="line"/>
      <point x="403" y="0" type="line" smooth="yes"/>
      <point x="429" y="0"/>
      <point x="442" y="9"/>
      <point x="442" y="29" type="curve" smooth="yes"/>
      <point x="442" y="42"/>
      <point x="437" y="58"/>
      <point x="429" y="81" type="curve" smooth="yes"/>
      <point x="383" y="207"/>
      <point x="310" y="340"/>
      <point x="180" y="340" type="curve" smooth="yes"/>
      <point x="91" y="340"/>
      <point x="47" y="279"/>
      <point x="47" y="216" type="curve" smooth="yes"/>
      <point x="47" y="164"/>
      <point x="72" y="115"/>
      <point x="118" y="81" type="curve"/>
      <point x="-39" y="81" type="line"/>
    </contour>
    <contour>
      <point x="328" y="81" type="curve"/>
      <point x="234" y="81"/>
      <point x="138" y="143"/>
      <point x="138" y="206" type="curve" smooth="yes"/>
      <point x="138" y="238"/>
      <point x="153" y="253"/>
      <point x="183" y="253" type="curve" smooth="yes"/>
      <point x="248" y="253"/>
      <point x="328" y="143"/>
    </contour>
    <contour>
      <point x="140" y="386" type="curve" smooth="yes"/>
      <point x="170" y="386"/>
      <point x="187" y="410"/>
      <point x="187" y="440" type="curve" smooth="yes"/>
      <point x="187" y="469"/>
      <point x="155" y="494"/>
      <point x="125" y="494" type="curve" smooth="yes"/>
      <point x="96" y="494"/>
      <point x="79" y="469"/>
      <point x="79" y="440" type="curve" smooth="yes"/>
      <point x="79" y="410"/>
      <point x="110" y="386"/>
    </contour>
    <contour>
      <point x="329" y="0" type="line"/>
      <point x="527" y="0" type="line"/>
      <point x="527" y="81" type="line"/>
      <point x="329" y="81" type="line"/>
    </contour>
  </outline>
</glyph>
<glyph name="u10ADD.fina" format="2">
  <advance width="862"/>
  <outline>
    <contour>
      <point x="271" y="-225" type="curve" smooth="yes"/>
      <point x="455" y="-225"/>
      <point x="514" y="-95"/>
      <point x="514" y="10" type="curve" smooth="yes"/>
      <point x="514" y="71"/>
      <point x="495" y="154"/>
      <point x="446" y="219" type="curve"/>
      <point x="436" y="205" type="line"/>
      <point x="507" y="189"/>
      <point x="566" y="185"/>
      <point x="642" y="185" type="curve"/>
      <point x="672" y="74"/>
      <point x="738" y="0"/>
      <point x="854" y="0" type="curve" smooth="yes"/>
      <point x="901" y="0" type="line"/>
      <point x="901" y="81" type="line"/>
      <point x="860" y="81" type="line" smooth="yes"/>
      <point x="768" y="81"/>
      <point x="718" y="144"/>
      <point x="718" y="264" type="curve" smooth="yes"/>
      <point x="718" y="298"/>
      <point x="727" y="322"/>
      <point x="735" y="342" type="curve" smooth="yes"/>
      <point x="741" y="357"/>
      <point x="745" y="372"/>
      <point x="745" y="386" type="curve" smooth="yes"/>
      <point x="745" y="423"/>
      <point x="715" y="439"/>
      <point x="686" y="439" type="curve" smooth="yes"/>
      <point x="642" y="439"/>
      <point x="621" y="402"/>
      <point x="621" y="343" type="curve" smooth="yes"/>
      <point x="621" y="325"/>
      <point x="623" y="295"/>
      <point x="626" y="276" type="curve"/>
      <point x="398" y="286"/>
      <point x="337" y="350"/>
      <point x="295" y="395" type="curve" smooth="yes"/>
      <point x="272" y="420"/>
      <point x="253" y="438"/>
      <point x="218" y="438" type="curve" smooth="yes"/>
      <point x="184" y="438"/>
      <point x="155" y="420"/>
      <point x="155" y="380" type="curve" smooth="yes"/>
      <point x="155" y="323"/>
      <point x="212" y="281"/>
      <point x="296" y="248" type="curve"/>
      <point x="371" y="205"/>
      <point x="423" y="84"/>
      <point x="423" y="4" type="curve" smooth="yes"/>
      <point x="423" y="-64"/>
      <point x="386" y="-137"/>
      <point x="275" y="-137" type="curve" smooth="yes"/>
      <point x="185" y="-137"/>
      <point x="134" y="-88"/>
      <point x="134" y="-34" type="curve" smooth="yes"/>
      <point x="134" y="-9"/>
      <point x="145" y="1"/>
      <point x="152" y="7" type="curve" smooth="yes"/>
      <point x="160" y="13"/>
      <point x="166" y="20"/>
      <point x="166" y="33" type="curve" smooth="yes"/>
      <point x="166" y="56"/>
      <point x="145" y="96"/>
      <point x="104" y="96" type="curve" smooth="yes"/>
      <point x="64" y="96"/>
      <point x="44" y="59"/>
      <point x="44" y="-4" type="curve" smooth="yes"/>
      <point x="44" y="-106"/>
      <point x="98" y="-225"/>
    </contour>
  </outline>
</glyph>
<glyph name="u10ADD10ACF.fina" format="2">
  <advance width="1065"/>
  <outline>
    <contour>
      <point x="440" y="-225" type="curve" smooth="yes"/>
      <point x="650" y="-225"/>
      <point x="719" y="-95"/>
      <point x="719" y="31" type="curve" smooth="yes"/>
      <point x="719" y="111"/>
      <point x="699" y="160"/>
      <point x="651" y="224" type="curve"/>
      <point x="641" y="210" type="line"/>
      <point x="712" y="198"/>
      <point x="769" y="189"/>
      <point x="844" y="189" type="curve"/>
      <point x="875" y="75"/>
      <point x="941" y="0"/>
      <point x="1042" y="0" type="curve" smooth="yes"/>
      <point x="1104" y="0" type="line"/>
      <point x="1104" y="81" type="line"/>
      <point x="1064" y="81" type="line" smooth="yes"/>
      <point x="972" y="81"/>
      <point x="923" y="144"/>
      <point x="923" y="264" type="curve" smooth="yes"/>
      <point x="923" y="298"/>
      <point x="932" y="322"/>
      <point x="940" y="342" type="curve" smooth="yes"/>
      <point x="946" y="357"/>
      <point x="950" y="372"/>
      <point x="950" y="386" type="curve" smooth="yes"/>
      <point x="950" y="423"/>
      <point x="920" y="439"/>
      <point x="891" y="439" type="curve" smooth="yes"/>
      <point x="847" y="439"/>
      <point x="826" y="402"/>
      <point x="826" y="343" type="curve" smooth="yes"/>
      <point x="826" y="325"/>
      <point x="828" y="295"/>
      <point x="831" y="276" type="curve"/>
      <point x="649" y="285"/>
      <point x="580" y="349"/>
      <point x="535" y="395" type="curve" smooth="yes"/>
      <point x="510" y="420"/>
      <point x="491" y="438"/>
      <point x="458" y="438" type="curve" smooth="yes"/>
      <point x="423" y="438"/>
      <point x="395" y="420"/>
      <point x="395" y="379" type="curve" smooth="yes"/>
      <point x="395" y="325"/>
      <point x="446" y="285"/>
      <point x="521" y="252" type="curve"/>
      <point x="584" y="211"/>
      <point x="628" y="125"/>
      <point x="628" y="33" type="curve" smooth="yes"/>
      <point x="628" y="-64"/>
      <point x="581" y="-142"/>
      <point x="440" y="-142" type="curve" smooth="yes"/>
      <point x="232" y="-142"/>
      <point x="134" y="15"/>
      <point x="134" y="121" type="curve" smooth="yes"/>
      <point x="134" y="186"/>
      <point x="154" y="227"/>
      <point x="205" y="237" type="curve"/>
      <point x="204" y="221"/>
      <point x="204" y="208"/>
      <point x="204" y="199" type="curve" smooth="yes"/>
      <point x="204" y="143"/>
      <point x="234" y="91"/>
      <point x="297" y="91" type="curve" smooth="yes"/>
      <point x="358" y="91"/>
      <point x="375" y="152"/>
      <point x="375" y="204" type="curve" smooth="yes"/>
      <point x="375" y="308"/>
      <point x="317" y="338"/>
      <point x="249" y="338" type="curve" smooth="yes"/>
      <point x="146" y="338"/>
      <point x="44" y="267"/>
      <point x="44" y="127" type="curve" smooth="yes"/>
      <point x="44" y="-63"/>
      <point x="206" y="-225"/>
    </contour>
  </outline>
</glyph>
<glyph name="u10ADD10ACF" format="2">
  <advance width="1104"/>
  <outline>
    <contour>
      <point x="440" y="-225" type="curve" smooth="yes"/>
      <point x="650" y="-225"/>
      <point x="719" y="-95"/>
      <point x="719" y="31" type="curve" smooth="yes"/>
      <point x="719" y="109"/>
      <point x="699" y="156"/>
      <point x="651" y="219" type="curve"/>
      <point x="641" y="205" type="line"/>
      <point x="712" y="189"/>
      <point x="778" y="186"/>
      <point x="850" y="184" type="curve"/>
      <point x="886" y="65"/>
      <point x="942" y="-10"/>
      <point x="1003" y="-10" type="curve" smooth="yes"/>
      <point x="1022" y="-10"/>
      <point x="1062" y="-2"/>
      <point x="1062" y="42" type="curve" smooth="yes"/>
      <point x="1062" y="77"/>
      <point x="1038" y="97"/>
      <point x="1006" y="121" type="curve" smooth="yes"/>
      <point x="969" y="149"/>
      <point x="923" y="186"/>
      <point x="923" y="264" type="curve" smooth="yes"/>
      <point x="923" y="298"/>
      <point x="932" y="322"/>
      <point x="940" y="342" type="curve" smooth="yes"/>
      <point x="946" y="357"/>
      <point x="950" y="372"/>
      <point x="950" y="386" type="curve" smooth="yes"/>
      <point x="950" y="423"/>
      <point x="920" y="439"/>
      <point x="891" y="439" type="curve" smooth="yes"/>
      <point x="847" y="439"/>
      <point x="826" y="402"/>
      <point x="826" y="343" type="curve" smooth="yes"/>
      <point x="826" y="325"/>
      <point x="828" y="295"/>
      <point x="831" y="276" type="curve"/>
      <point x="649" y="285"/>
      <point x="580" y="349"/>
      <point x="535" y="395" type="curve" smooth="yes"/>
      <point x="510" y="420"/>
      <point x="491" y="438"/>
      <point x="458" y="438" type="curve" smooth="yes"/>
      <point x="423" y="438"/>
      <point x="401" y="423"/>
      <point x="401" y="389" type="curve" smooth="yes"/>
      <point x="401" y="323"/>
      <point x="453" y="285"/>
      <point x="528" y="257" type="curve"/>
      <point x="591" y="214"/>
      <point x="628" y="127"/>
      <point x="628" y="33" type="curve" smooth="yes"/>
      <point x="628" y="-64"/>
      <point x="581" y="-142"/>
      <point x="440" y="-142" type="curve" smooth="yes"/>
      <point x="232" y="-142"/>
      <point x="134" y="15"/>
      <point x="134" y="121" type="curve" smooth="yes"/>
      <point x="134" y="186"/>
      <point x="154" y="227"/>
      <point x="205" y="237" type="curve"/>
      <point x="204" y="221"/>
      <point x="204" y="208"/>
      <point x="204" y="199" type="curve" smooth="yes"/>
      <point x="204" y="143"/>
      <point x="237" y="91"/>
      <point x="297" y="91" type="curve" smooth="yes"/>
      <point x="358" y="91"/>
      <point x="375" y="152"/>
      <point x="375" y="204" type="curve" smooth="yes"/>
      <point x="375" y="308"/>
      <point x="317" y="338"/>
      <point x="249" y="338" type="curve" smooth="yes"/>
      <point x="146" y="338"/>
      <point x="44" y="267"/>
      <point x="44" y="127" type="curve" smooth="yes"/>
      <point x="44" y="-63"/>
      <point x="206" y="-225"/>
    </contour>
  </outline>
</glyph>
<glyph name="u10ADD10AD7.fina" format="2">
  <advance width="1065"/>
  <outline>
    <contour>
      <point x="441" y="-225" type="curve" smooth="yes"/>
      <point x="651" y="-225"/>
      <point x="720" y="-95"/>
      <point x="720" y="31" type="curve" smooth="yes"/>
      <point x="720" y="111"/>
      <point x="700" y="160"/>
      <point x="652" y="224" type="curve"/>
      <point x="642" y="210" type="line"/>
      <point x="713" y="194"/>
      <point x="770" y="190"/>
      <point x="845" y="189" type="curve"/>
      <point x="876" y="75"/>
      <point x="942" y="0"/>
      <point x="1043" y="0" type="curve" smooth="yes"/>
      <point x="1105" y="0" type="line"/>
      <point x="1105" y="81" type="line"/>
      <point x="1065" y="81" type="line" smooth="yes"/>
      <point x="973" y="81"/>
      <point x="924" y="144"/>
      <point x="924" y="264" type="curve" smooth="yes"/>
      <point x="924" y="298"/>
      <point x="933" y="322"/>
      <point x="941" y="342" type="curve" smooth="yes"/>
      <point x="947" y="357"/>
      <point x="951" y="372"/>
      <point x="951" y="386" type="curve" smooth="yes"/>
      <point x="951" y="423"/>
      <point x="921" y="439"/>
      <point x="892" y="439" type="curve" smooth="yes"/>
      <point x="848" y="439"/>
      <point x="827" y="402"/>
      <point x="827" y="343" type="curve" smooth="yes"/>
      <point x="827" y="325"/>
      <point x="829" y="295"/>
      <point x="832" y="276" type="curve"/>
      <point x="650" y="285"/>
      <point x="581" y="349"/>
      <point x="536" y="395" type="curve" smooth="yes"/>
      <point x="511" y="420"/>
      <point x="492" y="438"/>
      <point x="459" y="438" type="curve" smooth="yes"/>
      <point x="424" y="438"/>
      <point x="396" y="420"/>
      <point x="396" y="379" type="curve" smooth="yes"/>
      <point x="396" y="325"/>
      <point x="447" y="285"/>
      <point x="522" y="252" type="curve"/>
      <point x="585" y="211"/>
      <point x="629" y="125"/>
      <point x="629" y="33" type="curve" smooth="yes"/>
      <point x="629" y="-64"/>
      <point x="582" y="-142"/>
      <point x="441" y="-142" type="curve" smooth="yes"/>
      <point x="233" y="-142"/>
      <point x="135" y="-2"/>
      <point x="135" y="153" type="curve" smooth="yes"/>
      <point x="135" y="195"/>
      <point x="147" y="236"/>
      <point x="192" y="236" type="curve" smooth="yes"/>
      <point x="233" y="236"/>
      <point x="268" y="192"/>
      <point x="268" y="154" type="curve" smooth="yes"/>
      <point x="268" y="131"/>
      <point x="256" y="118"/>
      <point x="244" y="105" type="curve" smooth="yes"/>
      <point x="235" y="96"/>
      <point x="228" y="86"/>
      <point x="228" y="74" type="curve" smooth="yes"/>
      <point x="228" y="62"/>
      <point x="238" y="20"/>
      <point x="310" y="20" type="curve" smooth="yes"/>
      <point x="342" y="20"/>
      <point x="372" y="53"/>
      <point x="372" y="109" type="curve" smooth="yes"/>
      <point x="372" y="155"/>
      <point x="347" y="182"/>
      <point x="324" y="206" type="curve" smooth="yes"/>
      <point x="305" y="225"/>
      <point x="291" y="242"/>
      <point x="291" y="268" type="curve" smooth="yes"/>
      <point x="291" y="291"/>
      <point x="305" y="308"/>
      <point x="328" y="322" type="curve" smooth="yes"/>
      <point x="346" y="333"/>
      <point x="358" y="342"/>
      <point x="358" y="353" type="curve" smooth="yes"/>
      <point x="358" y="370"/>
      <point x="331" y="413"/>
      <point x="257" y="413" type="curve" smooth="yes"/>
      <point x="225" y="413"/>
      <point x="188" y="383"/>
      <point x="179" y="331" type="curve"/>
      <point x="84" y="313"/>
      <point x="44" y="239"/>
      <point x="44" y="148" type="curve" smooth="yes"/>
      <point x="44" y="-85"/>
      <point x="224" y="-225"/>
    </contour>
  </outline>
</glyph>
<glyph name="u10ADD10AD7" format="2">
  <advance width="1104"/>
  <outline>
    <contour>
      <point x="438" y="-225" type="curve" smooth="yes"/>
      <point x="652" y="-225"/>
      <point x="719" y="-99"/>
      <point x="719" y="25" type="curve" smooth="yes"/>
      <point x="719" y="98"/>
      <point x="700" y="158"/>
      <point x="651" y="224" type="curve"/>
      <point x="641" y="210" type="line"/>
      <point x="712" y="194"/>
      <point x="775" y="191"/>
      <point x="850" y="189" type="curve"/>
      <point x="886" y="67"/>
      <point x="942" y="-10"/>
      <point x="1003" y="-10" type="curve" smooth="yes"/>
      <point x="1022" y="-10"/>
      <point x="1062" y="-2"/>
      <point x="1062" y="42" type="curve" smooth="yes"/>
      <point x="1062" y="78"/>
      <point x="1036" y="99"/>
      <point x="1006" y="121" type="curve" smooth="yes"/>
      <point x="969" y="149"/>
      <point x="923" y="185"/>
      <point x="923" y="264" type="curve" smooth="yes"/>
      <point x="923" y="298"/>
      <point x="932" y="322"/>
      <point x="940" y="342" type="curve" smooth="yes"/>
      <point x="946" y="357"/>
      <point x="950" y="372"/>
      <point x="950" y="386" type="curve" smooth="yes"/>
      <point x="950" y="423"/>
      <point x="920" y="439"/>
      <point x="891" y="439" type="curve" smooth="yes"/>
      <point x="847" y="439"/>
      <point x="826" y="402"/>
      <point x="826" y="343" type="curve" smooth="yes"/>
      <point x="826" y="325"/>
      <point x="828" y="295"/>
      <point x="831" y="276" type="curve"/>
      <point x="652" y="285"/>
      <point x="578" y="351"/>
      <point x="535" y="395" type="curve" smooth="yes"/>
      <point x="510" y="420"/>
      <point x="490" y="438"/>
      <point x="453" y="438" type="curve" smooth="yes"/>
      <point x="421" y="438"/>
      <point x="395" y="420"/>
      <point x="395" y="380" type="curve" smooth="yes"/>
      <point x="395" y="325"/>
      <point x="446" y="285"/>
      <point x="521" y="252" type="curve"/>
      <point x="584" y="210"/>
      <point x="628" y="115"/>
      <point x="628" y="35" type="curve" smooth="yes"/>
      <point x="628" y="-67"/>
      <point x="583" y="-142"/>
      <point x="428" y="-142" type="curve" smooth="yes"/>
      <point x="233" y="-142"/>
      <point x="135" y="-2"/>
      <point x="135" y="153" type="curve" smooth="yes"/>
      <point x="135" y="195"/>
      <point x="147" y="236"/>
      <point x="192" y="236" type="curve" smooth="yes"/>
      <point x="233" y="236"/>
      <point x="268" y="192"/>
      <point x="268" y="154" type="curve" smooth="yes"/>
      <point x="268" y="131"/>
      <point x="256" y="118"/>
      <point x="244" y="105" type="curve" smooth="yes"/>
      <point x="235" y="96"/>
      <point x="228" y="86"/>
      <point x="228" y="74" type="curve" smooth="yes"/>
      <point x="228" y="62"/>
      <point x="238" y="20"/>
      <point x="310" y="20" type="curve" smooth="yes"/>
      <point x="342" y="20"/>
      <point x="372" y="53"/>
      <point x="372" y="109" type="curve" smooth="yes"/>
      <point x="372" y="155"/>
      <point x="347" y="182"/>
      <point x="324" y="206" type="curve" smooth="yes"/>
      <point x="305" y="225"/>
      <point x="291" y="242"/>
      <point x="291" y="268" type="curve" smooth="yes"/>
      <point x="291" y="291"/>
      <point x="305" y="309"/>
      <point x="328" y="322" type="curve" smooth="yes"/>
      <point x="346" y="332"/>
      <point x="358" y="342"/>
      <point x="358" y="353" type="curve" smooth="yes"/>
      <point x="358" y="370"/>
      <point x="331" y="413"/>
      <point x="257" y="413" type="curve" smooth="yes"/>
      <point x="225" y="413"/>
      <point x="188" y="383"/>
      <point x="179" y="331" type="curve"/>
      <point x="84" y="313"/>
      <point x="44" y="239"/>
      <point x="44" y="148" type="curve" smooth="yes"/>
      <point x="44" y="-85"/>
      <point x="224" y="-225"/>
    </contour>
  </outline>
</glyph>
<glyph name="u10ADE.init" format="2">
  <advance width="834"/>
  <outline>
    <contour>
      <point x="-39" y="0" type="line"/>
      <point x="28" y="0" type="line" smooth="yes"/>
      <point x="161" y="0"/>
      <point x="202" y="65"/>
      <point x="202" y="141" type="curve" smooth="yes"/>
      <point x="202" y="177"/>
      <point x="187" y="230"/>
      <point x="175" y="266" type="curve"/>
      <point x="150" y="269" type="line"/>
      <point x="216" y="239"/>
      <point x="310" y="230"/>
      <point x="378" y="230" type="curve" smooth="yes"/>
      <point x="446" y="230"/>
      <point x="545" y="239"/>
      <point x="626" y="266" type="curve"/>
      <point x="653" y="214"/>
      <point x="688" y="129"/>
      <point x="688" y="108" type="curve" smooth="yes"/>
      <point x="688" y="86"/>
      <point x="665" y="81"/>
      <point x="630" y="81" type="curve" smooth="yes"/>
      <point x="416" y="81" type="line" smooth="yes"/>
      <point x="387" y="81"/>
      <point x="356" y="86"/>
      <point x="324" y="104" type="curve" smooth="yes"/>
      <point x="303" y="116"/>
      <point x="291" y="121"/>
      <point x="280" y="121" type="curve" smooth="yes"/>
      <point x="258" y="121"/>
      <point x="248" y="103"/>
      <point x="248" y="79" type="curve" smooth="yes"/>
      <point x="248" y="38"/>
      <point x="276" y="0"/>
      <point x="343" y="0" type="curve" smooth="yes"/>
      <point x="652" y="0" type="line" smooth="yes"/>
      <point x="738" y="0"/>
      <point x="790" y="7"/>
      <point x="790" y="61" type="curve" smooth="yes"/>
      <point x="790" y="94"/>
      <point x="766" y="156"/>
      <point x="742" y="210" type="curve" smooth="yes"/>
      <point x="728" y="242"/>
      <point x="713" y="278"/>
      <point x="705" y="308" type="curve"/>
      <point x="716" y="320"/>
      <point x="723" y="333"/>
      <point x="723" y="348" type="curve" smooth="yes"/>
      <point x="723" y="370"/>
      <point x="709" y="391"/>
      <point x="675" y="391" type="curve" smooth="yes"/>
      <point x="656" y="391"/>
      <point x="639" y="381"/>
      <point x="621" y="370" type="curve" smooth="yes"/>
      <point x="590" y="351"/>
      <point x="521" y="313"/>
      <point x="372" y="313" type="curve" smooth="yes"/>
      <point x="246" y="313"/>
      <point x="205" y="339"/>
      <point x="150" y="375" type="curve" smooth="yes"/>
      <point x="124" y="392"/>
      <point x="102" y="405"/>
      <point x="76" y="405" type="curve" smooth="yes"/>
      <point x="49" y="405"/>
      <point x="33" y="389"/>
      <point x="33" y="366" type="curve" smooth="yes"/>
      <point x="33" y="344"/>
      <point x="54" y="317"/>
      <point x="74" y="295" type="curve"/>
      <point x="92" y="260"/>
      <point x="115" y="205"/>
      <point x="115" y="160" type="curve" smooth="yes"/>
      <point x="115" y="117"/>
      <point x="96" y="81"/>
      <point x="37" y="81" type="curve" smooth="yes"/>
      <point x="-39" y="81" type="line"/>
    </contour>
  </outline>
</glyph>
<glyph name="u10AE1.alt" format="2">
  <advance width="717"/>
  <outline>
    <contour>
      <point x="583" y="-89" type="curve" smooth="yes"/>
      <point x="603" y="-89"/>
      <point x="611" y="-78"/>
      <point x="611" y="-63" type="curve" smooth="yes"/>
      <point x="611" y="-42"/>
      <point x="596" y="-24"/>
      <point x="577" y="-3" type="curve" smooth="yes"/>
      <point x="555" y="21"/>
      <point x="538" y="48"/>
      <point x="538" y="70" type="curve" smooth="yes"/>
      <point x="538" y="89"/>
      <point x="551" y="102"/>
      <point x="564" y="109" type="curve" smooth="yes"/>
      <point x="575" y="115"/>
      <point x="598" y="130"/>
      <point x="598" y="156" type="curve" smooth="yes"/>
      <point x="598" y="211"/>
      <point x="495" y="236"/>
      <point x="431" y="236" type="curve" smooth="yes"/>
      <point x="364" y="236"/>
      <point x="341" y="208"/>
      <point x="341" y="171" type="curve" smooth="yes"/>
      <point x="341" y="74"/>
      <point x="505" y="-89"/>
    </contour>
    <contour>
      <point x="185" y="30" type="curve" smooth="yes"/>
      <point x="250" y="30"/>
      <point x="274" y="76"/>
      <point x="274" y="132" type="curve" smooth="yes"/>
      <point x="274" y="189"/>
      <point x="213" y="236"/>
      <point x="157" y="236" type="curve" smooth="yes"/>
      <point x="94" y="236"/>
      <point x="67" y="189"/>
      <point x="67" y="132" type="curve" smooth="yes"/>
      <point x="67" y="76"/>
      <point x="128" y="30"/>
    </contour>
    <contour>
      <point x="297" y="313" type="curve" smooth="yes"/>
      <point x="327" y="313"/>
      <point x="344" y="337"/>
      <point x="344" y="367" type="curve" smooth="yes"/>
      <point x="344" y="396"/>
      <point x="313" y="421"/>
      <point x="283" y="421" type="curve" smooth="yes"/>
      <point x="253" y="421"/>
      <point x="236" y="396"/>
      <point x="236" y="367" type="curve" smooth="yes"/>
      <point x="236" y="337"/>
      <point x="268" y="313"/>
    </contour>
  </outline>
</glyph>
<glyph name="u10AE1.fina" format="2">
  <advance width="385"/>
  <outline>
    <contour>
      <point x="286" y="-89" type="curve" smooth="yes"/>
      <point x="306" y="-89"/>
      <point x="314" y="-78"/>
      <point x="314" y="-63" type="curve" smooth="yes"/>
      <point x="314" y="-42"/>
      <point x="300" y="-25"/>
      <point x="280" y="-3" type="curve" smooth="yes"/>
      <point x="258" y="22"/>
      <point x="241" y="48"/>
      <point x="241" y="70" type="curve" smooth="yes"/>
      <point x="241" y="89"/>
      <point x="253" y="100"/>
      <point x="268" y="109" type="curve" smooth="yes"/>
      <point x="279" y="115"/>
      <point x="301" y="130"/>
      <point x="301" y="156" type="curve" smooth="yes"/>
      <point x="301" y="211"/>
      <point x="198" y="236"/>
      <point x="134" y="236" type="curve" smooth="yes"/>
      <point x="67" y="236"/>
      <point x="44" y="208"/>
      <point x="44" y="171" type="curve" smooth="yes"/>
      <point x="44" y="74"/>
      <point x="208" y="-89"/>
    </contour>
    <contour>
      <point x="153" y="0" type="line"/>
      <point x="424" y="0" type="line"/>
      <point x="424" y="81" type="line"/>
      <point x="153" y="81" type="line"/>
    </contour>
    <contour>
      <point x="120" y="289" type="curve" smooth="yes"/>
      <point x="150" y="289"/>
      <point x="167" y="313"/>
      <point x="167" y="343" type="curve" smooth="yes"/>
      <point x="167" y="372"/>
      <point x="135" y="397"/>
      <point x="105" y="397" type="curve" smooth="yes"/>
      <point x="76" y="397"/>
      <point x="59" y="372"/>
      <point x="59" y="343" type="curve" smooth="yes"/>
      <point x="59" y="313"/>
      <point x="90" y="289"/>
    </contour>
  </outline>
</glyph>
<glyph name="u10AE4.fina" format="2">
  <advance width="632"/>
  <outline>
    <contour>
      <point x="283" y="-10" type="curve" smooth="yes"/>
      <point x="328" y="-10"/>
      <point x="329" y="23"/>
      <point x="329" y="35" type="curve" smooth="yes"/>
      <point x="329" y="65"/>
      <point x="325" y="80"/>
      <point x="312" y="113" type="curve"/>
      <point x="340" y="144"/>
      <point x="366" y="168"/>
      <point x="391" y="168" type="curve" smooth="yes"/>
      <point x="415" y="168"/>
      <point x="427" y="147"/>
      <point x="462" y="83" type="curve" smooth="yes"/>
      <point x="491" y="30"/>
      <point x="534" y="0"/>
      <point x="619" y="0" type="curve" smooth="yes"/>
      <point x="671" y="0" type="line"/>
      <point x="671" y="81" type="line"/>
      <point x="631" y="81" type="line" smooth="yes"/>
      <point x="566" y="81"/>
      <point x="537" y="107"/>
      <point x="505" y="184" type="curve" smooth="yes"/>
      <point x="479" y="247"/>
      <point x="457" y="285"/>
      <point x="410" y="285" type="curve" smooth="yes"/>
      <point x="370" y="285"/>
      <point x="336" y="251"/>
      <point x="278" y="189" type="curve"/>
      <point x="259" y="234" type="line" smooth="yes"/>
      <point x="234" y="292"/>
      <point x="188" y="399"/>
      <point x="188" y="418" type="curve" smooth="yes"/>
      <point x="188" y="425"/>
      <point x="195" y="438"/>
      <point x="198" y="442" type="curve" smooth="yes"/>
      <point x="203" y="452"/>
      <point x="208" y="463"/>
      <point x="208" y="473" type="curve" smooth="yes"/>
      <point x="208" y="507"/>
      <point x="141" y="522"/>
      <point x="103" y="522" type="curve" smooth="yes"/>
      <point x="74" y="522"/>
      <point x="59" y="514"/>
      <point x="59" y="500" type="curve" smooth="yes"/>
      <point x="59" y="488"/>
      <point x="67" y="468"/>
      <point x="88" y="419" type="curve" smooth="yes"/>
      <point x="180" y="206" type="line" smooth="yes"/>
      <point x="193" y="176"/>
      <point x="209" y="139"/>
      <point x="209" y="119" type="curve" smooth="yes"/>
      <point x="209" y="101"/>
      <point x="196" y="84"/>
      <point x="188" y="76" type="curve" smooth="yes"/>
      <point x="176" y="63"/>
      <point x="170" y="53"/>
      <point x="170" y="42" type="curve" smooth="yes"/>
      <point x="170" y="4"/>
      <point x="253" y="-10"/>
    </contour>
  </outline>
</glyph>
<glyph name="u10AEB.fina.high" format="2">
  <advance width="323"/>
  <outline>
    <contour>
      <point x="155" y="-61" type="curve" smooth="yes"/>
      <point x="201" y="-61"/>
      <point x="225" y="-27"/>
      <point x="225" y="35" type="curve" smooth="yes"/>
      <point x="225" y="90"/>
      <point x="212" y="513"/>
      <point x="206" y="558" type="curve" smooth="yes"/>
      <point x="201" y="592"/>
      <point x="186" y="603"/>
      <point x="159" y="603" type="curve" smooth="yes"/>
      <point x="123" y="603"/>
      <point x="108" y="584"/>
      <point x="108" y="555" type="curve" smooth="yes"/>
      <point x="108" y="541"/>
      <point x="112" y="515"/>
      <point x="117" y="483" type="curve" smooth="yes"/>
      <point x="127" y="417"/>
      <point x="138" y="330"/>
      <point x="138" y="237" type="curve" smooth="yes"/>
      <point x="138" y="186"/>
      <point x="138" y="142"/>
      <point x="133" y="106" type="curve"/>
      <point x="109" y="59"/>
      <point x="100" y="33"/>
      <point x="100" y="-1" type="curve" smooth="yes"/>
      <point x="100" y="-42"/>
      <point x="124" y="-61"/>
    </contour>
    <contour>
      <point x="164" y="217" type="line"/>
      <point x="362" y="217" type="line"/>
      <point x="362" y="298" type="line"/>
      <point x="164" y="298" type="line"/>
    </contour>
  </outline>
</glyph>
<glyph name="u10AEB.init" format="2">
  <advance width="284"/>
  <outline>
    <contour>
      <point x="-39" y="0" type="line"/>
      <point x="29" y="0" type="line" smooth="yes"/>
      <point x="169" y="0"/>
      <point x="225" y="53"/>
      <point x="225" y="152" type="curve" smooth="yes"/>
      <point x="225" y="243"/>
      <point x="184" y="344"/>
      <point x="91" y="344" type="curve" smooth="yes"/>
      <point x="40" y="344"/>
      <point x="12" y="315"/>
      <point x="12" y="271" type="curve" smooth="yes"/>
      <point x="12" y="229"/>
      <point x="36" y="206"/>
      <point x="68" y="194" type="curve" smooth="yes"/>
      <point x="103" y="181"/>
      <point x="127" y="162"/>
      <point x="127" y="133" type="curve" smooth="yes"/>
      <point x="127" y="103"/>
      <point x="107" y="81"/>
      <point x="35" y="81" type="curve" smooth="yes"/>
      <point x="-39" y="81" type="line"/>
    </contour>
  </outline>
</glyph>
<glyph name="u10AEB.medi.high" format="2">
  <advance width="284"/>
  <outline>
    <contour>
      <point x="-39" y="212" type="line"/>
      <point x="29" y="212" type="line" smooth="yes"/>
      <point x="169" y="212"/>
      <point x="225" y="265"/>
      <point x="225" y="364" type="curve" smooth="yes"/>
      <point x="225" y="455"/>
      <point x="184" y="556"/>
      <point x="91" y="556" type="curve" smooth="yes"/>
      <point x="40" y="556"/>
      <point x="12" y="527"/>
      <point x="12" y="483" type="curve" smooth="yes"/>
      <point x="12" y="441"/>
      <point x="36" y="418"/>
      <point x="68" y="406" type="curve" smooth="yes"/>
      <point x="103" y="393"/>
      <point x="127" y="374"/>
      <point x="127" y="345" type="curve" smooth="yes"/>
      <point x="127" y="315"/>
      <point x="107" y="293"/>
      <point x="35" y="293" type="curve" smooth="yes"/>
      <point x="-39" y="293" type="line"/>
    </contour>
    <contour>
      <point x="52" y="212" type="line"/>
      <point x="323" y="212" type="line"/>
      <point x="323" y="293" type="line"/>
      <point x="52" y="293" type="line"/>
    </contour>
  </outline>
</glyph>
<glyph name="u10AEC.fina" format="2">
  <advance width="762"/>
  <outline>
    <contour>
      <point x="146" y="0" type="curve" smooth="yes"/>
      <point x="801" y="0" type="line"/>
      <point x="801" y="81" type="line"/>
      <point x="718" y="81" type="line"/>
      <point x="463" y="221" type="line" smooth="yes"/>
      <point x="421" y="244"/>
      <point x="396" y="263"/>
      <point x="396" y="284" type="curve" smooth="yes"/>
      <point x="396" y="293"/>
      <point x="401" y="297"/>
      <point x="410" y="302" type="curve" smooth="yes"/>
      <point x="418" y="306"/>
      <point x="426" y="311"/>
      <point x="426" y="323" type="curve" smooth="yes"/>
      <point x="426" y="347"/>
      <point x="363" y="396"/>
      <point x="306" y="396" type="curve" smooth="yes"/>
      <point x="260" y="396"/>
      <point x="241" y="369"/>
      <point x="241" y="331" type="curve" smooth="yes"/>
      <point x="241" y="257"/>
      <point x="334" y="175"/>
      <point x="542" y="81" type="curve"/>
      <point x="249" y="81" type="line" smooth="yes"/>
      <point x="208" y="81"/>
      <point x="187" y="85"/>
      <point x="157" y="106" type="curve" smooth="yes"/>
      <point x="140" y="118"/>
      <point x="123" y="129"/>
      <point x="98" y="129" type="curve" smooth="yes"/>
      <point x="64" y="129"/>
      <point x="44" y="107"/>
      <point x="44" y="72" type="curve" smooth="yes"/>
      <point x="44" y="26"/>
      <point x="80" y="0"/>
    </contour>
  </outline>
</glyph>
<glyph name="u10AEC.init" format="2">
  <advance width="568"/>
  <outline>
    <contour>
      <point x="488" y="-24" type="curve" smooth="yes"/>
      <point x="512" y="-24"/>
      <point x="524" y="-10"/>
      <point x="524" y="16" type="curve" smooth="yes"/>
      <point x="524" y="47"/>
      <point x="497" y="71"/>
      <point x="451" y="95" type="curve" smooth="yes"/>
      <point x="214" y="221" type="line" smooth="yes"/>
      <point x="171" y="244"/>
      <point x="146" y="263"/>
      <point x="146" y="284" type="curve" smooth="yes"/>
      <point x="146" y="293"/>
      <point x="152" y="297"/>
      <point x="161" y="302" type="curve" smooth="yes"/>
      <point x="169" y="306"/>
      <point x="177" y="311"/>
      <point x="177" y="323" type="curve" smooth="yes"/>
      <point x="177" y="347"/>
      <point x="114" y="396"/>
      <point x="57" y="396" type="curve" smooth="yes"/>
      <point x="11" y="396"/>
      <point x="-8" y="369"/>
      <point x="-8" y="331" type="curve" smooth="yes"/>
      <point x="-8" y="257"/>
      <point x="85" y="175"/>
      <point x="293" y="81" type="curve"/>
      <point x="-39" y="81" type="line"/>
      <point x="-39" y="0" type="line"/>
      <point x="432" y="0" type="line"/>
      <point x="450" y="-15"/>
      <point x="463" y="-24"/>
    </contour>
  </outline>
</glyph>
<glyph name="u10AEC.medi" format="2">
  <advance width="513"/>
  <outline>
    <contour>
      <point x="-39" y="0" type="line"/>
      <point x="552" y="0" type="line"/>
      <point x="552" y="81" type="line"/>
      <point x="469" y="81" type="line"/>
      <point x="217" y="220" type="line" smooth="yes"/>
      <point x="173" y="244"/>
      <point x="147" y="263"/>
      <point x="147" y="284" type="curve" smooth="yes"/>
      <point x="147" y="293"/>
      <point x="153" y="298"/>
      <point x="161" y="302" type="curve" smooth="yes"/>
      <point x="169" y="306"/>
      <point x="178" y="311"/>
      <point x="178" y="323" type="curve" smooth="yes"/>
      <point x="178" y="347"/>
      <point x="114" y="396"/>
      <point x="57" y="396" type="curve" smooth="yes"/>
      <point x="12" y="396"/>
      <point x="-8" y="369"/>
      <point x="-8" y="331" type="curve" smooth="yes"/>
      <point x="-8" y="257"/>
      <point x="86" y="175"/>
      <point x="293" y="81" type="curve"/>
      <point x="-39" y="81" type="line"/>
    </contour>
  </outline>
</glyph>
<glyph name="u10AED.fina" format="2">
  <advance width="601"/>
  <outline>
    <contour>
      <point x="265" y="-273" type="curve" smooth="yes"/>
      <point x="293" y="-273"/>
      <point x="318" y="-264"/>
      <point x="318" y="-217" type="curve" smooth="yes"/>
      <point x="318" y="-163"/>
      <point x="309" y="-117"/>
      <point x="299" y="-66" type="curve" smooth="yes"/>
      <point x="287" y="-5"/>
      <point x="272" y="72"/>
      <point x="272" y="160" type="curve" smooth="yes"/>
      <point x="272" y="181"/>
      <point x="273" y="201"/>
      <point x="274" y="217" type="curve"/>
      <point x="424" y="217" type="line"/>
      <point x="418" y="195"/>
      <point x="415" y="170"/>
      <point x="415" y="147" type="curve" smooth="yes"/>
      <point x="415" y="65"/>
      <point x="461" y="0"/>
      <point x="578" y="0" type="curve" smooth="yes"/>
      <point x="640" y="0" type="line"/>
      <point x="640" y="81" type="line"/>
      <point x="578" y="81" type="line" smooth="yes"/>
      <point x="509" y="81"/>
      <point x="500" y="111"/>
      <point x="500" y="133" type="curve" smooth="yes"/>
      <point x="500" y="159"/>
      <point x="516" y="174"/>
      <point x="537" y="183" type="curve" smooth="yes"/>
      <point x="556" y="191"/>
      <point x="585" y="206"/>
      <point x="585" y="245" type="curve" smooth="yes"/>
      <point x="585" y="284"/>
      <point x="562" y="309"/>
      <point x="523" y="309" type="curve" smooth="yes"/>
      <point x="508" y="309"/>
      <point x="495" y="305"/>
      <point x="483" y="298" type="curve"/>
      <point x="249" y="298" type="line" smooth="yes"/>
      <point x="189" y="298"/>
      <point x="161" y="314"/>
      <point x="140" y="327" type="curve" smooth="yes"/>
      <point x="127" y="335"/>
      <point x="116" y="341"/>
      <point x="94" y="341" type="curve" smooth="yes"/>
      <point x="62" y="341"/>
      <point x="42" y="322"/>
      <point x="42" y="286" type="curve" smooth="yes"/>
      <point x="42" y="248"/>
      <point x="78" y="217"/>
      <point x="144" y="217" type="curve" smooth="yes"/>
      <point x="173" y="217" type="line"/>
      <point x="175" y="152"/>
      <point x="182" y="96"/>
      <point x="191" y="36" type="curve" smooth="yes"/>
      <point x="202" y="-34"/>
      <point x="212" y="-106"/>
      <point x="212" y="-200" type="curve" smooth="yes"/>
      <point x="212" y="-253"/>
      <point x="229" y="-273"/>
    </contour>
  </outline>
</glyph>
<glyph name="u10AED.init" format="2">
  <advance width="516"/>
  <outline>
    <contour>
      <point x="118" y="-29" type="curve" smooth="yes"/>
      <point x="153" y="-29"/>
      <point x="167" y="2"/>
      <point x="167" y="32" type="curve" smooth="yes"/>
      <point x="167" y="78"/>
      <point x="158" y="113"/>
      <point x="149" y="143" type="curve" smooth="yes"/>
      <point x="142" y="166"/>
      <point x="137" y="188"/>
      <point x="136" y="217" type="curve"/>
      <point x="305" y="217" type="line"/>
      <point x="328" y="175"/>
      <point x="348" y="127"/>
      <point x="348" y="90" type="curve" smooth="yes"/>
      <point x="348" y="79"/>
      <point x="347" y="68"/>
      <point x="344" y="57" type="curve" smooth="yes"/>
      <point x="340" y="43"/>
      <point x="339" y="36"/>
      <point x="339" y="20" type="curve" smooth="yes"/>
      <point x="339" y="-11"/>
      <point x="363" y="-27"/>
      <point x="400" y="-27" type="curve" smooth="yes"/>
      <point x="431" y="-27"/>
      <point x="457" y="-13"/>
      <point x="457" y="23" type="curve" smooth="yes"/>
      <point x="457" y="48"/>
      <point x="444" y="82"/>
      <point x="431" y="110" type="curve" smooth="yes"/>
      <point x="418" y="139"/>
      <point x="407" y="165"/>
      <point x="407" y="190" type="curve" smooth="yes"/>
      <point x="407" y="207"/>
      <point x="410" y="226"/>
      <point x="414" y="242" type="curve" smooth="yes"/>
      <point x="416" y="251"/>
      <point x="417" y="262"/>
      <point x="417" y="268" type="curve" smooth="yes"/>
      <point x="417" y="302"/>
      <point x="384" y="314"/>
      <point x="360" y="314" type="curve" smooth="yes"/>
      <point x="337" y="314"/>
      <point x="321" y="308"/>
      <point x="311" y="298" type="curve"/>
      <point x="-39" y="298" type="line"/>
      <point x="-39" y="217" type="line"/>
      <point x="53" y="217" type="line"/>
      <point x="60" y="171"/>
      <point x="61" y="109"/>
      <point x="61" y="35" type="curve" smooth="yes"/>
      <point x="61" y="-8"/>
      <point x="79" y="-29"/>
    </contour>
  </outline>
</glyph>
<glyph name="u10AED.medi" format="2">
  <advance width="471"/>
  <outline>
    <contour>
      <point x="118" y="-34" type="curve" smooth="yes"/>
      <point x="153" y="-34"/>
      <point x="167" y="-3"/>
      <point x="167" y="27" type="curve" smooth="yes"/>
      <point x="167" y="73"/>
      <point x="158" y="108"/>
      <point x="149" y="138" type="curve" smooth="yes"/>
      <point x="143" y="159"/>
      <point x="137" y="188"/>
      <point x="136" y="217" type="curve"/>
      <point x="294" y="217" type="line"/>
      <point x="288" y="196"/>
      <point x="285" y="169"/>
      <point x="285" y="147" type="curve" smooth="yes"/>
      <point x="285" y="65"/>
      <point x="332" y="0"/>
      <point x="448" y="0" type="curve" smooth="yes"/>
      <point x="510" y="0" type="line"/>
      <point x="510" y="81" type="line"/>
      <point x="448" y="81" type="line" smooth="yes"/>
      <point x="379" y="81"/>
      <point x="371" y="109"/>
      <point x="371" y="133" type="curve" smooth="yes"/>
      <point x="371" y="159"/>
      <point x="386" y="174"/>
      <point x="407" y="183" type="curve" smooth="yes"/>
      <point x="426" y="191"/>
      <point x="456" y="206"/>
      <point x="456" y="245" type="curve" smooth="yes"/>
      <point x="456" y="284"/>
      <point x="432" y="309"/>
      <point x="393" y="309" type="curve" smooth="yes"/>
      <point x="378" y="309"/>
      <point x="365" y="305"/>
      <point x="354" y="298" type="curve"/>
      <point x="-39" y="298" type="line"/>
      <point x="-39" y="217" type="line"/>
      <point x="53" y="217" type="line"/>
      <point x="60" y="171"/>
      <point x="61" y="104"/>
      <point x="61" y="30" type="curve" smooth="yes"/>
      <point x="61" y="-13"/>
      <point x="79" y="-34"/>
    </contour>
  </outline>
</glyph>
<glyph name="u10AEE.fina" format="2">
  <advance width="824"/>
  <outline>
    <contour>
      <point x="146" y="0" type="curve" smooth="yes"/>
      <point x="741" y="0" type="line" smooth="yes"/>
      <point x="767" y="0"/>
      <point x="780" y="9"/>
      <point x="780" y="29" type="curve" smooth="yes"/>
      <point x="780" y="42"/>
      <point x="775" y="58"/>
      <point x="767" y="81" type="curve" smooth="yes"/>
      <point x="721" y="208"/>
      <point x="647" y="340"/>
      <point x="518" y="340" type="curve" smooth="yes"/>
      <point x="429" y="340"/>
      <point x="385" y="279"/>
      <point x="385" y="216" type="curve" smooth="yes"/>
      <point x="385" y="164"/>
      <point x="410" y="114"/>
      <point x="475" y="81" type="curve"/>
      <point x="220" y="81" type="line" smooth="yes"/>
      <point x="192" y="81"/>
      <point x="174" y="93"/>
      <point x="157" y="105" type="curve" smooth="yes"/>
      <point x="141" y="117"/>
      <point x="124" y="129"/>
      <point x="98" y="129" type="curve" smooth="yes"/>
      <point x="64" y="129"/>
      <point x="44" y="107"/>
      <point x="44" y="72" type="curve" smooth="yes"/>
      <point x="44" y="29"/>
      <point x="80" y="0"/>
    </contour>
    <contour>
      <point x="666" y="81" type="curve"/>
      <point x="572" y="81"/>
      <point x="476" y="141"/>
      <point x="476" y="206" type="curve" smooth="yes"/>
      <point x="476" y="238"/>
      <point x="491" y="253"/>
      <point x="518" y="253" type="curve" smooth="yes"/>
      <point x="585" y="253"/>
      <point x="666" y="141"/>
    </contour>
    <contour>
      <point x="666" y="0" type="line"/>
      <point x="864" y="0" type="line"/>
      <point x="864" y="81" type="line"/>
      <point x="666" y="81" type="line"/>
    </contour>
  </outline>
</glyph>
<glyph name="u10AEE.medi" format="2">
  <advance width="480"/>
  <outline>
    <contour>
      <point x="-39" y="0" type="line"/>
      <point x="397" y="0" type="line" smooth="yes"/>
      <point x="422" y="0"/>
      <point x="436" y="9"/>
      <point x="436" y="29" type="curve" smooth="yes"/>
      <point x="436" y="42"/>
      <point x="430" y="59"/>
      <point x="422" y="81" type="curve" smooth="yes"/>
      <point x="376" y="208"/>
      <point x="303" y="340"/>
      <point x="173" y="340" type="curve" smooth="yes"/>
      <point x="85" y="340"/>
      <point x="41" y="279"/>
      <point x="41" y="216" type="curve" smooth="yes"/>
      <point x="41" y="164"/>
      <point x="66" y="115"/>
      <point x="111" y="81" type="curve"/>
      <point x="-39" y="81" type="line"/>
    </contour>
    <contour>
      <point x="321" y="81" type="curve"/>
      <point x="228" y="81"/>
      <point x="131" y="143"/>
      <point x="131" y="206" type="curve" smooth="yes"/>
      <point x="131" y="238"/>
      <point x="147" y="253"/>
      <point x="174" y="253" type="curve" smooth="yes"/>
      <point x="241" y="253"/>
      <point x="321" y="143"/>
    </contour>
    <contour>
      <point x="321" y="0" type="line"/>
      <point x="519" y="0" type="line"/>
      <point x="519" y="81" type="line"/>
      <point x="321" y="81" type="line"/>
    </contour>
  </outline>
</glyph>
<glyph name="u10AEF.fina" format="2">
  <advance width="631"/>
  <outline>
    <contour>
      <point x="185" y="-273" type="curve" smooth="yes"/>
      <point x="221" y="-273"/>
      <point x="241" y="-259"/>
      <point x="241" y="-195" type="curve" smooth="yes"/>
      <point x="241" y="-156"/>
      <point x="233" y="-48"/>
      <point x="221" y="57" type="curve"/>
      <point x="265" y="17"/>
      <point x="324" y="-10"/>
      <point x="405" y="-10" type="curve" smooth="yes"/>
      <point x="553" y="-10"/>
      <point x="587" y="81"/>
      <point x="587" y="150" type="curve" smooth="yes"/>
      <point x="587" y="198"/>
      <point x="571" y="246"/>
      <point x="548" y="280" type="curve"/>
      <point x="561" y="293"/>
      <point x="567" y="307"/>
      <point x="567" y="322" type="curve" smooth="yes"/>
      <point x="567" y="344"/>
      <point x="554" y="366"/>
      <point x="520" y="366" type="curve" smooth="yes"/>
      <point x="494" y="366"/>
      <point x="482" y="354"/>
      <point x="466" y="338" type="curve" smooth="yes"/>
      <point x="443" y="316"/>
      <point x="413" y="288"/>
      <point x="326" y="288" type="curve" smooth="yes"/>
      <point x="243" y="288"/>
      <point x="201" y="318"/>
      <point x="170" y="344" type="curve" smooth="yes"/>
      <point x="150" y="361"/>
      <point x="132" y="376"/>
      <point x="105" y="376" type="curve" smooth="yes"/>
      <point x="73" y="376"/>
      <point x="59" y="355"/>
      <point x="59" y="332" type="curve" smooth="yes"/>
      <point x="59" y="310"/>
      <point x="72" y="289"/>
      <point x="93" y="271" type="curve"/>
      <point x="125" y="182"/>
      <point x="134" y="100"/>
      <point x="134" y="28" type="curve" smooth="yes"/>
      <point x="134" y="-16"/>
      <point x="133" y="-73"/>
      <point x="129" y="-123" type="curve" smooth="yes"/>
      <point x="126" y="-159"/>
      <point x="125" y="-190"/>
      <point x="125" y="-205" type="curve" smooth="yes"/>
      <point x="125" y="-251"/>
      <point x="140" y="-273"/>
    </contour>
    <contour>
      <point x="401" y="78" type="curve" smooth="yes"/>
      <point x="328" y="78"/>
      <point x="248" y="112"/>
      <point x="197" y="227" type="curve"/>
      <point x="240" y="213"/>
      <point x="280" y="203"/>
      <point x="328" y="203" type="curve" smooth="yes"/>
      <point x="383" y="203"/>
      <point x="434" y="213"/>
      <point x="473" y="230" type="curve"/>
      <point x="488" y="201"/>
      <point x="497" y="176"/>
      <point x="497" y="148" type="curve" smooth="yes"/>
      <point x="497" y="111"/>
      <point x="480" y="78"/>
    </contour>
    <contour>
      <point x="473" y="0" type="line"/>
      <point x="671" y="0" type="line"/>
      <point x="671" y="81" type="line"/>
      <point x="473" y="81" type="line"/>
    </contour>
  </outline>
</glyph>
